G04 #@! TF.GenerationSoftware,KiCad,Pcbnew,(5.1.0)-1*
G04 #@! TF.CreationDate,2019-04-26T16:32:53+08:00*
G04 #@! TF.ProjectId,stm32,73746d33-322e-46b6-9963-61645f706362,rev?*
G04 #@! TF.SameCoordinates,Original*
G04 #@! TF.FileFunction,Soldermask,Bot*
G04 #@! TF.FilePolarity,Negative*
%FSLAX46Y46*%
G04 Gerber Fmt 4.6, Leading zero omitted, Abs format (unit mm)*
G04 Created by KiCad (PCBNEW (5.1.0)-1) date 2019-04-26 16:32:53*
%MOMM*%
%LPD*%
G04 APERTURE LIST*
%ADD10C,0.100000*%
G04 APERTURE END LIST*
D10*
G36*
X116950442Y-112770518D02*
G01*
X117016627Y-112777037D01*
X117186466Y-112828557D01*
X117342991Y-112912222D01*
X117378729Y-112941552D01*
X117480186Y-113024814D01*
X117563448Y-113126271D01*
X117592778Y-113162009D01*
X117676443Y-113318534D01*
X117727963Y-113488373D01*
X117745359Y-113665000D01*
X117727963Y-113841627D01*
X117676443Y-114011466D01*
X117592778Y-114167991D01*
X117563448Y-114203729D01*
X117480186Y-114305186D01*
X117378729Y-114388448D01*
X117342991Y-114417778D01*
X117186466Y-114501443D01*
X117016627Y-114552963D01*
X116950442Y-114559482D01*
X116884260Y-114566000D01*
X116795740Y-114566000D01*
X116729558Y-114559482D01*
X116663373Y-114552963D01*
X116493534Y-114501443D01*
X116337009Y-114417778D01*
X116301271Y-114388448D01*
X116199814Y-114305186D01*
X116116552Y-114203729D01*
X116087222Y-114167991D01*
X116003557Y-114011466D01*
X115952037Y-113841627D01*
X115934641Y-113665000D01*
X115952037Y-113488373D01*
X116003557Y-113318534D01*
X116087222Y-113162009D01*
X116116552Y-113126271D01*
X116199814Y-113024814D01*
X116301271Y-112941552D01*
X116337009Y-112912222D01*
X116493534Y-112828557D01*
X116663373Y-112777037D01*
X116729558Y-112770518D01*
X116795740Y-112764000D01*
X116884260Y-112764000D01*
X116950442Y-112770518D01*
X116950442Y-112770518D01*
G37*
G36*
X134730442Y-112770518D02*
G01*
X134796627Y-112777037D01*
X134966466Y-112828557D01*
X135122991Y-112912222D01*
X135158729Y-112941552D01*
X135260186Y-113024814D01*
X135343448Y-113126271D01*
X135372778Y-113162009D01*
X135456443Y-113318534D01*
X135507963Y-113488373D01*
X135525359Y-113665000D01*
X135507963Y-113841627D01*
X135456443Y-114011466D01*
X135372778Y-114167991D01*
X135343448Y-114203729D01*
X135260186Y-114305186D01*
X135158729Y-114388448D01*
X135122991Y-114417778D01*
X134966466Y-114501443D01*
X134796627Y-114552963D01*
X134730442Y-114559482D01*
X134664260Y-114566000D01*
X134575740Y-114566000D01*
X134509558Y-114559482D01*
X134443373Y-114552963D01*
X134273534Y-114501443D01*
X134117009Y-114417778D01*
X134081271Y-114388448D01*
X133979814Y-114305186D01*
X133896552Y-114203729D01*
X133867222Y-114167991D01*
X133783557Y-114011466D01*
X133732037Y-113841627D01*
X133714641Y-113665000D01*
X133732037Y-113488373D01*
X133783557Y-113318534D01*
X133867222Y-113162009D01*
X133896552Y-113126271D01*
X133979814Y-113024814D01*
X134081271Y-112941552D01*
X134117009Y-112912222D01*
X134273534Y-112828557D01*
X134443373Y-112777037D01*
X134509558Y-112770518D01*
X134575740Y-112764000D01*
X134664260Y-112764000D01*
X134730442Y-112770518D01*
X134730442Y-112770518D01*
G37*
G36*
X143141000Y-114566000D02*
G01*
X141339000Y-114566000D01*
X141339000Y-112764000D01*
X143141000Y-112764000D01*
X143141000Y-114566000D01*
X143141000Y-114566000D01*
G37*
G36*
X125361000Y-114566000D02*
G01*
X123559000Y-114566000D01*
X123559000Y-112764000D01*
X125361000Y-112764000D01*
X125361000Y-114566000D01*
X125361000Y-114566000D01*
G37*
G36*
X129650442Y-112770518D02*
G01*
X129716627Y-112777037D01*
X129886466Y-112828557D01*
X130042991Y-112912222D01*
X130078729Y-112941552D01*
X130180186Y-113024814D01*
X130263448Y-113126271D01*
X130292778Y-113162009D01*
X130376443Y-113318534D01*
X130427963Y-113488373D01*
X130445359Y-113665000D01*
X130427963Y-113841627D01*
X130376443Y-114011466D01*
X130292778Y-114167991D01*
X130263448Y-114203729D01*
X130180186Y-114305186D01*
X130078729Y-114388448D01*
X130042991Y-114417778D01*
X129886466Y-114501443D01*
X129716627Y-114552963D01*
X129650442Y-114559482D01*
X129584260Y-114566000D01*
X129495740Y-114566000D01*
X129429558Y-114559482D01*
X129363373Y-114552963D01*
X129193534Y-114501443D01*
X129037009Y-114417778D01*
X129001271Y-114388448D01*
X128899814Y-114305186D01*
X128816552Y-114203729D01*
X128787222Y-114167991D01*
X128703557Y-114011466D01*
X128652037Y-113841627D01*
X128634641Y-113665000D01*
X128652037Y-113488373D01*
X128703557Y-113318534D01*
X128787222Y-113162009D01*
X128816552Y-113126271D01*
X128899814Y-113024814D01*
X129001271Y-112941552D01*
X129037009Y-112912222D01*
X129193534Y-112828557D01*
X129363373Y-112777037D01*
X129429558Y-112770518D01*
X129495740Y-112764000D01*
X129584260Y-112764000D01*
X129650442Y-112770518D01*
X129650442Y-112770518D01*
G37*
G36*
X132190442Y-112770518D02*
G01*
X132256627Y-112777037D01*
X132426466Y-112828557D01*
X132582991Y-112912222D01*
X132618729Y-112941552D01*
X132720186Y-113024814D01*
X132803448Y-113126271D01*
X132832778Y-113162009D01*
X132916443Y-113318534D01*
X132967963Y-113488373D01*
X132985359Y-113665000D01*
X132967963Y-113841627D01*
X132916443Y-114011466D01*
X132832778Y-114167991D01*
X132803448Y-114203729D01*
X132720186Y-114305186D01*
X132618729Y-114388448D01*
X132582991Y-114417778D01*
X132426466Y-114501443D01*
X132256627Y-114552963D01*
X132190442Y-114559482D01*
X132124260Y-114566000D01*
X132035740Y-114566000D01*
X131969558Y-114559482D01*
X131903373Y-114552963D01*
X131733534Y-114501443D01*
X131577009Y-114417778D01*
X131541271Y-114388448D01*
X131439814Y-114305186D01*
X131356552Y-114203729D01*
X131327222Y-114167991D01*
X131243557Y-114011466D01*
X131192037Y-113841627D01*
X131174641Y-113665000D01*
X131192037Y-113488373D01*
X131243557Y-113318534D01*
X131327222Y-113162009D01*
X131356552Y-113126271D01*
X131439814Y-113024814D01*
X131541271Y-112941552D01*
X131577009Y-112912222D01*
X131733534Y-112828557D01*
X131903373Y-112777037D01*
X131969558Y-112770518D01*
X132035740Y-112764000D01*
X132124260Y-112764000D01*
X132190442Y-112770518D01*
X132190442Y-112770518D01*
G37*
G36*
X127110442Y-112770518D02*
G01*
X127176627Y-112777037D01*
X127346466Y-112828557D01*
X127502991Y-112912222D01*
X127538729Y-112941552D01*
X127640186Y-113024814D01*
X127723448Y-113126271D01*
X127752778Y-113162009D01*
X127836443Y-113318534D01*
X127887963Y-113488373D01*
X127905359Y-113665000D01*
X127887963Y-113841627D01*
X127836443Y-114011466D01*
X127752778Y-114167991D01*
X127723448Y-114203729D01*
X127640186Y-114305186D01*
X127538729Y-114388448D01*
X127502991Y-114417778D01*
X127346466Y-114501443D01*
X127176627Y-114552963D01*
X127110442Y-114559482D01*
X127044260Y-114566000D01*
X126955740Y-114566000D01*
X126889558Y-114559482D01*
X126823373Y-114552963D01*
X126653534Y-114501443D01*
X126497009Y-114417778D01*
X126461271Y-114388448D01*
X126359814Y-114305186D01*
X126276552Y-114203729D01*
X126247222Y-114167991D01*
X126163557Y-114011466D01*
X126112037Y-113841627D01*
X126094641Y-113665000D01*
X126112037Y-113488373D01*
X126163557Y-113318534D01*
X126247222Y-113162009D01*
X126276552Y-113126271D01*
X126359814Y-113024814D01*
X126461271Y-112941552D01*
X126497009Y-112912222D01*
X126653534Y-112828557D01*
X126823373Y-112777037D01*
X126889558Y-112770518D01*
X126955740Y-112764000D01*
X127044260Y-112764000D01*
X127110442Y-112770518D01*
X127110442Y-112770518D01*
G37*
G36*
X142350443Y-110230519D02*
G01*
X142416627Y-110237037D01*
X142586466Y-110288557D01*
X142742991Y-110372222D01*
X142778729Y-110401552D01*
X142880186Y-110484814D01*
X142963448Y-110586271D01*
X142992778Y-110622009D01*
X143076443Y-110778534D01*
X143127963Y-110948373D01*
X143145359Y-111125000D01*
X143127963Y-111301627D01*
X143076443Y-111471466D01*
X142992778Y-111627991D01*
X142963448Y-111663729D01*
X142880186Y-111765186D01*
X142778729Y-111848448D01*
X142742991Y-111877778D01*
X142586466Y-111961443D01*
X142416627Y-112012963D01*
X142350442Y-112019482D01*
X142284260Y-112026000D01*
X142195740Y-112026000D01*
X142129558Y-112019482D01*
X142063373Y-112012963D01*
X141893534Y-111961443D01*
X141737009Y-111877778D01*
X141701271Y-111848448D01*
X141599814Y-111765186D01*
X141516552Y-111663729D01*
X141487222Y-111627991D01*
X141403557Y-111471466D01*
X141352037Y-111301627D01*
X141334641Y-111125000D01*
X141352037Y-110948373D01*
X141403557Y-110778534D01*
X141487222Y-110622009D01*
X141516552Y-110586271D01*
X141599814Y-110484814D01*
X141701271Y-110401552D01*
X141737009Y-110372222D01*
X141893534Y-110288557D01*
X142063373Y-110237037D01*
X142129557Y-110230519D01*
X142195740Y-110224000D01*
X142284260Y-110224000D01*
X142350443Y-110230519D01*
X142350443Y-110230519D01*
G37*
G36*
X116950443Y-110230519D02*
G01*
X117016627Y-110237037D01*
X117186466Y-110288557D01*
X117342991Y-110372222D01*
X117378729Y-110401552D01*
X117480186Y-110484814D01*
X117563448Y-110586271D01*
X117592778Y-110622009D01*
X117676443Y-110778534D01*
X117727963Y-110948373D01*
X117745359Y-111125000D01*
X117727963Y-111301627D01*
X117676443Y-111471466D01*
X117592778Y-111627991D01*
X117563448Y-111663729D01*
X117480186Y-111765186D01*
X117378729Y-111848448D01*
X117342991Y-111877778D01*
X117186466Y-111961443D01*
X117016627Y-112012963D01*
X116950442Y-112019482D01*
X116884260Y-112026000D01*
X116795740Y-112026000D01*
X116729558Y-112019482D01*
X116663373Y-112012963D01*
X116493534Y-111961443D01*
X116337009Y-111877778D01*
X116301271Y-111848448D01*
X116199814Y-111765186D01*
X116116552Y-111663729D01*
X116087222Y-111627991D01*
X116003557Y-111471466D01*
X115952037Y-111301627D01*
X115934641Y-111125000D01*
X115952037Y-110948373D01*
X116003557Y-110778534D01*
X116087222Y-110622009D01*
X116116552Y-110586271D01*
X116199814Y-110484814D01*
X116301271Y-110401552D01*
X116337009Y-110372222D01*
X116493534Y-110288557D01*
X116663373Y-110237037D01*
X116729557Y-110230519D01*
X116795740Y-110224000D01*
X116884260Y-110224000D01*
X116950443Y-110230519D01*
X116950443Y-110230519D01*
G37*
G36*
X116950443Y-107690519D02*
G01*
X117016627Y-107697037D01*
X117186466Y-107748557D01*
X117342991Y-107832222D01*
X117378729Y-107861552D01*
X117480186Y-107944814D01*
X117563448Y-108046271D01*
X117592778Y-108082009D01*
X117676443Y-108238534D01*
X117727963Y-108408373D01*
X117745359Y-108585000D01*
X117727963Y-108761627D01*
X117676443Y-108931466D01*
X117592778Y-109087991D01*
X117563448Y-109123729D01*
X117480186Y-109225186D01*
X117378729Y-109308448D01*
X117342991Y-109337778D01*
X117186466Y-109421443D01*
X117016627Y-109472963D01*
X116950442Y-109479482D01*
X116884260Y-109486000D01*
X116795740Y-109486000D01*
X116729558Y-109479482D01*
X116663373Y-109472963D01*
X116493534Y-109421443D01*
X116337009Y-109337778D01*
X116301271Y-109308448D01*
X116199814Y-109225186D01*
X116116552Y-109123729D01*
X116087222Y-109087991D01*
X116003557Y-108931466D01*
X115952037Y-108761627D01*
X115934641Y-108585000D01*
X115952037Y-108408373D01*
X116003557Y-108238534D01*
X116087222Y-108082009D01*
X116116552Y-108046271D01*
X116199814Y-107944814D01*
X116301271Y-107861552D01*
X116337009Y-107832222D01*
X116493534Y-107748557D01*
X116663373Y-107697037D01*
X116729557Y-107690519D01*
X116795740Y-107684000D01*
X116884260Y-107684000D01*
X116950443Y-107690519D01*
X116950443Y-107690519D01*
G37*
G36*
X142350443Y-107690519D02*
G01*
X142416627Y-107697037D01*
X142586466Y-107748557D01*
X142742991Y-107832222D01*
X142778729Y-107861552D01*
X142880186Y-107944814D01*
X142963448Y-108046271D01*
X142992778Y-108082009D01*
X143076443Y-108238534D01*
X143127963Y-108408373D01*
X143145359Y-108585000D01*
X143127963Y-108761627D01*
X143076443Y-108931466D01*
X142992778Y-109087991D01*
X142963448Y-109123729D01*
X142880186Y-109225186D01*
X142778729Y-109308448D01*
X142742991Y-109337778D01*
X142586466Y-109421443D01*
X142416627Y-109472963D01*
X142350442Y-109479482D01*
X142284260Y-109486000D01*
X142195740Y-109486000D01*
X142129558Y-109479482D01*
X142063373Y-109472963D01*
X141893534Y-109421443D01*
X141737009Y-109337778D01*
X141701271Y-109308448D01*
X141599814Y-109225186D01*
X141516552Y-109123729D01*
X141487222Y-109087991D01*
X141403557Y-108931466D01*
X141352037Y-108761627D01*
X141334641Y-108585000D01*
X141352037Y-108408373D01*
X141403557Y-108238534D01*
X141487222Y-108082009D01*
X141516552Y-108046271D01*
X141599814Y-107944814D01*
X141701271Y-107861552D01*
X141737009Y-107832222D01*
X141893534Y-107748557D01*
X142063373Y-107697037D01*
X142129557Y-107690519D01*
X142195740Y-107684000D01*
X142284260Y-107684000D01*
X142350443Y-107690519D01*
X142350443Y-107690519D01*
G37*
G36*
X116950443Y-105150519D02*
G01*
X117016627Y-105157037D01*
X117186466Y-105208557D01*
X117342991Y-105292222D01*
X117378729Y-105321552D01*
X117480186Y-105404814D01*
X117563448Y-105506271D01*
X117592778Y-105542009D01*
X117676443Y-105698534D01*
X117727963Y-105868373D01*
X117745359Y-106045000D01*
X117727963Y-106221627D01*
X117676443Y-106391466D01*
X117592778Y-106547991D01*
X117563448Y-106583729D01*
X117480186Y-106685186D01*
X117378729Y-106768448D01*
X117342991Y-106797778D01*
X117186466Y-106881443D01*
X117016627Y-106932963D01*
X116950442Y-106939482D01*
X116884260Y-106946000D01*
X116795740Y-106946000D01*
X116729558Y-106939482D01*
X116663373Y-106932963D01*
X116493534Y-106881443D01*
X116337009Y-106797778D01*
X116301271Y-106768448D01*
X116199814Y-106685186D01*
X116116552Y-106583729D01*
X116087222Y-106547991D01*
X116003557Y-106391466D01*
X115952037Y-106221627D01*
X115934641Y-106045000D01*
X115952037Y-105868373D01*
X116003557Y-105698534D01*
X116087222Y-105542009D01*
X116116552Y-105506271D01*
X116199814Y-105404814D01*
X116301271Y-105321552D01*
X116337009Y-105292222D01*
X116493534Y-105208557D01*
X116663373Y-105157037D01*
X116729558Y-105150518D01*
X116795740Y-105144000D01*
X116884260Y-105144000D01*
X116950443Y-105150519D01*
X116950443Y-105150519D01*
G37*
G36*
X142350443Y-105150519D02*
G01*
X142416627Y-105157037D01*
X142586466Y-105208557D01*
X142742991Y-105292222D01*
X142778729Y-105321552D01*
X142880186Y-105404814D01*
X142963448Y-105506271D01*
X142992778Y-105542009D01*
X143076443Y-105698534D01*
X143127963Y-105868373D01*
X143145359Y-106045000D01*
X143127963Y-106221627D01*
X143076443Y-106391466D01*
X142992778Y-106547991D01*
X142963448Y-106583729D01*
X142880186Y-106685186D01*
X142778729Y-106768448D01*
X142742991Y-106797778D01*
X142586466Y-106881443D01*
X142416627Y-106932963D01*
X142350442Y-106939482D01*
X142284260Y-106946000D01*
X142195740Y-106946000D01*
X142129558Y-106939482D01*
X142063373Y-106932963D01*
X141893534Y-106881443D01*
X141737009Y-106797778D01*
X141701271Y-106768448D01*
X141599814Y-106685186D01*
X141516552Y-106583729D01*
X141487222Y-106547991D01*
X141403557Y-106391466D01*
X141352037Y-106221627D01*
X141334641Y-106045000D01*
X141352037Y-105868373D01*
X141403557Y-105698534D01*
X141487222Y-105542009D01*
X141516552Y-105506271D01*
X141599814Y-105404814D01*
X141701271Y-105321552D01*
X141737009Y-105292222D01*
X141893534Y-105208557D01*
X142063373Y-105157037D01*
X142129558Y-105150518D01*
X142195740Y-105144000D01*
X142284260Y-105144000D01*
X142350443Y-105150519D01*
X142350443Y-105150519D01*
G37*
G36*
X116950442Y-102610518D02*
G01*
X117016627Y-102617037D01*
X117186466Y-102668557D01*
X117342991Y-102752222D01*
X117378729Y-102781552D01*
X117480186Y-102864814D01*
X117563448Y-102966271D01*
X117592778Y-103002009D01*
X117676443Y-103158534D01*
X117727963Y-103328373D01*
X117745359Y-103505000D01*
X117727963Y-103681627D01*
X117676443Y-103851466D01*
X117592778Y-104007991D01*
X117563448Y-104043729D01*
X117480186Y-104145186D01*
X117378729Y-104228448D01*
X117342991Y-104257778D01*
X117186466Y-104341443D01*
X117016627Y-104392963D01*
X116950442Y-104399482D01*
X116884260Y-104406000D01*
X116795740Y-104406000D01*
X116729558Y-104399482D01*
X116663373Y-104392963D01*
X116493534Y-104341443D01*
X116337009Y-104257778D01*
X116301271Y-104228448D01*
X116199814Y-104145186D01*
X116116552Y-104043729D01*
X116087222Y-104007991D01*
X116003557Y-103851466D01*
X115952037Y-103681627D01*
X115934641Y-103505000D01*
X115952037Y-103328373D01*
X116003557Y-103158534D01*
X116087222Y-103002009D01*
X116116552Y-102966271D01*
X116199814Y-102864814D01*
X116301271Y-102781552D01*
X116337009Y-102752222D01*
X116493534Y-102668557D01*
X116663373Y-102617037D01*
X116729558Y-102610518D01*
X116795740Y-102604000D01*
X116884260Y-102604000D01*
X116950442Y-102610518D01*
X116950442Y-102610518D01*
G37*
G36*
X142350442Y-102610518D02*
G01*
X142416627Y-102617037D01*
X142586466Y-102668557D01*
X142742991Y-102752222D01*
X142778729Y-102781552D01*
X142880186Y-102864814D01*
X142963448Y-102966271D01*
X142992778Y-103002009D01*
X143076443Y-103158534D01*
X143127963Y-103328373D01*
X143145359Y-103505000D01*
X143127963Y-103681627D01*
X143076443Y-103851466D01*
X142992778Y-104007991D01*
X142963448Y-104043729D01*
X142880186Y-104145186D01*
X142778729Y-104228448D01*
X142742991Y-104257778D01*
X142586466Y-104341443D01*
X142416627Y-104392963D01*
X142350442Y-104399482D01*
X142284260Y-104406000D01*
X142195740Y-104406000D01*
X142129558Y-104399482D01*
X142063373Y-104392963D01*
X141893534Y-104341443D01*
X141737009Y-104257778D01*
X141701271Y-104228448D01*
X141599814Y-104145186D01*
X141516552Y-104043729D01*
X141487222Y-104007991D01*
X141403557Y-103851466D01*
X141352037Y-103681627D01*
X141334641Y-103505000D01*
X141352037Y-103328373D01*
X141403557Y-103158534D01*
X141487222Y-103002009D01*
X141516552Y-102966271D01*
X141599814Y-102864814D01*
X141701271Y-102781552D01*
X141737009Y-102752222D01*
X141893534Y-102668557D01*
X142063373Y-102617037D01*
X142129558Y-102610518D01*
X142195740Y-102604000D01*
X142284260Y-102604000D01*
X142350442Y-102610518D01*
X142350442Y-102610518D01*
G37*
G36*
X116950442Y-100070518D02*
G01*
X117016627Y-100077037D01*
X117186466Y-100128557D01*
X117342991Y-100212222D01*
X117378729Y-100241552D01*
X117480186Y-100324814D01*
X117563448Y-100426271D01*
X117592778Y-100462009D01*
X117676443Y-100618534D01*
X117727963Y-100788373D01*
X117745359Y-100965000D01*
X117727963Y-101141627D01*
X117676443Y-101311466D01*
X117592778Y-101467991D01*
X117563448Y-101503729D01*
X117480186Y-101605186D01*
X117378729Y-101688448D01*
X117342991Y-101717778D01*
X117186466Y-101801443D01*
X117016627Y-101852963D01*
X116950443Y-101859481D01*
X116884260Y-101866000D01*
X116795740Y-101866000D01*
X116729558Y-101859482D01*
X116663373Y-101852963D01*
X116493534Y-101801443D01*
X116337009Y-101717778D01*
X116301271Y-101688448D01*
X116199814Y-101605186D01*
X116116552Y-101503729D01*
X116087222Y-101467991D01*
X116003557Y-101311466D01*
X115952037Y-101141627D01*
X115934641Y-100965000D01*
X115952037Y-100788373D01*
X116003557Y-100618534D01*
X116087222Y-100462009D01*
X116116552Y-100426271D01*
X116199814Y-100324814D01*
X116301271Y-100241552D01*
X116337009Y-100212222D01*
X116493534Y-100128557D01*
X116663373Y-100077037D01*
X116729557Y-100070519D01*
X116795740Y-100064000D01*
X116884260Y-100064000D01*
X116950442Y-100070518D01*
X116950442Y-100070518D01*
G37*
G36*
X142350442Y-100070518D02*
G01*
X142416627Y-100077037D01*
X142586466Y-100128557D01*
X142742991Y-100212222D01*
X142778729Y-100241552D01*
X142880186Y-100324814D01*
X142963448Y-100426271D01*
X142992778Y-100462009D01*
X143076443Y-100618534D01*
X143127963Y-100788373D01*
X143145359Y-100965000D01*
X143127963Y-101141627D01*
X143076443Y-101311466D01*
X142992778Y-101467991D01*
X142963448Y-101503729D01*
X142880186Y-101605186D01*
X142778729Y-101688448D01*
X142742991Y-101717778D01*
X142586466Y-101801443D01*
X142416627Y-101852963D01*
X142350443Y-101859481D01*
X142284260Y-101866000D01*
X142195740Y-101866000D01*
X142129558Y-101859482D01*
X142063373Y-101852963D01*
X141893534Y-101801443D01*
X141737009Y-101717778D01*
X141701271Y-101688448D01*
X141599814Y-101605186D01*
X141516552Y-101503729D01*
X141487222Y-101467991D01*
X141403557Y-101311466D01*
X141352037Y-101141627D01*
X141334641Y-100965000D01*
X141352037Y-100788373D01*
X141403557Y-100618534D01*
X141487222Y-100462009D01*
X141516552Y-100426271D01*
X141599814Y-100324814D01*
X141701271Y-100241552D01*
X141737009Y-100212222D01*
X141893534Y-100128557D01*
X142063373Y-100077037D01*
X142129557Y-100070519D01*
X142195740Y-100064000D01*
X142284260Y-100064000D01*
X142350442Y-100070518D01*
X142350442Y-100070518D01*
G37*
G36*
X116950442Y-97530518D02*
G01*
X117016627Y-97537037D01*
X117186466Y-97588557D01*
X117342991Y-97672222D01*
X117378729Y-97701552D01*
X117480186Y-97784814D01*
X117563448Y-97886271D01*
X117592778Y-97922009D01*
X117676443Y-98078534D01*
X117727963Y-98248373D01*
X117745359Y-98425000D01*
X117727963Y-98601627D01*
X117676443Y-98771466D01*
X117592778Y-98927991D01*
X117563448Y-98963729D01*
X117480186Y-99065186D01*
X117378729Y-99148448D01*
X117342991Y-99177778D01*
X117186466Y-99261443D01*
X117016627Y-99312963D01*
X116950442Y-99319482D01*
X116884260Y-99326000D01*
X116795740Y-99326000D01*
X116729557Y-99319481D01*
X116663373Y-99312963D01*
X116493534Y-99261443D01*
X116337009Y-99177778D01*
X116301271Y-99148448D01*
X116199814Y-99065186D01*
X116116552Y-98963729D01*
X116087222Y-98927991D01*
X116003557Y-98771466D01*
X115952037Y-98601627D01*
X115934641Y-98425000D01*
X115952037Y-98248373D01*
X116003557Y-98078534D01*
X116087222Y-97922009D01*
X116116552Y-97886271D01*
X116199814Y-97784814D01*
X116301271Y-97701552D01*
X116337009Y-97672222D01*
X116493534Y-97588557D01*
X116663373Y-97537037D01*
X116729558Y-97530518D01*
X116795740Y-97524000D01*
X116884260Y-97524000D01*
X116950442Y-97530518D01*
X116950442Y-97530518D01*
G37*
G36*
X142350442Y-97530518D02*
G01*
X142416627Y-97537037D01*
X142586466Y-97588557D01*
X142742991Y-97672222D01*
X142778729Y-97701552D01*
X142880186Y-97784814D01*
X142963448Y-97886271D01*
X142992778Y-97922009D01*
X143076443Y-98078534D01*
X143127963Y-98248373D01*
X143145359Y-98425000D01*
X143127963Y-98601627D01*
X143076443Y-98771466D01*
X142992778Y-98927991D01*
X142963448Y-98963729D01*
X142880186Y-99065186D01*
X142778729Y-99148448D01*
X142742991Y-99177778D01*
X142586466Y-99261443D01*
X142416627Y-99312963D01*
X142350442Y-99319482D01*
X142284260Y-99326000D01*
X142195740Y-99326000D01*
X142129557Y-99319481D01*
X142063373Y-99312963D01*
X141893534Y-99261443D01*
X141737009Y-99177778D01*
X141701271Y-99148448D01*
X141599814Y-99065186D01*
X141516552Y-98963729D01*
X141487222Y-98927991D01*
X141403557Y-98771466D01*
X141352037Y-98601627D01*
X141334641Y-98425000D01*
X141352037Y-98248373D01*
X141403557Y-98078534D01*
X141487222Y-97922009D01*
X141516552Y-97886271D01*
X141599814Y-97784814D01*
X141701271Y-97701552D01*
X141737009Y-97672222D01*
X141893534Y-97588557D01*
X142063373Y-97537037D01*
X142129558Y-97530518D01*
X142195740Y-97524000D01*
X142284260Y-97524000D01*
X142350442Y-97530518D01*
X142350442Y-97530518D01*
G37*
G36*
X142350443Y-94990519D02*
G01*
X142416627Y-94997037D01*
X142586466Y-95048557D01*
X142742991Y-95132222D01*
X142778729Y-95161552D01*
X142880186Y-95244814D01*
X142963448Y-95346271D01*
X142992778Y-95382009D01*
X143076443Y-95538534D01*
X143127963Y-95708373D01*
X143145359Y-95885000D01*
X143127963Y-96061627D01*
X143076443Y-96231466D01*
X142992778Y-96387991D01*
X142963448Y-96423729D01*
X142880186Y-96525186D01*
X142778729Y-96608448D01*
X142742991Y-96637778D01*
X142586466Y-96721443D01*
X142416627Y-96772963D01*
X142350442Y-96779482D01*
X142284260Y-96786000D01*
X142195740Y-96786000D01*
X142129558Y-96779482D01*
X142063373Y-96772963D01*
X141893534Y-96721443D01*
X141737009Y-96637778D01*
X141701271Y-96608448D01*
X141599814Y-96525186D01*
X141516552Y-96423729D01*
X141487222Y-96387991D01*
X141403557Y-96231466D01*
X141352037Y-96061627D01*
X141334641Y-95885000D01*
X141352037Y-95708373D01*
X141403557Y-95538534D01*
X141487222Y-95382009D01*
X141516552Y-95346271D01*
X141599814Y-95244814D01*
X141701271Y-95161552D01*
X141737009Y-95132222D01*
X141893534Y-95048557D01*
X142063373Y-94997037D01*
X142129557Y-94990519D01*
X142195740Y-94984000D01*
X142284260Y-94984000D01*
X142350443Y-94990519D01*
X142350443Y-94990519D01*
G37*
G36*
X116950443Y-94990519D02*
G01*
X117016627Y-94997037D01*
X117186466Y-95048557D01*
X117342991Y-95132222D01*
X117378729Y-95161552D01*
X117480186Y-95244814D01*
X117563448Y-95346271D01*
X117592778Y-95382009D01*
X117676443Y-95538534D01*
X117727963Y-95708373D01*
X117745359Y-95885000D01*
X117727963Y-96061627D01*
X117676443Y-96231466D01*
X117592778Y-96387991D01*
X117563448Y-96423729D01*
X117480186Y-96525186D01*
X117378729Y-96608448D01*
X117342991Y-96637778D01*
X117186466Y-96721443D01*
X117016627Y-96772963D01*
X116950442Y-96779482D01*
X116884260Y-96786000D01*
X116795740Y-96786000D01*
X116729558Y-96779482D01*
X116663373Y-96772963D01*
X116493534Y-96721443D01*
X116337009Y-96637778D01*
X116301271Y-96608448D01*
X116199814Y-96525186D01*
X116116552Y-96423729D01*
X116087222Y-96387991D01*
X116003557Y-96231466D01*
X115952037Y-96061627D01*
X115934641Y-95885000D01*
X115952037Y-95708373D01*
X116003557Y-95538534D01*
X116087222Y-95382009D01*
X116116552Y-95346271D01*
X116199814Y-95244814D01*
X116301271Y-95161552D01*
X116337009Y-95132222D01*
X116493534Y-95048557D01*
X116663373Y-94997037D01*
X116729557Y-94990519D01*
X116795740Y-94984000D01*
X116884260Y-94984000D01*
X116950443Y-94990519D01*
X116950443Y-94990519D01*
G37*
G36*
X116950443Y-92450519D02*
G01*
X117016627Y-92457037D01*
X117186466Y-92508557D01*
X117342991Y-92592222D01*
X117378729Y-92621552D01*
X117480186Y-92704814D01*
X117563448Y-92806271D01*
X117592778Y-92842009D01*
X117676443Y-92998534D01*
X117727963Y-93168373D01*
X117745359Y-93345000D01*
X117727963Y-93521627D01*
X117676443Y-93691466D01*
X117592778Y-93847991D01*
X117563448Y-93883729D01*
X117480186Y-93985186D01*
X117378729Y-94068448D01*
X117342991Y-94097778D01*
X117186466Y-94181443D01*
X117016627Y-94232963D01*
X116950443Y-94239481D01*
X116884260Y-94246000D01*
X116795740Y-94246000D01*
X116729557Y-94239481D01*
X116663373Y-94232963D01*
X116493534Y-94181443D01*
X116337009Y-94097778D01*
X116301271Y-94068448D01*
X116199814Y-93985186D01*
X116116552Y-93883729D01*
X116087222Y-93847991D01*
X116003557Y-93691466D01*
X115952037Y-93521627D01*
X115934641Y-93345000D01*
X115952037Y-93168373D01*
X116003557Y-92998534D01*
X116087222Y-92842009D01*
X116116552Y-92806271D01*
X116199814Y-92704814D01*
X116301271Y-92621552D01*
X116337009Y-92592222D01*
X116493534Y-92508557D01*
X116663373Y-92457037D01*
X116729557Y-92450519D01*
X116795740Y-92444000D01*
X116884260Y-92444000D01*
X116950443Y-92450519D01*
X116950443Y-92450519D01*
G37*
G36*
X142350443Y-92450519D02*
G01*
X142416627Y-92457037D01*
X142586466Y-92508557D01*
X142742991Y-92592222D01*
X142778729Y-92621552D01*
X142880186Y-92704814D01*
X142963448Y-92806271D01*
X142992778Y-92842009D01*
X143076443Y-92998534D01*
X143127963Y-93168373D01*
X143145359Y-93345000D01*
X143127963Y-93521627D01*
X143076443Y-93691466D01*
X142992778Y-93847991D01*
X142963448Y-93883729D01*
X142880186Y-93985186D01*
X142778729Y-94068448D01*
X142742991Y-94097778D01*
X142586466Y-94181443D01*
X142416627Y-94232963D01*
X142350443Y-94239481D01*
X142284260Y-94246000D01*
X142195740Y-94246000D01*
X142129557Y-94239481D01*
X142063373Y-94232963D01*
X141893534Y-94181443D01*
X141737009Y-94097778D01*
X141701271Y-94068448D01*
X141599814Y-93985186D01*
X141516552Y-93883729D01*
X141487222Y-93847991D01*
X141403557Y-93691466D01*
X141352037Y-93521627D01*
X141334641Y-93345000D01*
X141352037Y-93168373D01*
X141403557Y-92998534D01*
X141487222Y-92842009D01*
X141516552Y-92806271D01*
X141599814Y-92704814D01*
X141701271Y-92621552D01*
X141737009Y-92592222D01*
X141893534Y-92508557D01*
X142063373Y-92457037D01*
X142129557Y-92450519D01*
X142195740Y-92444000D01*
X142284260Y-92444000D01*
X142350443Y-92450519D01*
X142350443Y-92450519D01*
G37*
G36*
X116950442Y-89910518D02*
G01*
X117016627Y-89917037D01*
X117186466Y-89968557D01*
X117342991Y-90052222D01*
X117378729Y-90081552D01*
X117480186Y-90164814D01*
X117563448Y-90266271D01*
X117592778Y-90302009D01*
X117676443Y-90458534D01*
X117727963Y-90628373D01*
X117745359Y-90805000D01*
X117727963Y-90981627D01*
X117676443Y-91151466D01*
X117592778Y-91307991D01*
X117563448Y-91343729D01*
X117480186Y-91445186D01*
X117378729Y-91528448D01*
X117342991Y-91557778D01*
X117186466Y-91641443D01*
X117016627Y-91692963D01*
X116950442Y-91699482D01*
X116884260Y-91706000D01*
X116795740Y-91706000D01*
X116729558Y-91699482D01*
X116663373Y-91692963D01*
X116493534Y-91641443D01*
X116337009Y-91557778D01*
X116301271Y-91528448D01*
X116199814Y-91445186D01*
X116116552Y-91343729D01*
X116087222Y-91307991D01*
X116003557Y-91151466D01*
X115952037Y-90981627D01*
X115934641Y-90805000D01*
X115952037Y-90628373D01*
X116003557Y-90458534D01*
X116087222Y-90302009D01*
X116116552Y-90266271D01*
X116199814Y-90164814D01*
X116301271Y-90081552D01*
X116337009Y-90052222D01*
X116493534Y-89968557D01*
X116663373Y-89917037D01*
X116729558Y-89910518D01*
X116795740Y-89904000D01*
X116884260Y-89904000D01*
X116950442Y-89910518D01*
X116950442Y-89910518D01*
G37*
G36*
X142350442Y-89910518D02*
G01*
X142416627Y-89917037D01*
X142586466Y-89968557D01*
X142742991Y-90052222D01*
X142778729Y-90081552D01*
X142880186Y-90164814D01*
X142963448Y-90266271D01*
X142992778Y-90302009D01*
X143076443Y-90458534D01*
X143127963Y-90628373D01*
X143145359Y-90805000D01*
X143127963Y-90981627D01*
X143076443Y-91151466D01*
X142992778Y-91307991D01*
X142963448Y-91343729D01*
X142880186Y-91445186D01*
X142778729Y-91528448D01*
X142742991Y-91557778D01*
X142586466Y-91641443D01*
X142416627Y-91692963D01*
X142350442Y-91699482D01*
X142284260Y-91706000D01*
X142195740Y-91706000D01*
X142129558Y-91699482D01*
X142063373Y-91692963D01*
X141893534Y-91641443D01*
X141737009Y-91557778D01*
X141701271Y-91528448D01*
X141599814Y-91445186D01*
X141516552Y-91343729D01*
X141487222Y-91307991D01*
X141403557Y-91151466D01*
X141352037Y-90981627D01*
X141334641Y-90805000D01*
X141352037Y-90628373D01*
X141403557Y-90458534D01*
X141487222Y-90302009D01*
X141516552Y-90266271D01*
X141599814Y-90164814D01*
X141701271Y-90081552D01*
X141737009Y-90052222D01*
X141893534Y-89968557D01*
X142063373Y-89917037D01*
X142129558Y-89910518D01*
X142195740Y-89904000D01*
X142284260Y-89904000D01*
X142350442Y-89910518D01*
X142350442Y-89910518D01*
G37*
G36*
X116950443Y-87370519D02*
G01*
X117016627Y-87377037D01*
X117186466Y-87428557D01*
X117342991Y-87512222D01*
X117378729Y-87541552D01*
X117480186Y-87624814D01*
X117563448Y-87726271D01*
X117592778Y-87762009D01*
X117676443Y-87918534D01*
X117727963Y-88088373D01*
X117745359Y-88265000D01*
X117727963Y-88441627D01*
X117676443Y-88611466D01*
X117592778Y-88767991D01*
X117563448Y-88803729D01*
X117480186Y-88905186D01*
X117378729Y-88988448D01*
X117342991Y-89017778D01*
X117186466Y-89101443D01*
X117016627Y-89152963D01*
X116950443Y-89159481D01*
X116884260Y-89166000D01*
X116795740Y-89166000D01*
X116729557Y-89159481D01*
X116663373Y-89152963D01*
X116493534Y-89101443D01*
X116337009Y-89017778D01*
X116301271Y-88988448D01*
X116199814Y-88905186D01*
X116116552Y-88803729D01*
X116087222Y-88767991D01*
X116003557Y-88611466D01*
X115952037Y-88441627D01*
X115934641Y-88265000D01*
X115952037Y-88088373D01*
X116003557Y-87918534D01*
X116087222Y-87762009D01*
X116116552Y-87726271D01*
X116199814Y-87624814D01*
X116301271Y-87541552D01*
X116337009Y-87512222D01*
X116493534Y-87428557D01*
X116663373Y-87377037D01*
X116729557Y-87370519D01*
X116795740Y-87364000D01*
X116884260Y-87364000D01*
X116950443Y-87370519D01*
X116950443Y-87370519D01*
G37*
G36*
X142350443Y-87370519D02*
G01*
X142416627Y-87377037D01*
X142586466Y-87428557D01*
X142742991Y-87512222D01*
X142778729Y-87541552D01*
X142880186Y-87624814D01*
X142963448Y-87726271D01*
X142992778Y-87762009D01*
X143076443Y-87918534D01*
X143127963Y-88088373D01*
X143145359Y-88265000D01*
X143127963Y-88441627D01*
X143076443Y-88611466D01*
X142992778Y-88767991D01*
X142963448Y-88803729D01*
X142880186Y-88905186D01*
X142778729Y-88988448D01*
X142742991Y-89017778D01*
X142586466Y-89101443D01*
X142416627Y-89152963D01*
X142350443Y-89159481D01*
X142284260Y-89166000D01*
X142195740Y-89166000D01*
X142129557Y-89159481D01*
X142063373Y-89152963D01*
X141893534Y-89101443D01*
X141737009Y-89017778D01*
X141701271Y-88988448D01*
X141599814Y-88905186D01*
X141516552Y-88803729D01*
X141487222Y-88767991D01*
X141403557Y-88611466D01*
X141352037Y-88441627D01*
X141334641Y-88265000D01*
X141352037Y-88088373D01*
X141403557Y-87918534D01*
X141487222Y-87762009D01*
X141516552Y-87726271D01*
X141599814Y-87624814D01*
X141701271Y-87541552D01*
X141737009Y-87512222D01*
X141893534Y-87428557D01*
X142063373Y-87377037D01*
X142129557Y-87370519D01*
X142195740Y-87364000D01*
X142284260Y-87364000D01*
X142350443Y-87370519D01*
X142350443Y-87370519D01*
G37*
G36*
X142350443Y-84830519D02*
G01*
X142416627Y-84837037D01*
X142586466Y-84888557D01*
X142742991Y-84972222D01*
X142778729Y-85001552D01*
X142880186Y-85084814D01*
X142963448Y-85186271D01*
X142992778Y-85222009D01*
X143076443Y-85378534D01*
X143127963Y-85548373D01*
X143145359Y-85725000D01*
X143127963Y-85901627D01*
X143076443Y-86071466D01*
X142992778Y-86227991D01*
X142963448Y-86263729D01*
X142880186Y-86365186D01*
X142778729Y-86448448D01*
X142742991Y-86477778D01*
X142586466Y-86561443D01*
X142416627Y-86612963D01*
X142350442Y-86619482D01*
X142284260Y-86626000D01*
X142195740Y-86626000D01*
X142129558Y-86619482D01*
X142063373Y-86612963D01*
X141893534Y-86561443D01*
X141737009Y-86477778D01*
X141701271Y-86448448D01*
X141599814Y-86365186D01*
X141516552Y-86263729D01*
X141487222Y-86227991D01*
X141403557Y-86071466D01*
X141352037Y-85901627D01*
X141334641Y-85725000D01*
X141352037Y-85548373D01*
X141403557Y-85378534D01*
X141487222Y-85222009D01*
X141516552Y-85186271D01*
X141599814Y-85084814D01*
X141701271Y-85001552D01*
X141737009Y-84972222D01*
X141893534Y-84888557D01*
X142063373Y-84837037D01*
X142129557Y-84830519D01*
X142195740Y-84824000D01*
X142284260Y-84824000D01*
X142350443Y-84830519D01*
X142350443Y-84830519D01*
G37*
G36*
X116950443Y-84830519D02*
G01*
X117016627Y-84837037D01*
X117186466Y-84888557D01*
X117342991Y-84972222D01*
X117378729Y-85001552D01*
X117480186Y-85084814D01*
X117563448Y-85186271D01*
X117592778Y-85222009D01*
X117676443Y-85378534D01*
X117727963Y-85548373D01*
X117745359Y-85725000D01*
X117727963Y-85901627D01*
X117676443Y-86071466D01*
X117592778Y-86227991D01*
X117563448Y-86263729D01*
X117480186Y-86365186D01*
X117378729Y-86448448D01*
X117342991Y-86477778D01*
X117186466Y-86561443D01*
X117016627Y-86612963D01*
X116950442Y-86619482D01*
X116884260Y-86626000D01*
X116795740Y-86626000D01*
X116729558Y-86619482D01*
X116663373Y-86612963D01*
X116493534Y-86561443D01*
X116337009Y-86477778D01*
X116301271Y-86448448D01*
X116199814Y-86365186D01*
X116116552Y-86263729D01*
X116087222Y-86227991D01*
X116003557Y-86071466D01*
X115952037Y-85901627D01*
X115934641Y-85725000D01*
X115952037Y-85548373D01*
X116003557Y-85378534D01*
X116087222Y-85222009D01*
X116116552Y-85186271D01*
X116199814Y-85084814D01*
X116301271Y-85001552D01*
X116337009Y-84972222D01*
X116493534Y-84888557D01*
X116663373Y-84837037D01*
X116729557Y-84830519D01*
X116795740Y-84824000D01*
X116884260Y-84824000D01*
X116950443Y-84830519D01*
X116950443Y-84830519D01*
G37*
G36*
X142350443Y-82290519D02*
G01*
X142416627Y-82297037D01*
X142586466Y-82348557D01*
X142742991Y-82432222D01*
X142778729Y-82461552D01*
X142880186Y-82544814D01*
X142963448Y-82646271D01*
X142992778Y-82682009D01*
X143076443Y-82838534D01*
X143127963Y-83008373D01*
X143145359Y-83185000D01*
X143127963Y-83361627D01*
X143076443Y-83531466D01*
X142992778Y-83687991D01*
X142963448Y-83723729D01*
X142880186Y-83825186D01*
X142778729Y-83908448D01*
X142742991Y-83937778D01*
X142586466Y-84021443D01*
X142416627Y-84072963D01*
X142350443Y-84079481D01*
X142284260Y-84086000D01*
X142195740Y-84086000D01*
X142129557Y-84079481D01*
X142063373Y-84072963D01*
X141893534Y-84021443D01*
X141737009Y-83937778D01*
X141701271Y-83908448D01*
X141599814Y-83825186D01*
X141516552Y-83723729D01*
X141487222Y-83687991D01*
X141403557Y-83531466D01*
X141352037Y-83361627D01*
X141334641Y-83185000D01*
X141352037Y-83008373D01*
X141403557Y-82838534D01*
X141487222Y-82682009D01*
X141516552Y-82646271D01*
X141599814Y-82544814D01*
X141701271Y-82461552D01*
X141737009Y-82432222D01*
X141893534Y-82348557D01*
X142063373Y-82297037D01*
X142129557Y-82290519D01*
X142195740Y-82284000D01*
X142284260Y-82284000D01*
X142350443Y-82290519D01*
X142350443Y-82290519D01*
G37*
G36*
X116950443Y-82290519D02*
G01*
X117016627Y-82297037D01*
X117186466Y-82348557D01*
X117342991Y-82432222D01*
X117378729Y-82461552D01*
X117480186Y-82544814D01*
X117563448Y-82646271D01*
X117592778Y-82682009D01*
X117676443Y-82838534D01*
X117727963Y-83008373D01*
X117745359Y-83185000D01*
X117727963Y-83361627D01*
X117676443Y-83531466D01*
X117592778Y-83687991D01*
X117563448Y-83723729D01*
X117480186Y-83825186D01*
X117378729Y-83908448D01*
X117342991Y-83937778D01*
X117186466Y-84021443D01*
X117016627Y-84072963D01*
X116950443Y-84079481D01*
X116884260Y-84086000D01*
X116795740Y-84086000D01*
X116729557Y-84079481D01*
X116663373Y-84072963D01*
X116493534Y-84021443D01*
X116337009Y-83937778D01*
X116301271Y-83908448D01*
X116199814Y-83825186D01*
X116116552Y-83723729D01*
X116087222Y-83687991D01*
X116003557Y-83531466D01*
X115952037Y-83361627D01*
X115934641Y-83185000D01*
X115952037Y-83008373D01*
X116003557Y-82838534D01*
X116087222Y-82682009D01*
X116116552Y-82646271D01*
X116199814Y-82544814D01*
X116301271Y-82461552D01*
X116337009Y-82432222D01*
X116493534Y-82348557D01*
X116663373Y-82297037D01*
X116729557Y-82290519D01*
X116795740Y-82284000D01*
X116884260Y-82284000D01*
X116950443Y-82290519D01*
X116950443Y-82290519D01*
G37*
G36*
X142350442Y-79750518D02*
G01*
X142416627Y-79757037D01*
X142586466Y-79808557D01*
X142742991Y-79892222D01*
X142778729Y-79921552D01*
X142880186Y-80004814D01*
X142963448Y-80106271D01*
X142992778Y-80142009D01*
X143076443Y-80298534D01*
X143127963Y-80468373D01*
X143145359Y-80645000D01*
X143127963Y-80821627D01*
X143076443Y-80991466D01*
X142992778Y-81147991D01*
X142963448Y-81183729D01*
X142880186Y-81285186D01*
X142778729Y-81368448D01*
X142742991Y-81397778D01*
X142586466Y-81481443D01*
X142416627Y-81532963D01*
X142350442Y-81539482D01*
X142284260Y-81546000D01*
X142195740Y-81546000D01*
X142129558Y-81539482D01*
X142063373Y-81532963D01*
X141893534Y-81481443D01*
X141737009Y-81397778D01*
X141701271Y-81368448D01*
X141599814Y-81285186D01*
X141516552Y-81183729D01*
X141487222Y-81147991D01*
X141403557Y-80991466D01*
X141352037Y-80821627D01*
X141334641Y-80645000D01*
X141352037Y-80468373D01*
X141403557Y-80298534D01*
X141487222Y-80142009D01*
X141516552Y-80106271D01*
X141599814Y-80004814D01*
X141701271Y-79921552D01*
X141737009Y-79892222D01*
X141893534Y-79808557D01*
X142063373Y-79757037D01*
X142129558Y-79750518D01*
X142195740Y-79744000D01*
X142284260Y-79744000D01*
X142350442Y-79750518D01*
X142350442Y-79750518D01*
G37*
G36*
X116950442Y-79750518D02*
G01*
X117016627Y-79757037D01*
X117186466Y-79808557D01*
X117342991Y-79892222D01*
X117378729Y-79921552D01*
X117480186Y-80004814D01*
X117563448Y-80106271D01*
X117592778Y-80142009D01*
X117676443Y-80298534D01*
X117727963Y-80468373D01*
X117745359Y-80645000D01*
X117727963Y-80821627D01*
X117676443Y-80991466D01*
X117592778Y-81147991D01*
X117563448Y-81183729D01*
X117480186Y-81285186D01*
X117378729Y-81368448D01*
X117342991Y-81397778D01*
X117186466Y-81481443D01*
X117016627Y-81532963D01*
X116950442Y-81539482D01*
X116884260Y-81546000D01*
X116795740Y-81546000D01*
X116729558Y-81539482D01*
X116663373Y-81532963D01*
X116493534Y-81481443D01*
X116337009Y-81397778D01*
X116301271Y-81368448D01*
X116199814Y-81285186D01*
X116116552Y-81183729D01*
X116087222Y-81147991D01*
X116003557Y-80991466D01*
X115952037Y-80821627D01*
X115934641Y-80645000D01*
X115952037Y-80468373D01*
X116003557Y-80298534D01*
X116087222Y-80142009D01*
X116116552Y-80106271D01*
X116199814Y-80004814D01*
X116301271Y-79921552D01*
X116337009Y-79892222D01*
X116493534Y-79808557D01*
X116663373Y-79757037D01*
X116729558Y-79750518D01*
X116795740Y-79744000D01*
X116884260Y-79744000D01*
X116950442Y-79750518D01*
X116950442Y-79750518D01*
G37*
G36*
X142350443Y-77210519D02*
G01*
X142416627Y-77217037D01*
X142586466Y-77268557D01*
X142742991Y-77352222D01*
X142778729Y-77381552D01*
X142880186Y-77464814D01*
X142963448Y-77566271D01*
X142992778Y-77602009D01*
X143076443Y-77758534D01*
X143127963Y-77928373D01*
X143145359Y-78105000D01*
X143127963Y-78281627D01*
X143076443Y-78451466D01*
X142992778Y-78607991D01*
X142963448Y-78643729D01*
X142880186Y-78745186D01*
X142778729Y-78828448D01*
X142742991Y-78857778D01*
X142586466Y-78941443D01*
X142416627Y-78992963D01*
X142350443Y-78999481D01*
X142284260Y-79006000D01*
X142195740Y-79006000D01*
X142129557Y-78999481D01*
X142063373Y-78992963D01*
X141893534Y-78941443D01*
X141737009Y-78857778D01*
X141701271Y-78828448D01*
X141599814Y-78745186D01*
X141516552Y-78643729D01*
X141487222Y-78607991D01*
X141403557Y-78451466D01*
X141352037Y-78281627D01*
X141334641Y-78105000D01*
X141352037Y-77928373D01*
X141403557Y-77758534D01*
X141487222Y-77602009D01*
X141516552Y-77566271D01*
X141599814Y-77464814D01*
X141701271Y-77381552D01*
X141737009Y-77352222D01*
X141893534Y-77268557D01*
X142063373Y-77217037D01*
X142129557Y-77210519D01*
X142195740Y-77204000D01*
X142284260Y-77204000D01*
X142350443Y-77210519D01*
X142350443Y-77210519D01*
G37*
G36*
X116950443Y-77210519D02*
G01*
X117016627Y-77217037D01*
X117186466Y-77268557D01*
X117342991Y-77352222D01*
X117378729Y-77381552D01*
X117480186Y-77464814D01*
X117563448Y-77566271D01*
X117592778Y-77602009D01*
X117676443Y-77758534D01*
X117727963Y-77928373D01*
X117745359Y-78105000D01*
X117727963Y-78281627D01*
X117676443Y-78451466D01*
X117592778Y-78607991D01*
X117563448Y-78643729D01*
X117480186Y-78745186D01*
X117378729Y-78828448D01*
X117342991Y-78857778D01*
X117186466Y-78941443D01*
X117016627Y-78992963D01*
X116950443Y-78999481D01*
X116884260Y-79006000D01*
X116795740Y-79006000D01*
X116729557Y-78999481D01*
X116663373Y-78992963D01*
X116493534Y-78941443D01*
X116337009Y-78857778D01*
X116301271Y-78828448D01*
X116199814Y-78745186D01*
X116116552Y-78643729D01*
X116087222Y-78607991D01*
X116003557Y-78451466D01*
X115952037Y-78281627D01*
X115934641Y-78105000D01*
X115952037Y-77928373D01*
X116003557Y-77758534D01*
X116087222Y-77602009D01*
X116116552Y-77566271D01*
X116199814Y-77464814D01*
X116301271Y-77381552D01*
X116337009Y-77352222D01*
X116493534Y-77268557D01*
X116663373Y-77217037D01*
X116729557Y-77210519D01*
X116795740Y-77204000D01*
X116884260Y-77204000D01*
X116950443Y-77210519D01*
X116950443Y-77210519D01*
G37*
G36*
X142350442Y-74670518D02*
G01*
X142416627Y-74677037D01*
X142586466Y-74728557D01*
X142742991Y-74812222D01*
X142778729Y-74841552D01*
X142880186Y-74924814D01*
X142963448Y-75026271D01*
X142992778Y-75062009D01*
X143076443Y-75218534D01*
X143127963Y-75388373D01*
X143145359Y-75565000D01*
X143127963Y-75741627D01*
X143076443Y-75911466D01*
X142992778Y-76067991D01*
X142963448Y-76103729D01*
X142880186Y-76205186D01*
X142778729Y-76288448D01*
X142742991Y-76317778D01*
X142586466Y-76401443D01*
X142416627Y-76452963D01*
X142350443Y-76459481D01*
X142284260Y-76466000D01*
X142195740Y-76466000D01*
X142129557Y-76459481D01*
X142063373Y-76452963D01*
X141893534Y-76401443D01*
X141737009Y-76317778D01*
X141701271Y-76288448D01*
X141599814Y-76205186D01*
X141516552Y-76103729D01*
X141487222Y-76067991D01*
X141403557Y-75911466D01*
X141352037Y-75741627D01*
X141334641Y-75565000D01*
X141352037Y-75388373D01*
X141403557Y-75218534D01*
X141487222Y-75062009D01*
X141516552Y-75026271D01*
X141599814Y-74924814D01*
X141701271Y-74841552D01*
X141737009Y-74812222D01*
X141893534Y-74728557D01*
X142063373Y-74677037D01*
X142129558Y-74670518D01*
X142195740Y-74664000D01*
X142284260Y-74664000D01*
X142350442Y-74670518D01*
X142350442Y-74670518D01*
G37*
G36*
X117741000Y-76466000D02*
G01*
X115939000Y-76466000D01*
X115939000Y-74664000D01*
X117741000Y-74664000D01*
X117741000Y-76466000D01*
X117741000Y-76466000D01*
G37*
G36*
X124570442Y-70860518D02*
G01*
X124636627Y-70867037D01*
X124806466Y-70918557D01*
X124962991Y-71002222D01*
X124998729Y-71031552D01*
X125100186Y-71114814D01*
X125183448Y-71216271D01*
X125212778Y-71252009D01*
X125296443Y-71408534D01*
X125347963Y-71578373D01*
X125365359Y-71755000D01*
X125347963Y-71931627D01*
X125296443Y-72101466D01*
X125212778Y-72257991D01*
X125183448Y-72293729D01*
X125100186Y-72395186D01*
X124998729Y-72478448D01*
X124962991Y-72507778D01*
X124806466Y-72591443D01*
X124636627Y-72642963D01*
X124570443Y-72649481D01*
X124504260Y-72656000D01*
X124415740Y-72656000D01*
X124349557Y-72649481D01*
X124283373Y-72642963D01*
X124113534Y-72591443D01*
X123957009Y-72507778D01*
X123921271Y-72478448D01*
X123819814Y-72395186D01*
X123736552Y-72293729D01*
X123707222Y-72257991D01*
X123623557Y-72101466D01*
X123572037Y-71931627D01*
X123554641Y-71755000D01*
X123572037Y-71578373D01*
X123623557Y-71408534D01*
X123707222Y-71252009D01*
X123736552Y-71216271D01*
X123819814Y-71114814D01*
X123921271Y-71031552D01*
X123957009Y-71002222D01*
X124113534Y-70918557D01*
X124283373Y-70867037D01*
X124349558Y-70860518D01*
X124415740Y-70854000D01*
X124504260Y-70854000D01*
X124570442Y-70860518D01*
X124570442Y-70860518D01*
G37*
G36*
X132190442Y-70860518D02*
G01*
X132256627Y-70867037D01*
X132426466Y-70918557D01*
X132582991Y-71002222D01*
X132618729Y-71031552D01*
X132720186Y-71114814D01*
X132803448Y-71216271D01*
X132832778Y-71252009D01*
X132916443Y-71408534D01*
X132967963Y-71578373D01*
X132985359Y-71755000D01*
X132967963Y-71931627D01*
X132916443Y-72101466D01*
X132832778Y-72257991D01*
X132803448Y-72293729D01*
X132720186Y-72395186D01*
X132618729Y-72478448D01*
X132582991Y-72507778D01*
X132426466Y-72591443D01*
X132256627Y-72642963D01*
X132190443Y-72649481D01*
X132124260Y-72656000D01*
X132035740Y-72656000D01*
X131969557Y-72649481D01*
X131903373Y-72642963D01*
X131733534Y-72591443D01*
X131577009Y-72507778D01*
X131541271Y-72478448D01*
X131439814Y-72395186D01*
X131356552Y-72293729D01*
X131327222Y-72257991D01*
X131243557Y-72101466D01*
X131192037Y-71931627D01*
X131174641Y-71755000D01*
X131192037Y-71578373D01*
X131243557Y-71408534D01*
X131327222Y-71252009D01*
X131356552Y-71216271D01*
X131439814Y-71114814D01*
X131541271Y-71031552D01*
X131577009Y-71002222D01*
X131733534Y-70918557D01*
X131903373Y-70867037D01*
X131969558Y-70860518D01*
X132035740Y-70854000D01*
X132124260Y-70854000D01*
X132190442Y-70860518D01*
X132190442Y-70860518D01*
G37*
G36*
X134730442Y-70860518D02*
G01*
X134796627Y-70867037D01*
X134966466Y-70918557D01*
X135122991Y-71002222D01*
X135158729Y-71031552D01*
X135260186Y-71114814D01*
X135343448Y-71216271D01*
X135372778Y-71252009D01*
X135456443Y-71408534D01*
X135507963Y-71578373D01*
X135525359Y-71755000D01*
X135507963Y-71931627D01*
X135456443Y-72101466D01*
X135372778Y-72257991D01*
X135343448Y-72293729D01*
X135260186Y-72395186D01*
X135158729Y-72478448D01*
X135122991Y-72507778D01*
X134966466Y-72591443D01*
X134796627Y-72642963D01*
X134730443Y-72649481D01*
X134664260Y-72656000D01*
X134575740Y-72656000D01*
X134509557Y-72649481D01*
X134443373Y-72642963D01*
X134273534Y-72591443D01*
X134117009Y-72507778D01*
X134081271Y-72478448D01*
X133979814Y-72395186D01*
X133896552Y-72293729D01*
X133867222Y-72257991D01*
X133783557Y-72101466D01*
X133732037Y-71931627D01*
X133714641Y-71755000D01*
X133732037Y-71578373D01*
X133783557Y-71408534D01*
X133867222Y-71252009D01*
X133896552Y-71216271D01*
X133979814Y-71114814D01*
X134081271Y-71031552D01*
X134117009Y-71002222D01*
X134273534Y-70918557D01*
X134443373Y-70867037D01*
X134509558Y-70860518D01*
X134575740Y-70854000D01*
X134664260Y-70854000D01*
X134730442Y-70860518D01*
X134730442Y-70860518D01*
G37*
G36*
X137270442Y-70860518D02*
G01*
X137336627Y-70867037D01*
X137506466Y-70918557D01*
X137662991Y-71002222D01*
X137698729Y-71031552D01*
X137800186Y-71114814D01*
X137883448Y-71216271D01*
X137912778Y-71252009D01*
X137996443Y-71408534D01*
X138047963Y-71578373D01*
X138065359Y-71755000D01*
X138047963Y-71931627D01*
X137996443Y-72101466D01*
X137912778Y-72257991D01*
X137883448Y-72293729D01*
X137800186Y-72395186D01*
X137698729Y-72478448D01*
X137662991Y-72507778D01*
X137506466Y-72591443D01*
X137336627Y-72642963D01*
X137270443Y-72649481D01*
X137204260Y-72656000D01*
X137115740Y-72656000D01*
X137049557Y-72649481D01*
X136983373Y-72642963D01*
X136813534Y-72591443D01*
X136657009Y-72507778D01*
X136621271Y-72478448D01*
X136519814Y-72395186D01*
X136436552Y-72293729D01*
X136407222Y-72257991D01*
X136323557Y-72101466D01*
X136272037Y-71931627D01*
X136254641Y-71755000D01*
X136272037Y-71578373D01*
X136323557Y-71408534D01*
X136407222Y-71252009D01*
X136436552Y-71216271D01*
X136519814Y-71114814D01*
X136621271Y-71031552D01*
X136657009Y-71002222D01*
X136813534Y-70918557D01*
X136983373Y-70867037D01*
X137049558Y-70860518D01*
X137115740Y-70854000D01*
X137204260Y-70854000D01*
X137270442Y-70860518D01*
X137270442Y-70860518D01*
G37*
G36*
X122821000Y-72656000D02*
G01*
X121019000Y-72656000D01*
X121019000Y-70854000D01*
X122821000Y-70854000D01*
X122821000Y-72656000D01*
X122821000Y-72656000D01*
G37*
G36*
X129650442Y-70860518D02*
G01*
X129716627Y-70867037D01*
X129886466Y-70918557D01*
X130042991Y-71002222D01*
X130078729Y-71031552D01*
X130180186Y-71114814D01*
X130263448Y-71216271D01*
X130292778Y-71252009D01*
X130376443Y-71408534D01*
X130427963Y-71578373D01*
X130445359Y-71755000D01*
X130427963Y-71931627D01*
X130376443Y-72101466D01*
X130292778Y-72257991D01*
X130263448Y-72293729D01*
X130180186Y-72395186D01*
X130078729Y-72478448D01*
X130042991Y-72507778D01*
X129886466Y-72591443D01*
X129716627Y-72642963D01*
X129650443Y-72649481D01*
X129584260Y-72656000D01*
X129495740Y-72656000D01*
X129429557Y-72649481D01*
X129363373Y-72642963D01*
X129193534Y-72591443D01*
X129037009Y-72507778D01*
X129001271Y-72478448D01*
X128899814Y-72395186D01*
X128816552Y-72293729D01*
X128787222Y-72257991D01*
X128703557Y-72101466D01*
X128652037Y-71931627D01*
X128634641Y-71755000D01*
X128652037Y-71578373D01*
X128703557Y-71408534D01*
X128787222Y-71252009D01*
X128816552Y-71216271D01*
X128899814Y-71114814D01*
X129001271Y-71031552D01*
X129037009Y-71002222D01*
X129193534Y-70918557D01*
X129363373Y-70867037D01*
X129429558Y-70860518D01*
X129495740Y-70854000D01*
X129584260Y-70854000D01*
X129650442Y-70860518D01*
X129650442Y-70860518D01*
G37*
G36*
X127110442Y-70860518D02*
G01*
X127176627Y-70867037D01*
X127346466Y-70918557D01*
X127502991Y-71002222D01*
X127538729Y-71031552D01*
X127640186Y-71114814D01*
X127723448Y-71216271D01*
X127752778Y-71252009D01*
X127836443Y-71408534D01*
X127887963Y-71578373D01*
X127905359Y-71755000D01*
X127887963Y-71931627D01*
X127836443Y-72101466D01*
X127752778Y-72257991D01*
X127723448Y-72293729D01*
X127640186Y-72395186D01*
X127538729Y-72478448D01*
X127502991Y-72507778D01*
X127346466Y-72591443D01*
X127176627Y-72642963D01*
X127110443Y-72649481D01*
X127044260Y-72656000D01*
X126955740Y-72656000D01*
X126889557Y-72649481D01*
X126823373Y-72642963D01*
X126653534Y-72591443D01*
X126497009Y-72507778D01*
X126461271Y-72478448D01*
X126359814Y-72395186D01*
X126276552Y-72293729D01*
X126247222Y-72257991D01*
X126163557Y-72101466D01*
X126112037Y-71931627D01*
X126094641Y-71755000D01*
X126112037Y-71578373D01*
X126163557Y-71408534D01*
X126247222Y-71252009D01*
X126276552Y-71216271D01*
X126359814Y-71114814D01*
X126461271Y-71031552D01*
X126497009Y-71002222D01*
X126653534Y-70918557D01*
X126823373Y-70867037D01*
X126889558Y-70860518D01*
X126955740Y-70854000D01*
X127044260Y-70854000D01*
X127110442Y-70860518D01*
X127110442Y-70860518D01*
G37*
G36*
X129650442Y-68320518D02*
G01*
X129716627Y-68327037D01*
X129886466Y-68378557D01*
X130042991Y-68462222D01*
X130078729Y-68491552D01*
X130180186Y-68574814D01*
X130263448Y-68676271D01*
X130292778Y-68712009D01*
X130376443Y-68868534D01*
X130427963Y-69038373D01*
X130445359Y-69215000D01*
X130427963Y-69391627D01*
X130376443Y-69561466D01*
X130292778Y-69717991D01*
X130263448Y-69753729D01*
X130180186Y-69855186D01*
X130078729Y-69938448D01*
X130042991Y-69967778D01*
X129886466Y-70051443D01*
X129716627Y-70102963D01*
X129650442Y-70109482D01*
X129584260Y-70116000D01*
X129495740Y-70116000D01*
X129429558Y-70109482D01*
X129363373Y-70102963D01*
X129193534Y-70051443D01*
X129037009Y-69967778D01*
X129001271Y-69938448D01*
X128899814Y-69855186D01*
X128816552Y-69753729D01*
X128787222Y-69717991D01*
X128703557Y-69561466D01*
X128652037Y-69391627D01*
X128634641Y-69215000D01*
X128652037Y-69038373D01*
X128703557Y-68868534D01*
X128787222Y-68712009D01*
X128816552Y-68676271D01*
X128899814Y-68574814D01*
X129001271Y-68491552D01*
X129037009Y-68462222D01*
X129193534Y-68378557D01*
X129363373Y-68327037D01*
X129429558Y-68320518D01*
X129495740Y-68314000D01*
X129584260Y-68314000D01*
X129650442Y-68320518D01*
X129650442Y-68320518D01*
G37*
G36*
X132190442Y-68320518D02*
G01*
X132256627Y-68327037D01*
X132426466Y-68378557D01*
X132582991Y-68462222D01*
X132618729Y-68491552D01*
X132720186Y-68574814D01*
X132803448Y-68676271D01*
X132832778Y-68712009D01*
X132916443Y-68868534D01*
X132967963Y-69038373D01*
X132985359Y-69215000D01*
X132967963Y-69391627D01*
X132916443Y-69561466D01*
X132832778Y-69717991D01*
X132803448Y-69753729D01*
X132720186Y-69855186D01*
X132618729Y-69938448D01*
X132582991Y-69967778D01*
X132426466Y-70051443D01*
X132256627Y-70102963D01*
X132190442Y-70109482D01*
X132124260Y-70116000D01*
X132035740Y-70116000D01*
X131969558Y-70109482D01*
X131903373Y-70102963D01*
X131733534Y-70051443D01*
X131577009Y-69967778D01*
X131541271Y-69938448D01*
X131439814Y-69855186D01*
X131356552Y-69753729D01*
X131327222Y-69717991D01*
X131243557Y-69561466D01*
X131192037Y-69391627D01*
X131174641Y-69215000D01*
X131192037Y-69038373D01*
X131243557Y-68868534D01*
X131327222Y-68712009D01*
X131356552Y-68676271D01*
X131439814Y-68574814D01*
X131541271Y-68491552D01*
X131577009Y-68462222D01*
X131733534Y-68378557D01*
X131903373Y-68327037D01*
X131969558Y-68320518D01*
X132035740Y-68314000D01*
X132124260Y-68314000D01*
X132190442Y-68320518D01*
X132190442Y-68320518D01*
G37*
G36*
X134730442Y-68320518D02*
G01*
X134796627Y-68327037D01*
X134966466Y-68378557D01*
X135122991Y-68462222D01*
X135158729Y-68491552D01*
X135260186Y-68574814D01*
X135343448Y-68676271D01*
X135372778Y-68712009D01*
X135456443Y-68868534D01*
X135507963Y-69038373D01*
X135525359Y-69215000D01*
X135507963Y-69391627D01*
X135456443Y-69561466D01*
X135372778Y-69717991D01*
X135343448Y-69753729D01*
X135260186Y-69855186D01*
X135158729Y-69938448D01*
X135122991Y-69967778D01*
X134966466Y-70051443D01*
X134796627Y-70102963D01*
X134730442Y-70109482D01*
X134664260Y-70116000D01*
X134575740Y-70116000D01*
X134509558Y-70109482D01*
X134443373Y-70102963D01*
X134273534Y-70051443D01*
X134117009Y-69967778D01*
X134081271Y-69938448D01*
X133979814Y-69855186D01*
X133896552Y-69753729D01*
X133867222Y-69717991D01*
X133783557Y-69561466D01*
X133732037Y-69391627D01*
X133714641Y-69215000D01*
X133732037Y-69038373D01*
X133783557Y-68868534D01*
X133867222Y-68712009D01*
X133896552Y-68676271D01*
X133979814Y-68574814D01*
X134081271Y-68491552D01*
X134117009Y-68462222D01*
X134273534Y-68378557D01*
X134443373Y-68327037D01*
X134509558Y-68320518D01*
X134575740Y-68314000D01*
X134664260Y-68314000D01*
X134730442Y-68320518D01*
X134730442Y-68320518D01*
G37*
G36*
X127110442Y-68320518D02*
G01*
X127176627Y-68327037D01*
X127346466Y-68378557D01*
X127502991Y-68462222D01*
X127538729Y-68491552D01*
X127640186Y-68574814D01*
X127723448Y-68676271D01*
X127752778Y-68712009D01*
X127836443Y-68868534D01*
X127887963Y-69038373D01*
X127905359Y-69215000D01*
X127887963Y-69391627D01*
X127836443Y-69561466D01*
X127752778Y-69717991D01*
X127723448Y-69753729D01*
X127640186Y-69855186D01*
X127538729Y-69938448D01*
X127502991Y-69967778D01*
X127346466Y-70051443D01*
X127176627Y-70102963D01*
X127110442Y-70109482D01*
X127044260Y-70116000D01*
X126955740Y-70116000D01*
X126889558Y-70109482D01*
X126823373Y-70102963D01*
X126653534Y-70051443D01*
X126497009Y-69967778D01*
X126461271Y-69938448D01*
X126359814Y-69855186D01*
X126276552Y-69753729D01*
X126247222Y-69717991D01*
X126163557Y-69561466D01*
X126112037Y-69391627D01*
X126094641Y-69215000D01*
X126112037Y-69038373D01*
X126163557Y-68868534D01*
X126247222Y-68712009D01*
X126276552Y-68676271D01*
X126359814Y-68574814D01*
X126461271Y-68491552D01*
X126497009Y-68462222D01*
X126653534Y-68378557D01*
X126823373Y-68327037D01*
X126889558Y-68320518D01*
X126955740Y-68314000D01*
X127044260Y-68314000D01*
X127110442Y-68320518D01*
X127110442Y-68320518D01*
G37*
G36*
X137270442Y-68320518D02*
G01*
X137336627Y-68327037D01*
X137506466Y-68378557D01*
X137662991Y-68462222D01*
X137698729Y-68491552D01*
X137800186Y-68574814D01*
X137883448Y-68676271D01*
X137912778Y-68712009D01*
X137996443Y-68868534D01*
X138047963Y-69038373D01*
X138065359Y-69215000D01*
X138047963Y-69391627D01*
X137996443Y-69561466D01*
X137912778Y-69717991D01*
X137883448Y-69753729D01*
X137800186Y-69855186D01*
X137698729Y-69938448D01*
X137662991Y-69967778D01*
X137506466Y-70051443D01*
X137336627Y-70102963D01*
X137270442Y-70109482D01*
X137204260Y-70116000D01*
X137115740Y-70116000D01*
X137049558Y-70109482D01*
X136983373Y-70102963D01*
X136813534Y-70051443D01*
X136657009Y-69967778D01*
X136621271Y-69938448D01*
X136519814Y-69855186D01*
X136436552Y-69753729D01*
X136407222Y-69717991D01*
X136323557Y-69561466D01*
X136272037Y-69391627D01*
X136254641Y-69215000D01*
X136272037Y-69038373D01*
X136323557Y-68868534D01*
X136407222Y-68712009D01*
X136436552Y-68676271D01*
X136519814Y-68574814D01*
X136621271Y-68491552D01*
X136657009Y-68462222D01*
X136813534Y-68378557D01*
X136983373Y-68327037D01*
X137049558Y-68320518D01*
X137115740Y-68314000D01*
X137204260Y-68314000D01*
X137270442Y-68320518D01*
X137270442Y-68320518D01*
G37*
G36*
X124570442Y-68320518D02*
G01*
X124636627Y-68327037D01*
X124806466Y-68378557D01*
X124962991Y-68462222D01*
X124998729Y-68491552D01*
X125100186Y-68574814D01*
X125183448Y-68676271D01*
X125212778Y-68712009D01*
X125296443Y-68868534D01*
X125347963Y-69038373D01*
X125365359Y-69215000D01*
X125347963Y-69391627D01*
X125296443Y-69561466D01*
X125212778Y-69717991D01*
X125183448Y-69753729D01*
X125100186Y-69855186D01*
X124998729Y-69938448D01*
X124962991Y-69967778D01*
X124806466Y-70051443D01*
X124636627Y-70102963D01*
X124570442Y-70109482D01*
X124504260Y-70116000D01*
X124415740Y-70116000D01*
X124349558Y-70109482D01*
X124283373Y-70102963D01*
X124113534Y-70051443D01*
X123957009Y-69967778D01*
X123921271Y-69938448D01*
X123819814Y-69855186D01*
X123736552Y-69753729D01*
X123707222Y-69717991D01*
X123623557Y-69561466D01*
X123572037Y-69391627D01*
X123554641Y-69215000D01*
X123572037Y-69038373D01*
X123623557Y-68868534D01*
X123707222Y-68712009D01*
X123736552Y-68676271D01*
X123819814Y-68574814D01*
X123921271Y-68491552D01*
X123957009Y-68462222D01*
X124113534Y-68378557D01*
X124283373Y-68327037D01*
X124349558Y-68320518D01*
X124415740Y-68314000D01*
X124504260Y-68314000D01*
X124570442Y-68320518D01*
X124570442Y-68320518D01*
G37*
G36*
X122030442Y-68320518D02*
G01*
X122096627Y-68327037D01*
X122266466Y-68378557D01*
X122422991Y-68462222D01*
X122458729Y-68491552D01*
X122560186Y-68574814D01*
X122643448Y-68676271D01*
X122672778Y-68712009D01*
X122756443Y-68868534D01*
X122807963Y-69038373D01*
X122825359Y-69215000D01*
X122807963Y-69391627D01*
X122756443Y-69561466D01*
X122672778Y-69717991D01*
X122643448Y-69753729D01*
X122560186Y-69855186D01*
X122458729Y-69938448D01*
X122422991Y-69967778D01*
X122266466Y-70051443D01*
X122096627Y-70102963D01*
X122030442Y-70109482D01*
X121964260Y-70116000D01*
X121875740Y-70116000D01*
X121809558Y-70109482D01*
X121743373Y-70102963D01*
X121573534Y-70051443D01*
X121417009Y-69967778D01*
X121381271Y-69938448D01*
X121279814Y-69855186D01*
X121196552Y-69753729D01*
X121167222Y-69717991D01*
X121083557Y-69561466D01*
X121032037Y-69391627D01*
X121014641Y-69215000D01*
X121032037Y-69038373D01*
X121083557Y-68868534D01*
X121167222Y-68712009D01*
X121196552Y-68676271D01*
X121279814Y-68574814D01*
X121381271Y-68491552D01*
X121417009Y-68462222D01*
X121573534Y-68378557D01*
X121743373Y-68327037D01*
X121809558Y-68320518D01*
X121875740Y-68314000D01*
X121964260Y-68314000D01*
X122030442Y-68320518D01*
X122030442Y-68320518D01*
G37*
M02*
