M48
; DRILL file {KiCad (5.1.0)-1} date 2019/4/26 16:33:01
; FORMAT={-:-/ absolute / inch / decimal}
; #@! TF.CreationDate,2019-04-26T16:33:01+08:00
; #@! TF.GenerationSoftware,Kicad,Pcbnew,(5.1.0)-1
; #@! TF.FileFunction,Plated,1,2,PTH
FMAT,2
INCH
T1C0.0118
T2C0.0300
T3C0.0394
%
G90
G05
T1
X4.8516Y-3.8484
X4.92Y-3.6
X4.98Y-4.11
X5.02Y-3.86
X5.03Y-3.99
X5.04Y-3.6
X5.19Y-3.7
X5.22Y-3.94
X5.28Y-4.12
X5.3Y-4.1
X5.32Y-4.08
X5.34Y-4.06
X5.36Y-4.04
X5.388Y-3.968
X5.4087Y-3.9487
X5.4293Y-3.9293
X5.45Y-3.91
T2
X4.925Y-3.275
X5.0896Y-3.1854
X5.0904Y-3.3596
X5.116Y-3.844
X5.15Y-3.3
X5.35Y-3.525
T3
X4.6Y-2.975
X4.6Y-3.075
X4.6Y-3.175
X4.6Y-3.275
X4.6Y-3.375
X4.6Y-3.475
X4.6Y-3.575
X4.6Y-3.675
X4.6Y-3.775
X4.6Y-3.875
X4.6Y-3.975
X4.6Y-4.075
X4.6Y-4.175
X4.6Y-4.275
X4.6Y-4.375
X4.6Y-4.475
X5.6Y-2.975
X5.6Y-3.075
X5.6Y-3.175
X5.6Y-3.275
X5.6Y-3.375
X5.6Y-3.475
X5.6Y-3.575
X5.6Y-3.675
X5.6Y-3.775
X5.6Y-3.875
X5.6Y-3.975
X5.6Y-4.075
X5.6Y-4.175
X5.6Y-4.275
X5.6Y-4.375
X5.6Y-4.475
X4.8Y-2.725
X4.8Y-2.825
X4.9Y-2.725
X4.9Y-2.825
X5.0Y-2.725
X5.0Y-2.825
X5.1Y-2.725
X5.1Y-2.825
X5.2Y-2.725
X5.2Y-2.825
X5.3Y-2.725
X5.3Y-2.825
X5.4Y-2.725
X5.4Y-2.825
X4.9Y-4.475
X5.0Y-4.475
X5.1Y-4.475
X5.2Y-4.475
X5.3Y-4.475
T0
M30
