G04 #@! TF.GenerationSoftware,KiCad,Pcbnew,(5.1.0)-1*
G04 #@! TF.CreationDate,2019-04-26T16:32:53+08:00*
G04 #@! TF.ProjectId,stm32,73746d33-322e-46b6-9963-61645f706362,rev?*
G04 #@! TF.SameCoordinates,Original*
G04 #@! TF.FileFunction,Copper,L1,Top*
G04 #@! TF.FilePolarity,Positive*
%FSLAX46Y46*%
G04 Gerber Fmt 4.6, Leading zero omitted, Abs format (unit mm)*
G04 Created by KiCad (PCBNEW (5.1.0)-1) date 2019-04-26 16:32:53*
%MOMM*%
%LPD*%
G04 APERTURE LIST*
%ADD10R,1.700000X1.700000*%
%ADD11O,1.700000X1.700000*%
%ADD12C,0.100000*%
%ADD13C,1.150000*%
%ADD14R,3.800000X2.000000*%
%ADD15R,1.500000X2.000000*%
%ADD16C,0.300000*%
%ADD17C,1.016000*%
%ADD18C,0.400000*%
%ADD19C,0.762000*%
%ADD20C,0.250000*%
G04 APERTURE END LIST*
D10*
X142240000Y-113665000D03*
D11*
X142240000Y-111125000D03*
X142240000Y-108585000D03*
X142240000Y-106045000D03*
X142240000Y-103505000D03*
X142240000Y-100965000D03*
X142240000Y-98425000D03*
X142240000Y-95885000D03*
X142240000Y-93345000D03*
X142240000Y-90805000D03*
X142240000Y-88265000D03*
X142240000Y-85725000D03*
X142240000Y-83185000D03*
X142240000Y-80645000D03*
X142240000Y-78105000D03*
X142240000Y-75565000D03*
D12*
G36*
X136364505Y-86811204D02*
G01*
X136388773Y-86814804D01*
X136412572Y-86820765D01*
X136435671Y-86829030D01*
X136457850Y-86839520D01*
X136478893Y-86852132D01*
X136498599Y-86866747D01*
X136516777Y-86883223D01*
X136533253Y-86901401D01*
X136547868Y-86921107D01*
X136560480Y-86942150D01*
X136570970Y-86964329D01*
X136579235Y-86987428D01*
X136585196Y-87011227D01*
X136588796Y-87035495D01*
X136590000Y-87059999D01*
X136590000Y-87710001D01*
X136588796Y-87734505D01*
X136585196Y-87758773D01*
X136579235Y-87782572D01*
X136570970Y-87805671D01*
X136560480Y-87827850D01*
X136547868Y-87848893D01*
X136533253Y-87868599D01*
X136516777Y-87886777D01*
X136498599Y-87903253D01*
X136478893Y-87917868D01*
X136457850Y-87930480D01*
X136435671Y-87940970D01*
X136412572Y-87949235D01*
X136388773Y-87955196D01*
X136364505Y-87958796D01*
X136340001Y-87960000D01*
X135439999Y-87960000D01*
X135415495Y-87958796D01*
X135391227Y-87955196D01*
X135367428Y-87949235D01*
X135344329Y-87940970D01*
X135322150Y-87930480D01*
X135301107Y-87917868D01*
X135281401Y-87903253D01*
X135263223Y-87886777D01*
X135246747Y-87868599D01*
X135232132Y-87848893D01*
X135219520Y-87827850D01*
X135209030Y-87805671D01*
X135200765Y-87782572D01*
X135194804Y-87758773D01*
X135191204Y-87734505D01*
X135190000Y-87710001D01*
X135190000Y-87059999D01*
X135191204Y-87035495D01*
X135194804Y-87011227D01*
X135200765Y-86987428D01*
X135209030Y-86964329D01*
X135219520Y-86942150D01*
X135232132Y-86921107D01*
X135246747Y-86901401D01*
X135263223Y-86883223D01*
X135281401Y-86866747D01*
X135301107Y-86852132D01*
X135322150Y-86839520D01*
X135344329Y-86829030D01*
X135367428Y-86820765D01*
X135391227Y-86814804D01*
X135415495Y-86811204D01*
X135439999Y-86810000D01*
X136340001Y-86810000D01*
X136364505Y-86811204D01*
X136364505Y-86811204D01*
G37*
D13*
X135890000Y-87385000D03*
D12*
G36*
X136364505Y-84761204D02*
G01*
X136388773Y-84764804D01*
X136412572Y-84770765D01*
X136435671Y-84779030D01*
X136457850Y-84789520D01*
X136478893Y-84802132D01*
X136498599Y-84816747D01*
X136516777Y-84833223D01*
X136533253Y-84851401D01*
X136547868Y-84871107D01*
X136560480Y-84892150D01*
X136570970Y-84914329D01*
X136579235Y-84937428D01*
X136585196Y-84961227D01*
X136588796Y-84985495D01*
X136590000Y-85009999D01*
X136590000Y-85660001D01*
X136588796Y-85684505D01*
X136585196Y-85708773D01*
X136579235Y-85732572D01*
X136570970Y-85755671D01*
X136560480Y-85777850D01*
X136547868Y-85798893D01*
X136533253Y-85818599D01*
X136516777Y-85836777D01*
X136498599Y-85853253D01*
X136478893Y-85867868D01*
X136457850Y-85880480D01*
X136435671Y-85890970D01*
X136412572Y-85899235D01*
X136388773Y-85905196D01*
X136364505Y-85908796D01*
X136340001Y-85910000D01*
X135439999Y-85910000D01*
X135415495Y-85908796D01*
X135391227Y-85905196D01*
X135367428Y-85899235D01*
X135344329Y-85890970D01*
X135322150Y-85880480D01*
X135301107Y-85867868D01*
X135281401Y-85853253D01*
X135263223Y-85836777D01*
X135246747Y-85818599D01*
X135232132Y-85798893D01*
X135219520Y-85777850D01*
X135209030Y-85755671D01*
X135200765Y-85732572D01*
X135194804Y-85708773D01*
X135191204Y-85684505D01*
X135190000Y-85660001D01*
X135190000Y-85009999D01*
X135191204Y-84985495D01*
X135194804Y-84961227D01*
X135200765Y-84937428D01*
X135209030Y-84914329D01*
X135219520Y-84892150D01*
X135232132Y-84871107D01*
X135246747Y-84851401D01*
X135263223Y-84833223D01*
X135281401Y-84816747D01*
X135301107Y-84802132D01*
X135322150Y-84789520D01*
X135344329Y-84779030D01*
X135367428Y-84770765D01*
X135391227Y-84764804D01*
X135415495Y-84761204D01*
X135439999Y-84760000D01*
X136340001Y-84760000D01*
X136364505Y-84761204D01*
X136364505Y-84761204D01*
G37*
D13*
X135890000Y-85335000D03*
D12*
G36*
X125569505Y-78284204D02*
G01*
X125593773Y-78287804D01*
X125617572Y-78293765D01*
X125640671Y-78302030D01*
X125662850Y-78312520D01*
X125683893Y-78325132D01*
X125703599Y-78339747D01*
X125721777Y-78356223D01*
X125738253Y-78374401D01*
X125752868Y-78394107D01*
X125765480Y-78415150D01*
X125775970Y-78437329D01*
X125784235Y-78460428D01*
X125790196Y-78484227D01*
X125793796Y-78508495D01*
X125795000Y-78532999D01*
X125795000Y-79183001D01*
X125793796Y-79207505D01*
X125790196Y-79231773D01*
X125784235Y-79255572D01*
X125775970Y-79278671D01*
X125765480Y-79300850D01*
X125752868Y-79321893D01*
X125738253Y-79341599D01*
X125721777Y-79359777D01*
X125703599Y-79376253D01*
X125683893Y-79390868D01*
X125662850Y-79403480D01*
X125640671Y-79413970D01*
X125617572Y-79422235D01*
X125593773Y-79428196D01*
X125569505Y-79431796D01*
X125545001Y-79433000D01*
X124644999Y-79433000D01*
X124620495Y-79431796D01*
X124596227Y-79428196D01*
X124572428Y-79422235D01*
X124549329Y-79413970D01*
X124527150Y-79403480D01*
X124506107Y-79390868D01*
X124486401Y-79376253D01*
X124468223Y-79359777D01*
X124451747Y-79341599D01*
X124437132Y-79321893D01*
X124424520Y-79300850D01*
X124414030Y-79278671D01*
X124405765Y-79255572D01*
X124399804Y-79231773D01*
X124396204Y-79207505D01*
X124395000Y-79183001D01*
X124395000Y-78532999D01*
X124396204Y-78508495D01*
X124399804Y-78484227D01*
X124405765Y-78460428D01*
X124414030Y-78437329D01*
X124424520Y-78415150D01*
X124437132Y-78394107D01*
X124451747Y-78374401D01*
X124468223Y-78356223D01*
X124486401Y-78339747D01*
X124506107Y-78325132D01*
X124527150Y-78312520D01*
X124549329Y-78302030D01*
X124572428Y-78293765D01*
X124596227Y-78287804D01*
X124620495Y-78284204D01*
X124644999Y-78283000D01*
X125545001Y-78283000D01*
X125569505Y-78284204D01*
X125569505Y-78284204D01*
G37*
D13*
X125095000Y-78858000D03*
D12*
G36*
X125569505Y-80334204D02*
G01*
X125593773Y-80337804D01*
X125617572Y-80343765D01*
X125640671Y-80352030D01*
X125662850Y-80362520D01*
X125683893Y-80375132D01*
X125703599Y-80389747D01*
X125721777Y-80406223D01*
X125738253Y-80424401D01*
X125752868Y-80444107D01*
X125765480Y-80465150D01*
X125775970Y-80487329D01*
X125784235Y-80510428D01*
X125790196Y-80534227D01*
X125793796Y-80558495D01*
X125795000Y-80582999D01*
X125795000Y-81233001D01*
X125793796Y-81257505D01*
X125790196Y-81281773D01*
X125784235Y-81305572D01*
X125775970Y-81328671D01*
X125765480Y-81350850D01*
X125752868Y-81371893D01*
X125738253Y-81391599D01*
X125721777Y-81409777D01*
X125703599Y-81426253D01*
X125683893Y-81440868D01*
X125662850Y-81453480D01*
X125640671Y-81463970D01*
X125617572Y-81472235D01*
X125593773Y-81478196D01*
X125569505Y-81481796D01*
X125545001Y-81483000D01*
X124644999Y-81483000D01*
X124620495Y-81481796D01*
X124596227Y-81478196D01*
X124572428Y-81472235D01*
X124549329Y-81463970D01*
X124527150Y-81453480D01*
X124506107Y-81440868D01*
X124486401Y-81426253D01*
X124468223Y-81409777D01*
X124451747Y-81391599D01*
X124437132Y-81371893D01*
X124424520Y-81350850D01*
X124414030Y-81328671D01*
X124405765Y-81305572D01*
X124399804Y-81281773D01*
X124396204Y-81257505D01*
X124395000Y-81233001D01*
X124395000Y-80582999D01*
X124396204Y-80558495D01*
X124399804Y-80534227D01*
X124405765Y-80510428D01*
X124414030Y-80487329D01*
X124424520Y-80465150D01*
X124437132Y-80444107D01*
X124451747Y-80424401D01*
X124468223Y-80406223D01*
X124486401Y-80389747D01*
X124506107Y-80375132D01*
X124527150Y-80362520D01*
X124549329Y-80352030D01*
X124572428Y-80343765D01*
X124596227Y-80337804D01*
X124620495Y-80334204D01*
X124644999Y-80333000D01*
X125545001Y-80333000D01*
X125569505Y-80334204D01*
X125569505Y-80334204D01*
G37*
D13*
X125095000Y-80908000D03*
D12*
G36*
X128109505Y-80334204D02*
G01*
X128133773Y-80337804D01*
X128157572Y-80343765D01*
X128180671Y-80352030D01*
X128202850Y-80362520D01*
X128223893Y-80375132D01*
X128243599Y-80389747D01*
X128261777Y-80406223D01*
X128278253Y-80424401D01*
X128292868Y-80444107D01*
X128305480Y-80465150D01*
X128315970Y-80487329D01*
X128324235Y-80510428D01*
X128330196Y-80534227D01*
X128333796Y-80558495D01*
X128335000Y-80582999D01*
X128335000Y-81233001D01*
X128333796Y-81257505D01*
X128330196Y-81281773D01*
X128324235Y-81305572D01*
X128315970Y-81328671D01*
X128305480Y-81350850D01*
X128292868Y-81371893D01*
X128278253Y-81391599D01*
X128261777Y-81409777D01*
X128243599Y-81426253D01*
X128223893Y-81440868D01*
X128202850Y-81453480D01*
X128180671Y-81463970D01*
X128157572Y-81472235D01*
X128133773Y-81478196D01*
X128109505Y-81481796D01*
X128085001Y-81483000D01*
X127184999Y-81483000D01*
X127160495Y-81481796D01*
X127136227Y-81478196D01*
X127112428Y-81472235D01*
X127089329Y-81463970D01*
X127067150Y-81453480D01*
X127046107Y-81440868D01*
X127026401Y-81426253D01*
X127008223Y-81409777D01*
X126991747Y-81391599D01*
X126977132Y-81371893D01*
X126964520Y-81350850D01*
X126954030Y-81328671D01*
X126945765Y-81305572D01*
X126939804Y-81281773D01*
X126936204Y-81257505D01*
X126935000Y-81233001D01*
X126935000Y-80582999D01*
X126936204Y-80558495D01*
X126939804Y-80534227D01*
X126945765Y-80510428D01*
X126954030Y-80487329D01*
X126964520Y-80465150D01*
X126977132Y-80444107D01*
X126991747Y-80424401D01*
X127008223Y-80406223D01*
X127026401Y-80389747D01*
X127046107Y-80375132D01*
X127067150Y-80362520D01*
X127089329Y-80352030D01*
X127112428Y-80343765D01*
X127136227Y-80337804D01*
X127160495Y-80334204D01*
X127184999Y-80333000D01*
X128085001Y-80333000D01*
X128109505Y-80334204D01*
X128109505Y-80334204D01*
G37*
D13*
X127635000Y-80908000D03*
D12*
G36*
X128109505Y-78284204D02*
G01*
X128133773Y-78287804D01*
X128157572Y-78293765D01*
X128180671Y-78302030D01*
X128202850Y-78312520D01*
X128223893Y-78325132D01*
X128243599Y-78339747D01*
X128261777Y-78356223D01*
X128278253Y-78374401D01*
X128292868Y-78394107D01*
X128305480Y-78415150D01*
X128315970Y-78437329D01*
X128324235Y-78460428D01*
X128330196Y-78484227D01*
X128333796Y-78508495D01*
X128335000Y-78532999D01*
X128335000Y-79183001D01*
X128333796Y-79207505D01*
X128330196Y-79231773D01*
X128324235Y-79255572D01*
X128315970Y-79278671D01*
X128305480Y-79300850D01*
X128292868Y-79321893D01*
X128278253Y-79341599D01*
X128261777Y-79359777D01*
X128243599Y-79376253D01*
X128223893Y-79390868D01*
X128202850Y-79403480D01*
X128180671Y-79413970D01*
X128157572Y-79422235D01*
X128133773Y-79428196D01*
X128109505Y-79431796D01*
X128085001Y-79433000D01*
X127184999Y-79433000D01*
X127160495Y-79431796D01*
X127136227Y-79428196D01*
X127112428Y-79422235D01*
X127089329Y-79413970D01*
X127067150Y-79403480D01*
X127046107Y-79390868D01*
X127026401Y-79376253D01*
X127008223Y-79359777D01*
X126991747Y-79341599D01*
X126977132Y-79321893D01*
X126964520Y-79300850D01*
X126954030Y-79278671D01*
X126945765Y-79255572D01*
X126939804Y-79231773D01*
X126936204Y-79207505D01*
X126935000Y-79183001D01*
X126935000Y-78532999D01*
X126936204Y-78508495D01*
X126939804Y-78484227D01*
X126945765Y-78460428D01*
X126954030Y-78437329D01*
X126964520Y-78415150D01*
X126977132Y-78394107D01*
X126991747Y-78374401D01*
X127008223Y-78356223D01*
X127026401Y-78339747D01*
X127046107Y-78325132D01*
X127067150Y-78312520D01*
X127089329Y-78302030D01*
X127112428Y-78293765D01*
X127136227Y-78287804D01*
X127160495Y-78284204D01*
X127184999Y-78283000D01*
X128085001Y-78283000D01*
X128109505Y-78284204D01*
X128109505Y-78284204D01*
G37*
D13*
X127635000Y-78858000D03*
D12*
G36*
X125569505Y-86811204D02*
G01*
X125593773Y-86814804D01*
X125617572Y-86820765D01*
X125640671Y-86829030D01*
X125662850Y-86839520D01*
X125683893Y-86852132D01*
X125703599Y-86866747D01*
X125721777Y-86883223D01*
X125738253Y-86901401D01*
X125752868Y-86921107D01*
X125765480Y-86942150D01*
X125775970Y-86964329D01*
X125784235Y-86987428D01*
X125790196Y-87011227D01*
X125793796Y-87035495D01*
X125795000Y-87059999D01*
X125795000Y-87710001D01*
X125793796Y-87734505D01*
X125790196Y-87758773D01*
X125784235Y-87782572D01*
X125775970Y-87805671D01*
X125765480Y-87827850D01*
X125752868Y-87848893D01*
X125738253Y-87868599D01*
X125721777Y-87886777D01*
X125703599Y-87903253D01*
X125683893Y-87917868D01*
X125662850Y-87930480D01*
X125640671Y-87940970D01*
X125617572Y-87949235D01*
X125593773Y-87955196D01*
X125569505Y-87958796D01*
X125545001Y-87960000D01*
X124644999Y-87960000D01*
X124620495Y-87958796D01*
X124596227Y-87955196D01*
X124572428Y-87949235D01*
X124549329Y-87940970D01*
X124527150Y-87930480D01*
X124506107Y-87917868D01*
X124486401Y-87903253D01*
X124468223Y-87886777D01*
X124451747Y-87868599D01*
X124437132Y-87848893D01*
X124424520Y-87827850D01*
X124414030Y-87805671D01*
X124405765Y-87782572D01*
X124399804Y-87758773D01*
X124396204Y-87734505D01*
X124395000Y-87710001D01*
X124395000Y-87059999D01*
X124396204Y-87035495D01*
X124399804Y-87011227D01*
X124405765Y-86987428D01*
X124414030Y-86964329D01*
X124424520Y-86942150D01*
X124437132Y-86921107D01*
X124451747Y-86901401D01*
X124468223Y-86883223D01*
X124486401Y-86866747D01*
X124506107Y-86852132D01*
X124527150Y-86839520D01*
X124549329Y-86829030D01*
X124572428Y-86820765D01*
X124596227Y-86814804D01*
X124620495Y-86811204D01*
X124644999Y-86810000D01*
X125545001Y-86810000D01*
X125569505Y-86811204D01*
X125569505Y-86811204D01*
G37*
D13*
X125095000Y-87385000D03*
D12*
G36*
X125569505Y-84761204D02*
G01*
X125593773Y-84764804D01*
X125617572Y-84770765D01*
X125640671Y-84779030D01*
X125662850Y-84789520D01*
X125683893Y-84802132D01*
X125703599Y-84816747D01*
X125721777Y-84833223D01*
X125738253Y-84851401D01*
X125752868Y-84871107D01*
X125765480Y-84892150D01*
X125775970Y-84914329D01*
X125784235Y-84937428D01*
X125790196Y-84961227D01*
X125793796Y-84985495D01*
X125795000Y-85009999D01*
X125795000Y-85660001D01*
X125793796Y-85684505D01*
X125790196Y-85708773D01*
X125784235Y-85732572D01*
X125775970Y-85755671D01*
X125765480Y-85777850D01*
X125752868Y-85798893D01*
X125738253Y-85818599D01*
X125721777Y-85836777D01*
X125703599Y-85853253D01*
X125683893Y-85867868D01*
X125662850Y-85880480D01*
X125640671Y-85890970D01*
X125617572Y-85899235D01*
X125593773Y-85905196D01*
X125569505Y-85908796D01*
X125545001Y-85910000D01*
X124644999Y-85910000D01*
X124620495Y-85908796D01*
X124596227Y-85905196D01*
X124572428Y-85899235D01*
X124549329Y-85890970D01*
X124527150Y-85880480D01*
X124506107Y-85867868D01*
X124486401Y-85853253D01*
X124468223Y-85836777D01*
X124451747Y-85818599D01*
X124437132Y-85798893D01*
X124424520Y-85777850D01*
X124414030Y-85755671D01*
X124405765Y-85732572D01*
X124399804Y-85708773D01*
X124396204Y-85684505D01*
X124395000Y-85660001D01*
X124395000Y-85009999D01*
X124396204Y-84985495D01*
X124399804Y-84961227D01*
X124405765Y-84937428D01*
X124414030Y-84914329D01*
X124424520Y-84892150D01*
X124437132Y-84871107D01*
X124451747Y-84851401D01*
X124468223Y-84833223D01*
X124486401Y-84816747D01*
X124506107Y-84802132D01*
X124527150Y-84789520D01*
X124549329Y-84779030D01*
X124572428Y-84770765D01*
X124596227Y-84764804D01*
X124620495Y-84761204D01*
X124644999Y-84760000D01*
X125545001Y-84760000D01*
X125569505Y-84761204D01*
X125569505Y-84761204D01*
G37*
D13*
X125095000Y-85335000D03*
D12*
G36*
X131284505Y-84761204D02*
G01*
X131308773Y-84764804D01*
X131332572Y-84770765D01*
X131355671Y-84779030D01*
X131377850Y-84789520D01*
X131398893Y-84802132D01*
X131418599Y-84816747D01*
X131436777Y-84833223D01*
X131453253Y-84851401D01*
X131467868Y-84871107D01*
X131480480Y-84892150D01*
X131490970Y-84914329D01*
X131499235Y-84937428D01*
X131505196Y-84961227D01*
X131508796Y-84985495D01*
X131510000Y-85009999D01*
X131510000Y-85660001D01*
X131508796Y-85684505D01*
X131505196Y-85708773D01*
X131499235Y-85732572D01*
X131490970Y-85755671D01*
X131480480Y-85777850D01*
X131467868Y-85798893D01*
X131453253Y-85818599D01*
X131436777Y-85836777D01*
X131418599Y-85853253D01*
X131398893Y-85867868D01*
X131377850Y-85880480D01*
X131355671Y-85890970D01*
X131332572Y-85899235D01*
X131308773Y-85905196D01*
X131284505Y-85908796D01*
X131260001Y-85910000D01*
X130359999Y-85910000D01*
X130335495Y-85908796D01*
X130311227Y-85905196D01*
X130287428Y-85899235D01*
X130264329Y-85890970D01*
X130242150Y-85880480D01*
X130221107Y-85867868D01*
X130201401Y-85853253D01*
X130183223Y-85836777D01*
X130166747Y-85818599D01*
X130152132Y-85798893D01*
X130139520Y-85777850D01*
X130129030Y-85755671D01*
X130120765Y-85732572D01*
X130114804Y-85708773D01*
X130111204Y-85684505D01*
X130110000Y-85660001D01*
X130110000Y-85009999D01*
X130111204Y-84985495D01*
X130114804Y-84961227D01*
X130120765Y-84937428D01*
X130129030Y-84914329D01*
X130139520Y-84892150D01*
X130152132Y-84871107D01*
X130166747Y-84851401D01*
X130183223Y-84833223D01*
X130201401Y-84816747D01*
X130221107Y-84802132D01*
X130242150Y-84789520D01*
X130264329Y-84779030D01*
X130287428Y-84770765D01*
X130311227Y-84764804D01*
X130335495Y-84761204D01*
X130359999Y-84760000D01*
X131260001Y-84760000D01*
X131284505Y-84761204D01*
X131284505Y-84761204D01*
G37*
D13*
X130810000Y-85335000D03*
D12*
G36*
X131284505Y-86811204D02*
G01*
X131308773Y-86814804D01*
X131332572Y-86820765D01*
X131355671Y-86829030D01*
X131377850Y-86839520D01*
X131398893Y-86852132D01*
X131418599Y-86866747D01*
X131436777Y-86883223D01*
X131453253Y-86901401D01*
X131467868Y-86921107D01*
X131480480Y-86942150D01*
X131490970Y-86964329D01*
X131499235Y-86987428D01*
X131505196Y-87011227D01*
X131508796Y-87035495D01*
X131510000Y-87059999D01*
X131510000Y-87710001D01*
X131508796Y-87734505D01*
X131505196Y-87758773D01*
X131499235Y-87782572D01*
X131490970Y-87805671D01*
X131480480Y-87827850D01*
X131467868Y-87848893D01*
X131453253Y-87868599D01*
X131436777Y-87886777D01*
X131418599Y-87903253D01*
X131398893Y-87917868D01*
X131377850Y-87930480D01*
X131355671Y-87940970D01*
X131332572Y-87949235D01*
X131308773Y-87955196D01*
X131284505Y-87958796D01*
X131260001Y-87960000D01*
X130359999Y-87960000D01*
X130335495Y-87958796D01*
X130311227Y-87955196D01*
X130287428Y-87949235D01*
X130264329Y-87940970D01*
X130242150Y-87930480D01*
X130221107Y-87917868D01*
X130201401Y-87903253D01*
X130183223Y-87886777D01*
X130166747Y-87868599D01*
X130152132Y-87848893D01*
X130139520Y-87827850D01*
X130129030Y-87805671D01*
X130120765Y-87782572D01*
X130114804Y-87758773D01*
X130111204Y-87734505D01*
X130110000Y-87710001D01*
X130110000Y-87059999D01*
X130111204Y-87035495D01*
X130114804Y-87011227D01*
X130120765Y-86987428D01*
X130129030Y-86964329D01*
X130139520Y-86942150D01*
X130152132Y-86921107D01*
X130166747Y-86901401D01*
X130183223Y-86883223D01*
X130201401Y-86866747D01*
X130221107Y-86852132D01*
X130242150Y-86839520D01*
X130264329Y-86829030D01*
X130287428Y-86820765D01*
X130311227Y-86814804D01*
X130335495Y-86811204D01*
X130359999Y-86810000D01*
X131260001Y-86810000D01*
X131284505Y-86811204D01*
X131284505Y-86811204D01*
G37*
D13*
X130810000Y-87385000D03*
D10*
X124460000Y-113665000D03*
D11*
X127000000Y-113665000D03*
X129540000Y-113665000D03*
X132080000Y-113665000D03*
X134620000Y-113665000D03*
X116840000Y-113665000D03*
X116840000Y-111125000D03*
X116840000Y-108585000D03*
X116840000Y-106045000D03*
X116840000Y-103505000D03*
X116840000Y-100965000D03*
X116840000Y-98425000D03*
X116840000Y-95885000D03*
X116840000Y-93345000D03*
X116840000Y-90805000D03*
X116840000Y-88265000D03*
X116840000Y-85725000D03*
X116840000Y-83185000D03*
X116840000Y-80645000D03*
X116840000Y-78105000D03*
D10*
X116840000Y-75565000D03*
D12*
G36*
X133824505Y-84761204D02*
G01*
X133848773Y-84764804D01*
X133872572Y-84770765D01*
X133895671Y-84779030D01*
X133917850Y-84789520D01*
X133938893Y-84802132D01*
X133958599Y-84816747D01*
X133976777Y-84833223D01*
X133993253Y-84851401D01*
X134007868Y-84871107D01*
X134020480Y-84892150D01*
X134030970Y-84914329D01*
X134039235Y-84937428D01*
X134045196Y-84961227D01*
X134048796Y-84985495D01*
X134050000Y-85009999D01*
X134050000Y-85660001D01*
X134048796Y-85684505D01*
X134045196Y-85708773D01*
X134039235Y-85732572D01*
X134030970Y-85755671D01*
X134020480Y-85777850D01*
X134007868Y-85798893D01*
X133993253Y-85818599D01*
X133976777Y-85836777D01*
X133958599Y-85853253D01*
X133938893Y-85867868D01*
X133917850Y-85880480D01*
X133895671Y-85890970D01*
X133872572Y-85899235D01*
X133848773Y-85905196D01*
X133824505Y-85908796D01*
X133800001Y-85910000D01*
X132899999Y-85910000D01*
X132875495Y-85908796D01*
X132851227Y-85905196D01*
X132827428Y-85899235D01*
X132804329Y-85890970D01*
X132782150Y-85880480D01*
X132761107Y-85867868D01*
X132741401Y-85853253D01*
X132723223Y-85836777D01*
X132706747Y-85818599D01*
X132692132Y-85798893D01*
X132679520Y-85777850D01*
X132669030Y-85755671D01*
X132660765Y-85732572D01*
X132654804Y-85708773D01*
X132651204Y-85684505D01*
X132650000Y-85660001D01*
X132650000Y-85009999D01*
X132651204Y-84985495D01*
X132654804Y-84961227D01*
X132660765Y-84937428D01*
X132669030Y-84914329D01*
X132679520Y-84892150D01*
X132692132Y-84871107D01*
X132706747Y-84851401D01*
X132723223Y-84833223D01*
X132741401Y-84816747D01*
X132761107Y-84802132D01*
X132782150Y-84789520D01*
X132804329Y-84779030D01*
X132827428Y-84770765D01*
X132851227Y-84764804D01*
X132875495Y-84761204D01*
X132899999Y-84760000D01*
X133800001Y-84760000D01*
X133824505Y-84761204D01*
X133824505Y-84761204D01*
G37*
D13*
X133350000Y-85335000D03*
D12*
G36*
X133824505Y-86811204D02*
G01*
X133848773Y-86814804D01*
X133872572Y-86820765D01*
X133895671Y-86829030D01*
X133917850Y-86839520D01*
X133938893Y-86852132D01*
X133958599Y-86866747D01*
X133976777Y-86883223D01*
X133993253Y-86901401D01*
X134007868Y-86921107D01*
X134020480Y-86942150D01*
X134030970Y-86964329D01*
X134039235Y-86987428D01*
X134045196Y-87011227D01*
X134048796Y-87035495D01*
X134050000Y-87059999D01*
X134050000Y-87710001D01*
X134048796Y-87734505D01*
X134045196Y-87758773D01*
X134039235Y-87782572D01*
X134030970Y-87805671D01*
X134020480Y-87827850D01*
X134007868Y-87848893D01*
X133993253Y-87868599D01*
X133976777Y-87886777D01*
X133958599Y-87903253D01*
X133938893Y-87917868D01*
X133917850Y-87930480D01*
X133895671Y-87940970D01*
X133872572Y-87949235D01*
X133848773Y-87955196D01*
X133824505Y-87958796D01*
X133800001Y-87960000D01*
X132899999Y-87960000D01*
X132875495Y-87958796D01*
X132851227Y-87955196D01*
X132827428Y-87949235D01*
X132804329Y-87940970D01*
X132782150Y-87930480D01*
X132761107Y-87917868D01*
X132741401Y-87903253D01*
X132723223Y-87886777D01*
X132706747Y-87868599D01*
X132692132Y-87848893D01*
X132679520Y-87827850D01*
X132669030Y-87805671D01*
X132660765Y-87782572D01*
X132654804Y-87758773D01*
X132651204Y-87734505D01*
X132650000Y-87710001D01*
X132650000Y-87059999D01*
X132651204Y-87035495D01*
X132654804Y-87011227D01*
X132660765Y-86987428D01*
X132669030Y-86964329D01*
X132679520Y-86942150D01*
X132692132Y-86921107D01*
X132706747Y-86901401D01*
X132723223Y-86883223D01*
X132741401Y-86866747D01*
X132761107Y-86852132D01*
X132782150Y-86839520D01*
X132804329Y-86829030D01*
X132827428Y-86820765D01*
X132851227Y-86814804D01*
X132875495Y-86811204D01*
X132899999Y-86810000D01*
X133800001Y-86810000D01*
X133824505Y-86811204D01*
X133824505Y-86811204D01*
G37*
D13*
X133350000Y-87385000D03*
D12*
G36*
X123029505Y-78284204D02*
G01*
X123053773Y-78287804D01*
X123077572Y-78293765D01*
X123100671Y-78302030D01*
X123122850Y-78312520D01*
X123143893Y-78325132D01*
X123163599Y-78339747D01*
X123181777Y-78356223D01*
X123198253Y-78374401D01*
X123212868Y-78394107D01*
X123225480Y-78415150D01*
X123235970Y-78437329D01*
X123244235Y-78460428D01*
X123250196Y-78484227D01*
X123253796Y-78508495D01*
X123255000Y-78532999D01*
X123255000Y-79183001D01*
X123253796Y-79207505D01*
X123250196Y-79231773D01*
X123244235Y-79255572D01*
X123235970Y-79278671D01*
X123225480Y-79300850D01*
X123212868Y-79321893D01*
X123198253Y-79341599D01*
X123181777Y-79359777D01*
X123163599Y-79376253D01*
X123143893Y-79390868D01*
X123122850Y-79403480D01*
X123100671Y-79413970D01*
X123077572Y-79422235D01*
X123053773Y-79428196D01*
X123029505Y-79431796D01*
X123005001Y-79433000D01*
X122104999Y-79433000D01*
X122080495Y-79431796D01*
X122056227Y-79428196D01*
X122032428Y-79422235D01*
X122009329Y-79413970D01*
X121987150Y-79403480D01*
X121966107Y-79390868D01*
X121946401Y-79376253D01*
X121928223Y-79359777D01*
X121911747Y-79341599D01*
X121897132Y-79321893D01*
X121884520Y-79300850D01*
X121874030Y-79278671D01*
X121865765Y-79255572D01*
X121859804Y-79231773D01*
X121856204Y-79207505D01*
X121855000Y-79183001D01*
X121855000Y-78532999D01*
X121856204Y-78508495D01*
X121859804Y-78484227D01*
X121865765Y-78460428D01*
X121874030Y-78437329D01*
X121884520Y-78415150D01*
X121897132Y-78394107D01*
X121911747Y-78374401D01*
X121928223Y-78356223D01*
X121946401Y-78339747D01*
X121966107Y-78325132D01*
X121987150Y-78312520D01*
X122009329Y-78302030D01*
X122032428Y-78293765D01*
X122056227Y-78287804D01*
X122080495Y-78284204D01*
X122104999Y-78283000D01*
X123005001Y-78283000D01*
X123029505Y-78284204D01*
X123029505Y-78284204D01*
G37*
D13*
X122555000Y-78858000D03*
D12*
G36*
X123029505Y-80334204D02*
G01*
X123053773Y-80337804D01*
X123077572Y-80343765D01*
X123100671Y-80352030D01*
X123122850Y-80362520D01*
X123143893Y-80375132D01*
X123163599Y-80389747D01*
X123181777Y-80406223D01*
X123198253Y-80424401D01*
X123212868Y-80444107D01*
X123225480Y-80465150D01*
X123235970Y-80487329D01*
X123244235Y-80510428D01*
X123250196Y-80534227D01*
X123253796Y-80558495D01*
X123255000Y-80582999D01*
X123255000Y-81233001D01*
X123253796Y-81257505D01*
X123250196Y-81281773D01*
X123244235Y-81305572D01*
X123235970Y-81328671D01*
X123225480Y-81350850D01*
X123212868Y-81371893D01*
X123198253Y-81391599D01*
X123181777Y-81409777D01*
X123163599Y-81426253D01*
X123143893Y-81440868D01*
X123122850Y-81453480D01*
X123100671Y-81463970D01*
X123077572Y-81472235D01*
X123053773Y-81478196D01*
X123029505Y-81481796D01*
X123005001Y-81483000D01*
X122104999Y-81483000D01*
X122080495Y-81481796D01*
X122056227Y-81478196D01*
X122032428Y-81472235D01*
X122009329Y-81463970D01*
X121987150Y-81453480D01*
X121966107Y-81440868D01*
X121946401Y-81426253D01*
X121928223Y-81409777D01*
X121911747Y-81391599D01*
X121897132Y-81371893D01*
X121884520Y-81350850D01*
X121874030Y-81328671D01*
X121865765Y-81305572D01*
X121859804Y-81281773D01*
X121856204Y-81257505D01*
X121855000Y-81233001D01*
X121855000Y-80582999D01*
X121856204Y-80558495D01*
X121859804Y-80534227D01*
X121865765Y-80510428D01*
X121874030Y-80487329D01*
X121884520Y-80465150D01*
X121897132Y-80444107D01*
X121911747Y-80424401D01*
X121928223Y-80406223D01*
X121946401Y-80389747D01*
X121966107Y-80375132D01*
X121987150Y-80362520D01*
X122009329Y-80352030D01*
X122032428Y-80343765D01*
X122056227Y-80337804D01*
X122080495Y-80334204D01*
X122104999Y-80333000D01*
X123005001Y-80333000D01*
X123029505Y-80334204D01*
X123029505Y-80334204D01*
G37*
D13*
X122555000Y-80908000D03*
D12*
G36*
X128109505Y-84761204D02*
G01*
X128133773Y-84764804D01*
X128157572Y-84770765D01*
X128180671Y-84779030D01*
X128202850Y-84789520D01*
X128223893Y-84802132D01*
X128243599Y-84816747D01*
X128261777Y-84833223D01*
X128278253Y-84851401D01*
X128292868Y-84871107D01*
X128305480Y-84892150D01*
X128315970Y-84914329D01*
X128324235Y-84937428D01*
X128330196Y-84961227D01*
X128333796Y-84985495D01*
X128335000Y-85009999D01*
X128335000Y-85660001D01*
X128333796Y-85684505D01*
X128330196Y-85708773D01*
X128324235Y-85732572D01*
X128315970Y-85755671D01*
X128305480Y-85777850D01*
X128292868Y-85798893D01*
X128278253Y-85818599D01*
X128261777Y-85836777D01*
X128243599Y-85853253D01*
X128223893Y-85867868D01*
X128202850Y-85880480D01*
X128180671Y-85890970D01*
X128157572Y-85899235D01*
X128133773Y-85905196D01*
X128109505Y-85908796D01*
X128085001Y-85910000D01*
X127184999Y-85910000D01*
X127160495Y-85908796D01*
X127136227Y-85905196D01*
X127112428Y-85899235D01*
X127089329Y-85890970D01*
X127067150Y-85880480D01*
X127046107Y-85867868D01*
X127026401Y-85853253D01*
X127008223Y-85836777D01*
X126991747Y-85818599D01*
X126977132Y-85798893D01*
X126964520Y-85777850D01*
X126954030Y-85755671D01*
X126945765Y-85732572D01*
X126939804Y-85708773D01*
X126936204Y-85684505D01*
X126935000Y-85660001D01*
X126935000Y-85009999D01*
X126936204Y-84985495D01*
X126939804Y-84961227D01*
X126945765Y-84937428D01*
X126954030Y-84914329D01*
X126964520Y-84892150D01*
X126977132Y-84871107D01*
X126991747Y-84851401D01*
X127008223Y-84833223D01*
X127026401Y-84816747D01*
X127046107Y-84802132D01*
X127067150Y-84789520D01*
X127089329Y-84779030D01*
X127112428Y-84770765D01*
X127136227Y-84764804D01*
X127160495Y-84761204D01*
X127184999Y-84760000D01*
X128085001Y-84760000D01*
X128109505Y-84761204D01*
X128109505Y-84761204D01*
G37*
D13*
X127635000Y-85335000D03*
D12*
G36*
X128109505Y-86811204D02*
G01*
X128133773Y-86814804D01*
X128157572Y-86820765D01*
X128180671Y-86829030D01*
X128202850Y-86839520D01*
X128223893Y-86852132D01*
X128243599Y-86866747D01*
X128261777Y-86883223D01*
X128278253Y-86901401D01*
X128292868Y-86921107D01*
X128305480Y-86942150D01*
X128315970Y-86964329D01*
X128324235Y-86987428D01*
X128330196Y-87011227D01*
X128333796Y-87035495D01*
X128335000Y-87059999D01*
X128335000Y-87710001D01*
X128333796Y-87734505D01*
X128330196Y-87758773D01*
X128324235Y-87782572D01*
X128315970Y-87805671D01*
X128305480Y-87827850D01*
X128292868Y-87848893D01*
X128278253Y-87868599D01*
X128261777Y-87886777D01*
X128243599Y-87903253D01*
X128223893Y-87917868D01*
X128202850Y-87930480D01*
X128180671Y-87940970D01*
X128157572Y-87949235D01*
X128133773Y-87955196D01*
X128109505Y-87958796D01*
X128085001Y-87960000D01*
X127184999Y-87960000D01*
X127160495Y-87958796D01*
X127136227Y-87955196D01*
X127112428Y-87949235D01*
X127089329Y-87940970D01*
X127067150Y-87930480D01*
X127046107Y-87917868D01*
X127026401Y-87903253D01*
X127008223Y-87886777D01*
X126991747Y-87868599D01*
X126977132Y-87848893D01*
X126964520Y-87827850D01*
X126954030Y-87805671D01*
X126945765Y-87782572D01*
X126939804Y-87758773D01*
X126936204Y-87734505D01*
X126935000Y-87710001D01*
X126935000Y-87059999D01*
X126936204Y-87035495D01*
X126939804Y-87011227D01*
X126945765Y-86987428D01*
X126954030Y-86964329D01*
X126964520Y-86942150D01*
X126977132Y-86921107D01*
X126991747Y-86901401D01*
X127008223Y-86883223D01*
X127026401Y-86866747D01*
X127046107Y-86852132D01*
X127067150Y-86839520D01*
X127089329Y-86829030D01*
X127112428Y-86820765D01*
X127136227Y-86814804D01*
X127160495Y-86811204D01*
X127184999Y-86810000D01*
X128085001Y-86810000D01*
X128109505Y-86811204D01*
X128109505Y-86811204D01*
G37*
D13*
X127635000Y-87385000D03*
D14*
X133350000Y-75590000D03*
D15*
X133350000Y-81890000D03*
X135650000Y-81890000D03*
X131050000Y-81890000D03*
D12*
G36*
X125074900Y-100097658D02*
G01*
X125082181Y-100098738D01*
X125089320Y-100100526D01*
X125096250Y-100103006D01*
X125102904Y-100106153D01*
X125109217Y-100109937D01*
X125115128Y-100114321D01*
X125120582Y-100119264D01*
X125226648Y-100225330D01*
X125231591Y-100230784D01*
X125235975Y-100236695D01*
X125239759Y-100243008D01*
X125242906Y-100249662D01*
X125245386Y-100256592D01*
X125247174Y-100263731D01*
X125248254Y-100271012D01*
X125248615Y-100278363D01*
X125248254Y-100285714D01*
X125247174Y-100292995D01*
X125245386Y-100300134D01*
X125242906Y-100307064D01*
X125239759Y-100313718D01*
X125235975Y-100320031D01*
X125231591Y-100325942D01*
X125226648Y-100331396D01*
X124289732Y-101268312D01*
X124284278Y-101273255D01*
X124278367Y-101277639D01*
X124272054Y-101281423D01*
X124265400Y-101284570D01*
X124258470Y-101287050D01*
X124251331Y-101288838D01*
X124244050Y-101289918D01*
X124236699Y-101290279D01*
X124229348Y-101289918D01*
X124222067Y-101288838D01*
X124214928Y-101287050D01*
X124207998Y-101284570D01*
X124201344Y-101281423D01*
X124195031Y-101277639D01*
X124189120Y-101273255D01*
X124183666Y-101268312D01*
X124077600Y-101162246D01*
X124072657Y-101156792D01*
X124068273Y-101150881D01*
X124064489Y-101144568D01*
X124061342Y-101137914D01*
X124058862Y-101130984D01*
X124057074Y-101123845D01*
X124055994Y-101116564D01*
X124055633Y-101109213D01*
X124055994Y-101101862D01*
X124057074Y-101094581D01*
X124058862Y-101087442D01*
X124061342Y-101080512D01*
X124064489Y-101073858D01*
X124068273Y-101067545D01*
X124072657Y-101061634D01*
X124077600Y-101056180D01*
X125014516Y-100119264D01*
X125019970Y-100114321D01*
X125025881Y-100109937D01*
X125032194Y-100106153D01*
X125038848Y-100103006D01*
X125045778Y-100100526D01*
X125052917Y-100098738D01*
X125060198Y-100097658D01*
X125067549Y-100097297D01*
X125074900Y-100097658D01*
X125074900Y-100097658D01*
G37*
D16*
X124652124Y-100693788D03*
D12*
G36*
X125428454Y-100451212D02*
G01*
X125435735Y-100452292D01*
X125442874Y-100454080D01*
X125449804Y-100456560D01*
X125456458Y-100459707D01*
X125462771Y-100463491D01*
X125468682Y-100467875D01*
X125474136Y-100472818D01*
X125580202Y-100578884D01*
X125585145Y-100584338D01*
X125589529Y-100590249D01*
X125593313Y-100596562D01*
X125596460Y-100603216D01*
X125598940Y-100610146D01*
X125600728Y-100617285D01*
X125601808Y-100624566D01*
X125602169Y-100631917D01*
X125601808Y-100639268D01*
X125600728Y-100646549D01*
X125598940Y-100653688D01*
X125596460Y-100660618D01*
X125593313Y-100667272D01*
X125589529Y-100673585D01*
X125585145Y-100679496D01*
X125580202Y-100684950D01*
X124643286Y-101621866D01*
X124637832Y-101626809D01*
X124631921Y-101631193D01*
X124625608Y-101634977D01*
X124618954Y-101638124D01*
X124612024Y-101640604D01*
X124604885Y-101642392D01*
X124597604Y-101643472D01*
X124590253Y-101643833D01*
X124582902Y-101643472D01*
X124575621Y-101642392D01*
X124568482Y-101640604D01*
X124561552Y-101638124D01*
X124554898Y-101634977D01*
X124548585Y-101631193D01*
X124542674Y-101626809D01*
X124537220Y-101621866D01*
X124431154Y-101515800D01*
X124426211Y-101510346D01*
X124421827Y-101504435D01*
X124418043Y-101498122D01*
X124414896Y-101491468D01*
X124412416Y-101484538D01*
X124410628Y-101477399D01*
X124409548Y-101470118D01*
X124409187Y-101462767D01*
X124409548Y-101455416D01*
X124410628Y-101448135D01*
X124412416Y-101440996D01*
X124414896Y-101434066D01*
X124418043Y-101427412D01*
X124421827Y-101421099D01*
X124426211Y-101415188D01*
X124431154Y-101409734D01*
X125368070Y-100472818D01*
X125373524Y-100467875D01*
X125379435Y-100463491D01*
X125385748Y-100459707D01*
X125392402Y-100456560D01*
X125399332Y-100454080D01*
X125406471Y-100452292D01*
X125413752Y-100451212D01*
X125421103Y-100450851D01*
X125428454Y-100451212D01*
X125428454Y-100451212D01*
G37*
D16*
X125005678Y-101047342D03*
D12*
G36*
X125782007Y-100804765D02*
G01*
X125789288Y-100805845D01*
X125796427Y-100807633D01*
X125803357Y-100810113D01*
X125810011Y-100813260D01*
X125816324Y-100817044D01*
X125822235Y-100821428D01*
X125827689Y-100826371D01*
X125933755Y-100932437D01*
X125938698Y-100937891D01*
X125943082Y-100943802D01*
X125946866Y-100950115D01*
X125950013Y-100956769D01*
X125952493Y-100963699D01*
X125954281Y-100970838D01*
X125955361Y-100978119D01*
X125955722Y-100985470D01*
X125955361Y-100992821D01*
X125954281Y-101000102D01*
X125952493Y-101007241D01*
X125950013Y-101014171D01*
X125946866Y-101020825D01*
X125943082Y-101027138D01*
X125938698Y-101033049D01*
X125933755Y-101038503D01*
X124996839Y-101975419D01*
X124991385Y-101980362D01*
X124985474Y-101984746D01*
X124979161Y-101988530D01*
X124972507Y-101991677D01*
X124965577Y-101994157D01*
X124958438Y-101995945D01*
X124951157Y-101997025D01*
X124943806Y-101997386D01*
X124936455Y-101997025D01*
X124929174Y-101995945D01*
X124922035Y-101994157D01*
X124915105Y-101991677D01*
X124908451Y-101988530D01*
X124902138Y-101984746D01*
X124896227Y-101980362D01*
X124890773Y-101975419D01*
X124784707Y-101869353D01*
X124779764Y-101863899D01*
X124775380Y-101857988D01*
X124771596Y-101851675D01*
X124768449Y-101845021D01*
X124765969Y-101838091D01*
X124764181Y-101830952D01*
X124763101Y-101823671D01*
X124762740Y-101816320D01*
X124763101Y-101808969D01*
X124764181Y-101801688D01*
X124765969Y-101794549D01*
X124768449Y-101787619D01*
X124771596Y-101780965D01*
X124775380Y-101774652D01*
X124779764Y-101768741D01*
X124784707Y-101763287D01*
X125721623Y-100826371D01*
X125727077Y-100821428D01*
X125732988Y-100817044D01*
X125739301Y-100813260D01*
X125745955Y-100810113D01*
X125752885Y-100807633D01*
X125760024Y-100805845D01*
X125767305Y-100804765D01*
X125774656Y-100804404D01*
X125782007Y-100804765D01*
X125782007Y-100804765D01*
G37*
D16*
X125359231Y-101400895D03*
D12*
G36*
X126135561Y-101158319D02*
G01*
X126142842Y-101159399D01*
X126149981Y-101161187D01*
X126156911Y-101163667D01*
X126163565Y-101166814D01*
X126169878Y-101170598D01*
X126175789Y-101174982D01*
X126181243Y-101179925D01*
X126287309Y-101285991D01*
X126292252Y-101291445D01*
X126296636Y-101297356D01*
X126300420Y-101303669D01*
X126303567Y-101310323D01*
X126306047Y-101317253D01*
X126307835Y-101324392D01*
X126308915Y-101331673D01*
X126309276Y-101339024D01*
X126308915Y-101346375D01*
X126307835Y-101353656D01*
X126306047Y-101360795D01*
X126303567Y-101367725D01*
X126300420Y-101374379D01*
X126296636Y-101380692D01*
X126292252Y-101386603D01*
X126287309Y-101392057D01*
X125350393Y-102328973D01*
X125344939Y-102333916D01*
X125339028Y-102338300D01*
X125332715Y-102342084D01*
X125326061Y-102345231D01*
X125319131Y-102347711D01*
X125311992Y-102349499D01*
X125304711Y-102350579D01*
X125297360Y-102350940D01*
X125290009Y-102350579D01*
X125282728Y-102349499D01*
X125275589Y-102347711D01*
X125268659Y-102345231D01*
X125262005Y-102342084D01*
X125255692Y-102338300D01*
X125249781Y-102333916D01*
X125244327Y-102328973D01*
X125138261Y-102222907D01*
X125133318Y-102217453D01*
X125128934Y-102211542D01*
X125125150Y-102205229D01*
X125122003Y-102198575D01*
X125119523Y-102191645D01*
X125117735Y-102184506D01*
X125116655Y-102177225D01*
X125116294Y-102169874D01*
X125116655Y-102162523D01*
X125117735Y-102155242D01*
X125119523Y-102148103D01*
X125122003Y-102141173D01*
X125125150Y-102134519D01*
X125128934Y-102128206D01*
X125133318Y-102122295D01*
X125138261Y-102116841D01*
X126075177Y-101179925D01*
X126080631Y-101174982D01*
X126086542Y-101170598D01*
X126092855Y-101166814D01*
X126099509Y-101163667D01*
X126106439Y-101161187D01*
X126113578Y-101159399D01*
X126120859Y-101158319D01*
X126128210Y-101157958D01*
X126135561Y-101158319D01*
X126135561Y-101158319D01*
G37*
D16*
X125712785Y-101754449D03*
D12*
G36*
X126489114Y-101511872D02*
G01*
X126496395Y-101512952D01*
X126503534Y-101514740D01*
X126510464Y-101517220D01*
X126517118Y-101520367D01*
X126523431Y-101524151D01*
X126529342Y-101528535D01*
X126534796Y-101533478D01*
X126640862Y-101639544D01*
X126645805Y-101644998D01*
X126650189Y-101650909D01*
X126653973Y-101657222D01*
X126657120Y-101663876D01*
X126659600Y-101670806D01*
X126661388Y-101677945D01*
X126662468Y-101685226D01*
X126662829Y-101692577D01*
X126662468Y-101699928D01*
X126661388Y-101707209D01*
X126659600Y-101714348D01*
X126657120Y-101721278D01*
X126653973Y-101727932D01*
X126650189Y-101734245D01*
X126645805Y-101740156D01*
X126640862Y-101745610D01*
X125703946Y-102682526D01*
X125698492Y-102687469D01*
X125692581Y-102691853D01*
X125686268Y-102695637D01*
X125679614Y-102698784D01*
X125672684Y-102701264D01*
X125665545Y-102703052D01*
X125658264Y-102704132D01*
X125650913Y-102704493D01*
X125643562Y-102704132D01*
X125636281Y-102703052D01*
X125629142Y-102701264D01*
X125622212Y-102698784D01*
X125615558Y-102695637D01*
X125609245Y-102691853D01*
X125603334Y-102687469D01*
X125597880Y-102682526D01*
X125491814Y-102576460D01*
X125486871Y-102571006D01*
X125482487Y-102565095D01*
X125478703Y-102558782D01*
X125475556Y-102552128D01*
X125473076Y-102545198D01*
X125471288Y-102538059D01*
X125470208Y-102530778D01*
X125469847Y-102523427D01*
X125470208Y-102516076D01*
X125471288Y-102508795D01*
X125473076Y-102501656D01*
X125475556Y-102494726D01*
X125478703Y-102488072D01*
X125482487Y-102481759D01*
X125486871Y-102475848D01*
X125491814Y-102470394D01*
X126428730Y-101533478D01*
X126434184Y-101528535D01*
X126440095Y-101524151D01*
X126446408Y-101520367D01*
X126453062Y-101517220D01*
X126459992Y-101514740D01*
X126467131Y-101512952D01*
X126474412Y-101511872D01*
X126481763Y-101511511D01*
X126489114Y-101511872D01*
X126489114Y-101511872D01*
G37*
D16*
X126066338Y-102108002D03*
D12*
G36*
X126842667Y-101865425D02*
G01*
X126849948Y-101866505D01*
X126857087Y-101868293D01*
X126864017Y-101870773D01*
X126870671Y-101873920D01*
X126876984Y-101877704D01*
X126882895Y-101882088D01*
X126888349Y-101887031D01*
X126994415Y-101993097D01*
X126999358Y-101998551D01*
X127003742Y-102004462D01*
X127007526Y-102010775D01*
X127010673Y-102017429D01*
X127013153Y-102024359D01*
X127014941Y-102031498D01*
X127016021Y-102038779D01*
X127016382Y-102046130D01*
X127016021Y-102053481D01*
X127014941Y-102060762D01*
X127013153Y-102067901D01*
X127010673Y-102074831D01*
X127007526Y-102081485D01*
X127003742Y-102087798D01*
X126999358Y-102093709D01*
X126994415Y-102099163D01*
X126057499Y-103036079D01*
X126052045Y-103041022D01*
X126046134Y-103045406D01*
X126039821Y-103049190D01*
X126033167Y-103052337D01*
X126026237Y-103054817D01*
X126019098Y-103056605D01*
X126011817Y-103057685D01*
X126004466Y-103058046D01*
X125997115Y-103057685D01*
X125989834Y-103056605D01*
X125982695Y-103054817D01*
X125975765Y-103052337D01*
X125969111Y-103049190D01*
X125962798Y-103045406D01*
X125956887Y-103041022D01*
X125951433Y-103036079D01*
X125845367Y-102930013D01*
X125840424Y-102924559D01*
X125836040Y-102918648D01*
X125832256Y-102912335D01*
X125829109Y-102905681D01*
X125826629Y-102898751D01*
X125824841Y-102891612D01*
X125823761Y-102884331D01*
X125823400Y-102876980D01*
X125823761Y-102869629D01*
X125824841Y-102862348D01*
X125826629Y-102855209D01*
X125829109Y-102848279D01*
X125832256Y-102841625D01*
X125836040Y-102835312D01*
X125840424Y-102829401D01*
X125845367Y-102823947D01*
X126782283Y-101887031D01*
X126787737Y-101882088D01*
X126793648Y-101877704D01*
X126799961Y-101873920D01*
X126806615Y-101870773D01*
X126813545Y-101868293D01*
X126820684Y-101866505D01*
X126827965Y-101865425D01*
X126835316Y-101865064D01*
X126842667Y-101865425D01*
X126842667Y-101865425D01*
G37*
D16*
X126419891Y-102461555D03*
D12*
G36*
X127196221Y-102218979D02*
G01*
X127203502Y-102220059D01*
X127210641Y-102221847D01*
X127217571Y-102224327D01*
X127224225Y-102227474D01*
X127230538Y-102231258D01*
X127236449Y-102235642D01*
X127241903Y-102240585D01*
X127347969Y-102346651D01*
X127352912Y-102352105D01*
X127357296Y-102358016D01*
X127361080Y-102364329D01*
X127364227Y-102370983D01*
X127366707Y-102377913D01*
X127368495Y-102385052D01*
X127369575Y-102392333D01*
X127369936Y-102399684D01*
X127369575Y-102407035D01*
X127368495Y-102414316D01*
X127366707Y-102421455D01*
X127364227Y-102428385D01*
X127361080Y-102435039D01*
X127357296Y-102441352D01*
X127352912Y-102447263D01*
X127347969Y-102452717D01*
X126411053Y-103389633D01*
X126405599Y-103394576D01*
X126399688Y-103398960D01*
X126393375Y-103402744D01*
X126386721Y-103405891D01*
X126379791Y-103408371D01*
X126372652Y-103410159D01*
X126365371Y-103411239D01*
X126358020Y-103411600D01*
X126350669Y-103411239D01*
X126343388Y-103410159D01*
X126336249Y-103408371D01*
X126329319Y-103405891D01*
X126322665Y-103402744D01*
X126316352Y-103398960D01*
X126310441Y-103394576D01*
X126304987Y-103389633D01*
X126198921Y-103283567D01*
X126193978Y-103278113D01*
X126189594Y-103272202D01*
X126185810Y-103265889D01*
X126182663Y-103259235D01*
X126180183Y-103252305D01*
X126178395Y-103245166D01*
X126177315Y-103237885D01*
X126176954Y-103230534D01*
X126177315Y-103223183D01*
X126178395Y-103215902D01*
X126180183Y-103208763D01*
X126182663Y-103201833D01*
X126185810Y-103195179D01*
X126189594Y-103188866D01*
X126193978Y-103182955D01*
X126198921Y-103177501D01*
X127135837Y-102240585D01*
X127141291Y-102235642D01*
X127147202Y-102231258D01*
X127153515Y-102227474D01*
X127160169Y-102224327D01*
X127167099Y-102221847D01*
X127174238Y-102220059D01*
X127181519Y-102218979D01*
X127188870Y-102218618D01*
X127196221Y-102218979D01*
X127196221Y-102218979D01*
G37*
D16*
X126773445Y-102815109D03*
D12*
G36*
X127549774Y-102572532D02*
G01*
X127557055Y-102573612D01*
X127564194Y-102575400D01*
X127571124Y-102577880D01*
X127577778Y-102581027D01*
X127584091Y-102584811D01*
X127590002Y-102589195D01*
X127595456Y-102594138D01*
X127701522Y-102700204D01*
X127706465Y-102705658D01*
X127710849Y-102711569D01*
X127714633Y-102717882D01*
X127717780Y-102724536D01*
X127720260Y-102731466D01*
X127722048Y-102738605D01*
X127723128Y-102745886D01*
X127723489Y-102753237D01*
X127723128Y-102760588D01*
X127722048Y-102767869D01*
X127720260Y-102775008D01*
X127717780Y-102781938D01*
X127714633Y-102788592D01*
X127710849Y-102794905D01*
X127706465Y-102800816D01*
X127701522Y-102806270D01*
X126764606Y-103743186D01*
X126759152Y-103748129D01*
X126753241Y-103752513D01*
X126746928Y-103756297D01*
X126740274Y-103759444D01*
X126733344Y-103761924D01*
X126726205Y-103763712D01*
X126718924Y-103764792D01*
X126711573Y-103765153D01*
X126704222Y-103764792D01*
X126696941Y-103763712D01*
X126689802Y-103761924D01*
X126682872Y-103759444D01*
X126676218Y-103756297D01*
X126669905Y-103752513D01*
X126663994Y-103748129D01*
X126658540Y-103743186D01*
X126552474Y-103637120D01*
X126547531Y-103631666D01*
X126543147Y-103625755D01*
X126539363Y-103619442D01*
X126536216Y-103612788D01*
X126533736Y-103605858D01*
X126531948Y-103598719D01*
X126530868Y-103591438D01*
X126530507Y-103584087D01*
X126530868Y-103576736D01*
X126531948Y-103569455D01*
X126533736Y-103562316D01*
X126536216Y-103555386D01*
X126539363Y-103548732D01*
X126543147Y-103542419D01*
X126547531Y-103536508D01*
X126552474Y-103531054D01*
X127489390Y-102594138D01*
X127494844Y-102589195D01*
X127500755Y-102584811D01*
X127507068Y-102581027D01*
X127513722Y-102577880D01*
X127520652Y-102575400D01*
X127527791Y-102573612D01*
X127535072Y-102572532D01*
X127542423Y-102572171D01*
X127549774Y-102572532D01*
X127549774Y-102572532D01*
G37*
D16*
X127126998Y-103168662D03*
D12*
G36*
X127903327Y-102926085D02*
G01*
X127910608Y-102927165D01*
X127917747Y-102928953D01*
X127924677Y-102931433D01*
X127931331Y-102934580D01*
X127937644Y-102938364D01*
X127943555Y-102942748D01*
X127949009Y-102947691D01*
X128055075Y-103053757D01*
X128060018Y-103059211D01*
X128064402Y-103065122D01*
X128068186Y-103071435D01*
X128071333Y-103078089D01*
X128073813Y-103085019D01*
X128075601Y-103092158D01*
X128076681Y-103099439D01*
X128077042Y-103106790D01*
X128076681Y-103114141D01*
X128075601Y-103121422D01*
X128073813Y-103128561D01*
X128071333Y-103135491D01*
X128068186Y-103142145D01*
X128064402Y-103148458D01*
X128060018Y-103154369D01*
X128055075Y-103159823D01*
X127118159Y-104096739D01*
X127112705Y-104101682D01*
X127106794Y-104106066D01*
X127100481Y-104109850D01*
X127093827Y-104112997D01*
X127086897Y-104115477D01*
X127079758Y-104117265D01*
X127072477Y-104118345D01*
X127065126Y-104118706D01*
X127057775Y-104118345D01*
X127050494Y-104117265D01*
X127043355Y-104115477D01*
X127036425Y-104112997D01*
X127029771Y-104109850D01*
X127023458Y-104106066D01*
X127017547Y-104101682D01*
X127012093Y-104096739D01*
X126906027Y-103990673D01*
X126901084Y-103985219D01*
X126896700Y-103979308D01*
X126892916Y-103972995D01*
X126889769Y-103966341D01*
X126887289Y-103959411D01*
X126885501Y-103952272D01*
X126884421Y-103944991D01*
X126884060Y-103937640D01*
X126884421Y-103930289D01*
X126885501Y-103923008D01*
X126887289Y-103915869D01*
X126889769Y-103908939D01*
X126892916Y-103902285D01*
X126896700Y-103895972D01*
X126901084Y-103890061D01*
X126906027Y-103884607D01*
X127842943Y-102947691D01*
X127848397Y-102942748D01*
X127854308Y-102938364D01*
X127860621Y-102934580D01*
X127867275Y-102931433D01*
X127874205Y-102928953D01*
X127881344Y-102927165D01*
X127888625Y-102926085D01*
X127895976Y-102925724D01*
X127903327Y-102926085D01*
X127903327Y-102926085D01*
G37*
D16*
X127480551Y-103522215D03*
D12*
G36*
X128256881Y-103279639D02*
G01*
X128264162Y-103280719D01*
X128271301Y-103282507D01*
X128278231Y-103284987D01*
X128284885Y-103288134D01*
X128291198Y-103291918D01*
X128297109Y-103296302D01*
X128302563Y-103301245D01*
X128408629Y-103407311D01*
X128413572Y-103412765D01*
X128417956Y-103418676D01*
X128421740Y-103424989D01*
X128424887Y-103431643D01*
X128427367Y-103438573D01*
X128429155Y-103445712D01*
X128430235Y-103452993D01*
X128430596Y-103460344D01*
X128430235Y-103467695D01*
X128429155Y-103474976D01*
X128427367Y-103482115D01*
X128424887Y-103489045D01*
X128421740Y-103495699D01*
X128417956Y-103502012D01*
X128413572Y-103507923D01*
X128408629Y-103513377D01*
X127471713Y-104450293D01*
X127466259Y-104455236D01*
X127460348Y-104459620D01*
X127454035Y-104463404D01*
X127447381Y-104466551D01*
X127440451Y-104469031D01*
X127433312Y-104470819D01*
X127426031Y-104471899D01*
X127418680Y-104472260D01*
X127411329Y-104471899D01*
X127404048Y-104470819D01*
X127396909Y-104469031D01*
X127389979Y-104466551D01*
X127383325Y-104463404D01*
X127377012Y-104459620D01*
X127371101Y-104455236D01*
X127365647Y-104450293D01*
X127259581Y-104344227D01*
X127254638Y-104338773D01*
X127250254Y-104332862D01*
X127246470Y-104326549D01*
X127243323Y-104319895D01*
X127240843Y-104312965D01*
X127239055Y-104305826D01*
X127237975Y-104298545D01*
X127237614Y-104291194D01*
X127237975Y-104283843D01*
X127239055Y-104276562D01*
X127240843Y-104269423D01*
X127243323Y-104262493D01*
X127246470Y-104255839D01*
X127250254Y-104249526D01*
X127254638Y-104243615D01*
X127259581Y-104238161D01*
X128196497Y-103301245D01*
X128201951Y-103296302D01*
X128207862Y-103291918D01*
X128214175Y-103288134D01*
X128220829Y-103284987D01*
X128227759Y-103282507D01*
X128234898Y-103280719D01*
X128242179Y-103279639D01*
X128249530Y-103279278D01*
X128256881Y-103279639D01*
X128256881Y-103279639D01*
G37*
D16*
X127834105Y-103875769D03*
D12*
G36*
X128610434Y-103633192D02*
G01*
X128617715Y-103634272D01*
X128624854Y-103636060D01*
X128631784Y-103638540D01*
X128638438Y-103641687D01*
X128644751Y-103645471D01*
X128650662Y-103649855D01*
X128656116Y-103654798D01*
X128762182Y-103760864D01*
X128767125Y-103766318D01*
X128771509Y-103772229D01*
X128775293Y-103778542D01*
X128778440Y-103785196D01*
X128780920Y-103792126D01*
X128782708Y-103799265D01*
X128783788Y-103806546D01*
X128784149Y-103813897D01*
X128783788Y-103821248D01*
X128782708Y-103828529D01*
X128780920Y-103835668D01*
X128778440Y-103842598D01*
X128775293Y-103849252D01*
X128771509Y-103855565D01*
X128767125Y-103861476D01*
X128762182Y-103866930D01*
X127825266Y-104803846D01*
X127819812Y-104808789D01*
X127813901Y-104813173D01*
X127807588Y-104816957D01*
X127800934Y-104820104D01*
X127794004Y-104822584D01*
X127786865Y-104824372D01*
X127779584Y-104825452D01*
X127772233Y-104825813D01*
X127764882Y-104825452D01*
X127757601Y-104824372D01*
X127750462Y-104822584D01*
X127743532Y-104820104D01*
X127736878Y-104816957D01*
X127730565Y-104813173D01*
X127724654Y-104808789D01*
X127719200Y-104803846D01*
X127613134Y-104697780D01*
X127608191Y-104692326D01*
X127603807Y-104686415D01*
X127600023Y-104680102D01*
X127596876Y-104673448D01*
X127594396Y-104666518D01*
X127592608Y-104659379D01*
X127591528Y-104652098D01*
X127591167Y-104644747D01*
X127591528Y-104637396D01*
X127592608Y-104630115D01*
X127594396Y-104622976D01*
X127596876Y-104616046D01*
X127600023Y-104609392D01*
X127603807Y-104603079D01*
X127608191Y-104597168D01*
X127613134Y-104591714D01*
X128550050Y-103654798D01*
X128555504Y-103649855D01*
X128561415Y-103645471D01*
X128567728Y-103641687D01*
X128574382Y-103638540D01*
X128581312Y-103636060D01*
X128588451Y-103634272D01*
X128595732Y-103633192D01*
X128603083Y-103632831D01*
X128610434Y-103633192D01*
X128610434Y-103633192D01*
G37*
D16*
X128187658Y-104229322D03*
D12*
G36*
X128963988Y-103986746D02*
G01*
X128971269Y-103987826D01*
X128978408Y-103989614D01*
X128985338Y-103992094D01*
X128991992Y-103995241D01*
X128998305Y-103999025D01*
X129004216Y-104003409D01*
X129009670Y-104008352D01*
X129115736Y-104114418D01*
X129120679Y-104119872D01*
X129125063Y-104125783D01*
X129128847Y-104132096D01*
X129131994Y-104138750D01*
X129134474Y-104145680D01*
X129136262Y-104152819D01*
X129137342Y-104160100D01*
X129137703Y-104167451D01*
X129137342Y-104174802D01*
X129136262Y-104182083D01*
X129134474Y-104189222D01*
X129131994Y-104196152D01*
X129128847Y-104202806D01*
X129125063Y-104209119D01*
X129120679Y-104215030D01*
X129115736Y-104220484D01*
X128178820Y-105157400D01*
X128173366Y-105162343D01*
X128167455Y-105166727D01*
X128161142Y-105170511D01*
X128154488Y-105173658D01*
X128147558Y-105176138D01*
X128140419Y-105177926D01*
X128133138Y-105179006D01*
X128125787Y-105179367D01*
X128118436Y-105179006D01*
X128111155Y-105177926D01*
X128104016Y-105176138D01*
X128097086Y-105173658D01*
X128090432Y-105170511D01*
X128084119Y-105166727D01*
X128078208Y-105162343D01*
X128072754Y-105157400D01*
X127966688Y-105051334D01*
X127961745Y-105045880D01*
X127957361Y-105039969D01*
X127953577Y-105033656D01*
X127950430Y-105027002D01*
X127947950Y-105020072D01*
X127946162Y-105012933D01*
X127945082Y-105005652D01*
X127944721Y-104998301D01*
X127945082Y-104990950D01*
X127946162Y-104983669D01*
X127947950Y-104976530D01*
X127950430Y-104969600D01*
X127953577Y-104962946D01*
X127957361Y-104956633D01*
X127961745Y-104950722D01*
X127966688Y-104945268D01*
X128903604Y-104008352D01*
X128909058Y-104003409D01*
X128914969Y-103999025D01*
X128921282Y-103995241D01*
X128927936Y-103992094D01*
X128934866Y-103989614D01*
X128942005Y-103987826D01*
X128949286Y-103986746D01*
X128956637Y-103986385D01*
X128963988Y-103986746D01*
X128963988Y-103986746D01*
G37*
D16*
X128541212Y-104582876D03*
D12*
G36*
X130130714Y-103986746D02*
G01*
X130137995Y-103987826D01*
X130145134Y-103989614D01*
X130152064Y-103992094D01*
X130158718Y-103995241D01*
X130165031Y-103999025D01*
X130170942Y-104003409D01*
X130176396Y-104008352D01*
X131113312Y-104945268D01*
X131118255Y-104950722D01*
X131122639Y-104956633D01*
X131126423Y-104962946D01*
X131129570Y-104969600D01*
X131132050Y-104976530D01*
X131133838Y-104983669D01*
X131134918Y-104990950D01*
X131135279Y-104998301D01*
X131134918Y-105005652D01*
X131133838Y-105012933D01*
X131132050Y-105020072D01*
X131129570Y-105027002D01*
X131126423Y-105033656D01*
X131122639Y-105039969D01*
X131118255Y-105045880D01*
X131113312Y-105051334D01*
X131007246Y-105157400D01*
X131001792Y-105162343D01*
X130995881Y-105166727D01*
X130989568Y-105170511D01*
X130982914Y-105173658D01*
X130975984Y-105176138D01*
X130968845Y-105177926D01*
X130961564Y-105179006D01*
X130954213Y-105179367D01*
X130946862Y-105179006D01*
X130939581Y-105177926D01*
X130932442Y-105176138D01*
X130925512Y-105173658D01*
X130918858Y-105170511D01*
X130912545Y-105166727D01*
X130906634Y-105162343D01*
X130901180Y-105157400D01*
X129964264Y-104220484D01*
X129959321Y-104215030D01*
X129954937Y-104209119D01*
X129951153Y-104202806D01*
X129948006Y-104196152D01*
X129945526Y-104189222D01*
X129943738Y-104182083D01*
X129942658Y-104174802D01*
X129942297Y-104167451D01*
X129942658Y-104160100D01*
X129943738Y-104152819D01*
X129945526Y-104145680D01*
X129948006Y-104138750D01*
X129951153Y-104132096D01*
X129954937Y-104125783D01*
X129959321Y-104119872D01*
X129964264Y-104114418D01*
X130070330Y-104008352D01*
X130075784Y-104003409D01*
X130081695Y-103999025D01*
X130088008Y-103995241D01*
X130094662Y-103992094D01*
X130101592Y-103989614D01*
X130108731Y-103987826D01*
X130116012Y-103986746D01*
X130123363Y-103986385D01*
X130130714Y-103986746D01*
X130130714Y-103986746D01*
G37*
D16*
X130538788Y-104582876D03*
D12*
G36*
X130484268Y-103633192D02*
G01*
X130491549Y-103634272D01*
X130498688Y-103636060D01*
X130505618Y-103638540D01*
X130512272Y-103641687D01*
X130518585Y-103645471D01*
X130524496Y-103649855D01*
X130529950Y-103654798D01*
X131466866Y-104591714D01*
X131471809Y-104597168D01*
X131476193Y-104603079D01*
X131479977Y-104609392D01*
X131483124Y-104616046D01*
X131485604Y-104622976D01*
X131487392Y-104630115D01*
X131488472Y-104637396D01*
X131488833Y-104644747D01*
X131488472Y-104652098D01*
X131487392Y-104659379D01*
X131485604Y-104666518D01*
X131483124Y-104673448D01*
X131479977Y-104680102D01*
X131476193Y-104686415D01*
X131471809Y-104692326D01*
X131466866Y-104697780D01*
X131360800Y-104803846D01*
X131355346Y-104808789D01*
X131349435Y-104813173D01*
X131343122Y-104816957D01*
X131336468Y-104820104D01*
X131329538Y-104822584D01*
X131322399Y-104824372D01*
X131315118Y-104825452D01*
X131307767Y-104825813D01*
X131300416Y-104825452D01*
X131293135Y-104824372D01*
X131285996Y-104822584D01*
X131279066Y-104820104D01*
X131272412Y-104816957D01*
X131266099Y-104813173D01*
X131260188Y-104808789D01*
X131254734Y-104803846D01*
X130317818Y-103866930D01*
X130312875Y-103861476D01*
X130308491Y-103855565D01*
X130304707Y-103849252D01*
X130301560Y-103842598D01*
X130299080Y-103835668D01*
X130297292Y-103828529D01*
X130296212Y-103821248D01*
X130295851Y-103813897D01*
X130296212Y-103806546D01*
X130297292Y-103799265D01*
X130299080Y-103792126D01*
X130301560Y-103785196D01*
X130304707Y-103778542D01*
X130308491Y-103772229D01*
X130312875Y-103766318D01*
X130317818Y-103760864D01*
X130423884Y-103654798D01*
X130429338Y-103649855D01*
X130435249Y-103645471D01*
X130441562Y-103641687D01*
X130448216Y-103638540D01*
X130455146Y-103636060D01*
X130462285Y-103634272D01*
X130469566Y-103633192D01*
X130476917Y-103632831D01*
X130484268Y-103633192D01*
X130484268Y-103633192D01*
G37*
D16*
X130892342Y-104229322D03*
D12*
G36*
X130837821Y-103279639D02*
G01*
X130845102Y-103280719D01*
X130852241Y-103282507D01*
X130859171Y-103284987D01*
X130865825Y-103288134D01*
X130872138Y-103291918D01*
X130878049Y-103296302D01*
X130883503Y-103301245D01*
X131820419Y-104238161D01*
X131825362Y-104243615D01*
X131829746Y-104249526D01*
X131833530Y-104255839D01*
X131836677Y-104262493D01*
X131839157Y-104269423D01*
X131840945Y-104276562D01*
X131842025Y-104283843D01*
X131842386Y-104291194D01*
X131842025Y-104298545D01*
X131840945Y-104305826D01*
X131839157Y-104312965D01*
X131836677Y-104319895D01*
X131833530Y-104326549D01*
X131829746Y-104332862D01*
X131825362Y-104338773D01*
X131820419Y-104344227D01*
X131714353Y-104450293D01*
X131708899Y-104455236D01*
X131702988Y-104459620D01*
X131696675Y-104463404D01*
X131690021Y-104466551D01*
X131683091Y-104469031D01*
X131675952Y-104470819D01*
X131668671Y-104471899D01*
X131661320Y-104472260D01*
X131653969Y-104471899D01*
X131646688Y-104470819D01*
X131639549Y-104469031D01*
X131632619Y-104466551D01*
X131625965Y-104463404D01*
X131619652Y-104459620D01*
X131613741Y-104455236D01*
X131608287Y-104450293D01*
X130671371Y-103513377D01*
X130666428Y-103507923D01*
X130662044Y-103502012D01*
X130658260Y-103495699D01*
X130655113Y-103489045D01*
X130652633Y-103482115D01*
X130650845Y-103474976D01*
X130649765Y-103467695D01*
X130649404Y-103460344D01*
X130649765Y-103452993D01*
X130650845Y-103445712D01*
X130652633Y-103438573D01*
X130655113Y-103431643D01*
X130658260Y-103424989D01*
X130662044Y-103418676D01*
X130666428Y-103412765D01*
X130671371Y-103407311D01*
X130777437Y-103301245D01*
X130782891Y-103296302D01*
X130788802Y-103291918D01*
X130795115Y-103288134D01*
X130801769Y-103284987D01*
X130808699Y-103282507D01*
X130815838Y-103280719D01*
X130823119Y-103279639D01*
X130830470Y-103279278D01*
X130837821Y-103279639D01*
X130837821Y-103279639D01*
G37*
D16*
X131245895Y-103875769D03*
D12*
G36*
X131191375Y-102926085D02*
G01*
X131198656Y-102927165D01*
X131205795Y-102928953D01*
X131212725Y-102931433D01*
X131219379Y-102934580D01*
X131225692Y-102938364D01*
X131231603Y-102942748D01*
X131237057Y-102947691D01*
X132173973Y-103884607D01*
X132178916Y-103890061D01*
X132183300Y-103895972D01*
X132187084Y-103902285D01*
X132190231Y-103908939D01*
X132192711Y-103915869D01*
X132194499Y-103923008D01*
X132195579Y-103930289D01*
X132195940Y-103937640D01*
X132195579Y-103944991D01*
X132194499Y-103952272D01*
X132192711Y-103959411D01*
X132190231Y-103966341D01*
X132187084Y-103972995D01*
X132183300Y-103979308D01*
X132178916Y-103985219D01*
X132173973Y-103990673D01*
X132067907Y-104096739D01*
X132062453Y-104101682D01*
X132056542Y-104106066D01*
X132050229Y-104109850D01*
X132043575Y-104112997D01*
X132036645Y-104115477D01*
X132029506Y-104117265D01*
X132022225Y-104118345D01*
X132014874Y-104118706D01*
X132007523Y-104118345D01*
X132000242Y-104117265D01*
X131993103Y-104115477D01*
X131986173Y-104112997D01*
X131979519Y-104109850D01*
X131973206Y-104106066D01*
X131967295Y-104101682D01*
X131961841Y-104096739D01*
X131024925Y-103159823D01*
X131019982Y-103154369D01*
X131015598Y-103148458D01*
X131011814Y-103142145D01*
X131008667Y-103135491D01*
X131006187Y-103128561D01*
X131004399Y-103121422D01*
X131003319Y-103114141D01*
X131002958Y-103106790D01*
X131003319Y-103099439D01*
X131004399Y-103092158D01*
X131006187Y-103085019D01*
X131008667Y-103078089D01*
X131011814Y-103071435D01*
X131015598Y-103065122D01*
X131019982Y-103059211D01*
X131024925Y-103053757D01*
X131130991Y-102947691D01*
X131136445Y-102942748D01*
X131142356Y-102938364D01*
X131148669Y-102934580D01*
X131155323Y-102931433D01*
X131162253Y-102928953D01*
X131169392Y-102927165D01*
X131176673Y-102926085D01*
X131184024Y-102925724D01*
X131191375Y-102926085D01*
X131191375Y-102926085D01*
G37*
D16*
X131599449Y-103522215D03*
D12*
G36*
X131544928Y-102572532D02*
G01*
X131552209Y-102573612D01*
X131559348Y-102575400D01*
X131566278Y-102577880D01*
X131572932Y-102581027D01*
X131579245Y-102584811D01*
X131585156Y-102589195D01*
X131590610Y-102594138D01*
X132527526Y-103531054D01*
X132532469Y-103536508D01*
X132536853Y-103542419D01*
X132540637Y-103548732D01*
X132543784Y-103555386D01*
X132546264Y-103562316D01*
X132548052Y-103569455D01*
X132549132Y-103576736D01*
X132549493Y-103584087D01*
X132549132Y-103591438D01*
X132548052Y-103598719D01*
X132546264Y-103605858D01*
X132543784Y-103612788D01*
X132540637Y-103619442D01*
X132536853Y-103625755D01*
X132532469Y-103631666D01*
X132527526Y-103637120D01*
X132421460Y-103743186D01*
X132416006Y-103748129D01*
X132410095Y-103752513D01*
X132403782Y-103756297D01*
X132397128Y-103759444D01*
X132390198Y-103761924D01*
X132383059Y-103763712D01*
X132375778Y-103764792D01*
X132368427Y-103765153D01*
X132361076Y-103764792D01*
X132353795Y-103763712D01*
X132346656Y-103761924D01*
X132339726Y-103759444D01*
X132333072Y-103756297D01*
X132326759Y-103752513D01*
X132320848Y-103748129D01*
X132315394Y-103743186D01*
X131378478Y-102806270D01*
X131373535Y-102800816D01*
X131369151Y-102794905D01*
X131365367Y-102788592D01*
X131362220Y-102781938D01*
X131359740Y-102775008D01*
X131357952Y-102767869D01*
X131356872Y-102760588D01*
X131356511Y-102753237D01*
X131356872Y-102745886D01*
X131357952Y-102738605D01*
X131359740Y-102731466D01*
X131362220Y-102724536D01*
X131365367Y-102717882D01*
X131369151Y-102711569D01*
X131373535Y-102705658D01*
X131378478Y-102700204D01*
X131484544Y-102594138D01*
X131489998Y-102589195D01*
X131495909Y-102584811D01*
X131502222Y-102581027D01*
X131508876Y-102577880D01*
X131515806Y-102575400D01*
X131522945Y-102573612D01*
X131530226Y-102572532D01*
X131537577Y-102572171D01*
X131544928Y-102572532D01*
X131544928Y-102572532D01*
G37*
D16*
X131953002Y-103168662D03*
D12*
G36*
X131898481Y-102218979D02*
G01*
X131905762Y-102220059D01*
X131912901Y-102221847D01*
X131919831Y-102224327D01*
X131926485Y-102227474D01*
X131932798Y-102231258D01*
X131938709Y-102235642D01*
X131944163Y-102240585D01*
X132881079Y-103177501D01*
X132886022Y-103182955D01*
X132890406Y-103188866D01*
X132894190Y-103195179D01*
X132897337Y-103201833D01*
X132899817Y-103208763D01*
X132901605Y-103215902D01*
X132902685Y-103223183D01*
X132903046Y-103230534D01*
X132902685Y-103237885D01*
X132901605Y-103245166D01*
X132899817Y-103252305D01*
X132897337Y-103259235D01*
X132894190Y-103265889D01*
X132890406Y-103272202D01*
X132886022Y-103278113D01*
X132881079Y-103283567D01*
X132775013Y-103389633D01*
X132769559Y-103394576D01*
X132763648Y-103398960D01*
X132757335Y-103402744D01*
X132750681Y-103405891D01*
X132743751Y-103408371D01*
X132736612Y-103410159D01*
X132729331Y-103411239D01*
X132721980Y-103411600D01*
X132714629Y-103411239D01*
X132707348Y-103410159D01*
X132700209Y-103408371D01*
X132693279Y-103405891D01*
X132686625Y-103402744D01*
X132680312Y-103398960D01*
X132674401Y-103394576D01*
X132668947Y-103389633D01*
X131732031Y-102452717D01*
X131727088Y-102447263D01*
X131722704Y-102441352D01*
X131718920Y-102435039D01*
X131715773Y-102428385D01*
X131713293Y-102421455D01*
X131711505Y-102414316D01*
X131710425Y-102407035D01*
X131710064Y-102399684D01*
X131710425Y-102392333D01*
X131711505Y-102385052D01*
X131713293Y-102377913D01*
X131715773Y-102370983D01*
X131718920Y-102364329D01*
X131722704Y-102358016D01*
X131727088Y-102352105D01*
X131732031Y-102346651D01*
X131838097Y-102240585D01*
X131843551Y-102235642D01*
X131849462Y-102231258D01*
X131855775Y-102227474D01*
X131862429Y-102224327D01*
X131869359Y-102221847D01*
X131876498Y-102220059D01*
X131883779Y-102218979D01*
X131891130Y-102218618D01*
X131898481Y-102218979D01*
X131898481Y-102218979D01*
G37*
D16*
X132306555Y-102815109D03*
D12*
G36*
X132252035Y-101865425D02*
G01*
X132259316Y-101866505D01*
X132266455Y-101868293D01*
X132273385Y-101870773D01*
X132280039Y-101873920D01*
X132286352Y-101877704D01*
X132292263Y-101882088D01*
X132297717Y-101887031D01*
X133234633Y-102823947D01*
X133239576Y-102829401D01*
X133243960Y-102835312D01*
X133247744Y-102841625D01*
X133250891Y-102848279D01*
X133253371Y-102855209D01*
X133255159Y-102862348D01*
X133256239Y-102869629D01*
X133256600Y-102876980D01*
X133256239Y-102884331D01*
X133255159Y-102891612D01*
X133253371Y-102898751D01*
X133250891Y-102905681D01*
X133247744Y-102912335D01*
X133243960Y-102918648D01*
X133239576Y-102924559D01*
X133234633Y-102930013D01*
X133128567Y-103036079D01*
X133123113Y-103041022D01*
X133117202Y-103045406D01*
X133110889Y-103049190D01*
X133104235Y-103052337D01*
X133097305Y-103054817D01*
X133090166Y-103056605D01*
X133082885Y-103057685D01*
X133075534Y-103058046D01*
X133068183Y-103057685D01*
X133060902Y-103056605D01*
X133053763Y-103054817D01*
X133046833Y-103052337D01*
X133040179Y-103049190D01*
X133033866Y-103045406D01*
X133027955Y-103041022D01*
X133022501Y-103036079D01*
X132085585Y-102099163D01*
X132080642Y-102093709D01*
X132076258Y-102087798D01*
X132072474Y-102081485D01*
X132069327Y-102074831D01*
X132066847Y-102067901D01*
X132065059Y-102060762D01*
X132063979Y-102053481D01*
X132063618Y-102046130D01*
X132063979Y-102038779D01*
X132065059Y-102031498D01*
X132066847Y-102024359D01*
X132069327Y-102017429D01*
X132072474Y-102010775D01*
X132076258Y-102004462D01*
X132080642Y-101998551D01*
X132085585Y-101993097D01*
X132191651Y-101887031D01*
X132197105Y-101882088D01*
X132203016Y-101877704D01*
X132209329Y-101873920D01*
X132215983Y-101870773D01*
X132222913Y-101868293D01*
X132230052Y-101866505D01*
X132237333Y-101865425D01*
X132244684Y-101865064D01*
X132252035Y-101865425D01*
X132252035Y-101865425D01*
G37*
D16*
X132660109Y-102461555D03*
D12*
G36*
X132605588Y-101511872D02*
G01*
X132612869Y-101512952D01*
X132620008Y-101514740D01*
X132626938Y-101517220D01*
X132633592Y-101520367D01*
X132639905Y-101524151D01*
X132645816Y-101528535D01*
X132651270Y-101533478D01*
X133588186Y-102470394D01*
X133593129Y-102475848D01*
X133597513Y-102481759D01*
X133601297Y-102488072D01*
X133604444Y-102494726D01*
X133606924Y-102501656D01*
X133608712Y-102508795D01*
X133609792Y-102516076D01*
X133610153Y-102523427D01*
X133609792Y-102530778D01*
X133608712Y-102538059D01*
X133606924Y-102545198D01*
X133604444Y-102552128D01*
X133601297Y-102558782D01*
X133597513Y-102565095D01*
X133593129Y-102571006D01*
X133588186Y-102576460D01*
X133482120Y-102682526D01*
X133476666Y-102687469D01*
X133470755Y-102691853D01*
X133464442Y-102695637D01*
X133457788Y-102698784D01*
X133450858Y-102701264D01*
X133443719Y-102703052D01*
X133436438Y-102704132D01*
X133429087Y-102704493D01*
X133421736Y-102704132D01*
X133414455Y-102703052D01*
X133407316Y-102701264D01*
X133400386Y-102698784D01*
X133393732Y-102695637D01*
X133387419Y-102691853D01*
X133381508Y-102687469D01*
X133376054Y-102682526D01*
X132439138Y-101745610D01*
X132434195Y-101740156D01*
X132429811Y-101734245D01*
X132426027Y-101727932D01*
X132422880Y-101721278D01*
X132420400Y-101714348D01*
X132418612Y-101707209D01*
X132417532Y-101699928D01*
X132417171Y-101692577D01*
X132417532Y-101685226D01*
X132418612Y-101677945D01*
X132420400Y-101670806D01*
X132422880Y-101663876D01*
X132426027Y-101657222D01*
X132429811Y-101650909D01*
X132434195Y-101644998D01*
X132439138Y-101639544D01*
X132545204Y-101533478D01*
X132550658Y-101528535D01*
X132556569Y-101524151D01*
X132562882Y-101520367D01*
X132569536Y-101517220D01*
X132576466Y-101514740D01*
X132583605Y-101512952D01*
X132590886Y-101511872D01*
X132598237Y-101511511D01*
X132605588Y-101511872D01*
X132605588Y-101511872D01*
G37*
D16*
X133013662Y-102108002D03*
D12*
G36*
X132959141Y-101158319D02*
G01*
X132966422Y-101159399D01*
X132973561Y-101161187D01*
X132980491Y-101163667D01*
X132987145Y-101166814D01*
X132993458Y-101170598D01*
X132999369Y-101174982D01*
X133004823Y-101179925D01*
X133941739Y-102116841D01*
X133946682Y-102122295D01*
X133951066Y-102128206D01*
X133954850Y-102134519D01*
X133957997Y-102141173D01*
X133960477Y-102148103D01*
X133962265Y-102155242D01*
X133963345Y-102162523D01*
X133963706Y-102169874D01*
X133963345Y-102177225D01*
X133962265Y-102184506D01*
X133960477Y-102191645D01*
X133957997Y-102198575D01*
X133954850Y-102205229D01*
X133951066Y-102211542D01*
X133946682Y-102217453D01*
X133941739Y-102222907D01*
X133835673Y-102328973D01*
X133830219Y-102333916D01*
X133824308Y-102338300D01*
X133817995Y-102342084D01*
X133811341Y-102345231D01*
X133804411Y-102347711D01*
X133797272Y-102349499D01*
X133789991Y-102350579D01*
X133782640Y-102350940D01*
X133775289Y-102350579D01*
X133768008Y-102349499D01*
X133760869Y-102347711D01*
X133753939Y-102345231D01*
X133747285Y-102342084D01*
X133740972Y-102338300D01*
X133735061Y-102333916D01*
X133729607Y-102328973D01*
X132792691Y-101392057D01*
X132787748Y-101386603D01*
X132783364Y-101380692D01*
X132779580Y-101374379D01*
X132776433Y-101367725D01*
X132773953Y-101360795D01*
X132772165Y-101353656D01*
X132771085Y-101346375D01*
X132770724Y-101339024D01*
X132771085Y-101331673D01*
X132772165Y-101324392D01*
X132773953Y-101317253D01*
X132776433Y-101310323D01*
X132779580Y-101303669D01*
X132783364Y-101297356D01*
X132787748Y-101291445D01*
X132792691Y-101285991D01*
X132898757Y-101179925D01*
X132904211Y-101174982D01*
X132910122Y-101170598D01*
X132916435Y-101166814D01*
X132923089Y-101163667D01*
X132930019Y-101161187D01*
X132937158Y-101159399D01*
X132944439Y-101158319D01*
X132951790Y-101157958D01*
X132959141Y-101158319D01*
X132959141Y-101158319D01*
G37*
D16*
X133367215Y-101754449D03*
D12*
G36*
X133312695Y-100804765D02*
G01*
X133319976Y-100805845D01*
X133327115Y-100807633D01*
X133334045Y-100810113D01*
X133340699Y-100813260D01*
X133347012Y-100817044D01*
X133352923Y-100821428D01*
X133358377Y-100826371D01*
X134295293Y-101763287D01*
X134300236Y-101768741D01*
X134304620Y-101774652D01*
X134308404Y-101780965D01*
X134311551Y-101787619D01*
X134314031Y-101794549D01*
X134315819Y-101801688D01*
X134316899Y-101808969D01*
X134317260Y-101816320D01*
X134316899Y-101823671D01*
X134315819Y-101830952D01*
X134314031Y-101838091D01*
X134311551Y-101845021D01*
X134308404Y-101851675D01*
X134304620Y-101857988D01*
X134300236Y-101863899D01*
X134295293Y-101869353D01*
X134189227Y-101975419D01*
X134183773Y-101980362D01*
X134177862Y-101984746D01*
X134171549Y-101988530D01*
X134164895Y-101991677D01*
X134157965Y-101994157D01*
X134150826Y-101995945D01*
X134143545Y-101997025D01*
X134136194Y-101997386D01*
X134128843Y-101997025D01*
X134121562Y-101995945D01*
X134114423Y-101994157D01*
X134107493Y-101991677D01*
X134100839Y-101988530D01*
X134094526Y-101984746D01*
X134088615Y-101980362D01*
X134083161Y-101975419D01*
X133146245Y-101038503D01*
X133141302Y-101033049D01*
X133136918Y-101027138D01*
X133133134Y-101020825D01*
X133129987Y-101014171D01*
X133127507Y-101007241D01*
X133125719Y-101000102D01*
X133124639Y-100992821D01*
X133124278Y-100985470D01*
X133124639Y-100978119D01*
X133125719Y-100970838D01*
X133127507Y-100963699D01*
X133129987Y-100956769D01*
X133133134Y-100950115D01*
X133136918Y-100943802D01*
X133141302Y-100937891D01*
X133146245Y-100932437D01*
X133252311Y-100826371D01*
X133257765Y-100821428D01*
X133263676Y-100817044D01*
X133269989Y-100813260D01*
X133276643Y-100810113D01*
X133283573Y-100807633D01*
X133290712Y-100805845D01*
X133297993Y-100804765D01*
X133305344Y-100804404D01*
X133312695Y-100804765D01*
X133312695Y-100804765D01*
G37*
D16*
X133720769Y-101400895D03*
D12*
G36*
X133666248Y-100451212D02*
G01*
X133673529Y-100452292D01*
X133680668Y-100454080D01*
X133687598Y-100456560D01*
X133694252Y-100459707D01*
X133700565Y-100463491D01*
X133706476Y-100467875D01*
X133711930Y-100472818D01*
X134648846Y-101409734D01*
X134653789Y-101415188D01*
X134658173Y-101421099D01*
X134661957Y-101427412D01*
X134665104Y-101434066D01*
X134667584Y-101440996D01*
X134669372Y-101448135D01*
X134670452Y-101455416D01*
X134670813Y-101462767D01*
X134670452Y-101470118D01*
X134669372Y-101477399D01*
X134667584Y-101484538D01*
X134665104Y-101491468D01*
X134661957Y-101498122D01*
X134658173Y-101504435D01*
X134653789Y-101510346D01*
X134648846Y-101515800D01*
X134542780Y-101621866D01*
X134537326Y-101626809D01*
X134531415Y-101631193D01*
X134525102Y-101634977D01*
X134518448Y-101638124D01*
X134511518Y-101640604D01*
X134504379Y-101642392D01*
X134497098Y-101643472D01*
X134489747Y-101643833D01*
X134482396Y-101643472D01*
X134475115Y-101642392D01*
X134467976Y-101640604D01*
X134461046Y-101638124D01*
X134454392Y-101634977D01*
X134448079Y-101631193D01*
X134442168Y-101626809D01*
X134436714Y-101621866D01*
X133499798Y-100684950D01*
X133494855Y-100679496D01*
X133490471Y-100673585D01*
X133486687Y-100667272D01*
X133483540Y-100660618D01*
X133481060Y-100653688D01*
X133479272Y-100646549D01*
X133478192Y-100639268D01*
X133477831Y-100631917D01*
X133478192Y-100624566D01*
X133479272Y-100617285D01*
X133481060Y-100610146D01*
X133483540Y-100603216D01*
X133486687Y-100596562D01*
X133490471Y-100590249D01*
X133494855Y-100584338D01*
X133499798Y-100578884D01*
X133605864Y-100472818D01*
X133611318Y-100467875D01*
X133617229Y-100463491D01*
X133623542Y-100459707D01*
X133630196Y-100456560D01*
X133637126Y-100454080D01*
X133644265Y-100452292D01*
X133651546Y-100451212D01*
X133658897Y-100450851D01*
X133666248Y-100451212D01*
X133666248Y-100451212D01*
G37*
D16*
X134074322Y-101047342D03*
D12*
G36*
X134019802Y-100097658D02*
G01*
X134027083Y-100098738D01*
X134034222Y-100100526D01*
X134041152Y-100103006D01*
X134047806Y-100106153D01*
X134054119Y-100109937D01*
X134060030Y-100114321D01*
X134065484Y-100119264D01*
X135002400Y-101056180D01*
X135007343Y-101061634D01*
X135011727Y-101067545D01*
X135015511Y-101073858D01*
X135018658Y-101080512D01*
X135021138Y-101087442D01*
X135022926Y-101094581D01*
X135024006Y-101101862D01*
X135024367Y-101109213D01*
X135024006Y-101116564D01*
X135022926Y-101123845D01*
X135021138Y-101130984D01*
X135018658Y-101137914D01*
X135015511Y-101144568D01*
X135011727Y-101150881D01*
X135007343Y-101156792D01*
X135002400Y-101162246D01*
X134896334Y-101268312D01*
X134890880Y-101273255D01*
X134884969Y-101277639D01*
X134878656Y-101281423D01*
X134872002Y-101284570D01*
X134865072Y-101287050D01*
X134857933Y-101288838D01*
X134850652Y-101289918D01*
X134843301Y-101290279D01*
X134835950Y-101289918D01*
X134828669Y-101288838D01*
X134821530Y-101287050D01*
X134814600Y-101284570D01*
X134807946Y-101281423D01*
X134801633Y-101277639D01*
X134795722Y-101273255D01*
X134790268Y-101268312D01*
X133853352Y-100331396D01*
X133848409Y-100325942D01*
X133844025Y-100320031D01*
X133840241Y-100313718D01*
X133837094Y-100307064D01*
X133834614Y-100300134D01*
X133832826Y-100292995D01*
X133831746Y-100285714D01*
X133831385Y-100278363D01*
X133831746Y-100271012D01*
X133832826Y-100263731D01*
X133834614Y-100256592D01*
X133837094Y-100249662D01*
X133840241Y-100243008D01*
X133844025Y-100236695D01*
X133848409Y-100230784D01*
X133853352Y-100225330D01*
X133959418Y-100119264D01*
X133964872Y-100114321D01*
X133970783Y-100109937D01*
X133977096Y-100106153D01*
X133983750Y-100103006D01*
X133990680Y-100100526D01*
X133997819Y-100098738D01*
X134005100Y-100097658D01*
X134012451Y-100097297D01*
X134019802Y-100097658D01*
X134019802Y-100097658D01*
G37*
D16*
X134427876Y-100693788D03*
D12*
G36*
X134850652Y-98100082D02*
G01*
X134857933Y-98101162D01*
X134865072Y-98102950D01*
X134872002Y-98105430D01*
X134878656Y-98108577D01*
X134884969Y-98112361D01*
X134890880Y-98116745D01*
X134896334Y-98121688D01*
X135002400Y-98227754D01*
X135007343Y-98233208D01*
X135011727Y-98239119D01*
X135015511Y-98245432D01*
X135018658Y-98252086D01*
X135021138Y-98259016D01*
X135022926Y-98266155D01*
X135024006Y-98273436D01*
X135024367Y-98280787D01*
X135024006Y-98288138D01*
X135022926Y-98295419D01*
X135021138Y-98302558D01*
X135018658Y-98309488D01*
X135015511Y-98316142D01*
X135011727Y-98322455D01*
X135007343Y-98328366D01*
X135002400Y-98333820D01*
X134065484Y-99270736D01*
X134060030Y-99275679D01*
X134054119Y-99280063D01*
X134047806Y-99283847D01*
X134041152Y-99286994D01*
X134034222Y-99289474D01*
X134027083Y-99291262D01*
X134019802Y-99292342D01*
X134012451Y-99292703D01*
X134005100Y-99292342D01*
X133997819Y-99291262D01*
X133990680Y-99289474D01*
X133983750Y-99286994D01*
X133977096Y-99283847D01*
X133970783Y-99280063D01*
X133964872Y-99275679D01*
X133959418Y-99270736D01*
X133853352Y-99164670D01*
X133848409Y-99159216D01*
X133844025Y-99153305D01*
X133840241Y-99146992D01*
X133837094Y-99140338D01*
X133834614Y-99133408D01*
X133832826Y-99126269D01*
X133831746Y-99118988D01*
X133831385Y-99111637D01*
X133831746Y-99104286D01*
X133832826Y-99097005D01*
X133834614Y-99089866D01*
X133837094Y-99082936D01*
X133840241Y-99076282D01*
X133844025Y-99069969D01*
X133848409Y-99064058D01*
X133853352Y-99058604D01*
X134790268Y-98121688D01*
X134795722Y-98116745D01*
X134801633Y-98112361D01*
X134807946Y-98108577D01*
X134814600Y-98105430D01*
X134821530Y-98102950D01*
X134828669Y-98101162D01*
X134835950Y-98100082D01*
X134843301Y-98099721D01*
X134850652Y-98100082D01*
X134850652Y-98100082D01*
G37*
D16*
X134427876Y-98696212D03*
D12*
G36*
X134497098Y-97746528D02*
G01*
X134504379Y-97747608D01*
X134511518Y-97749396D01*
X134518448Y-97751876D01*
X134525102Y-97755023D01*
X134531415Y-97758807D01*
X134537326Y-97763191D01*
X134542780Y-97768134D01*
X134648846Y-97874200D01*
X134653789Y-97879654D01*
X134658173Y-97885565D01*
X134661957Y-97891878D01*
X134665104Y-97898532D01*
X134667584Y-97905462D01*
X134669372Y-97912601D01*
X134670452Y-97919882D01*
X134670813Y-97927233D01*
X134670452Y-97934584D01*
X134669372Y-97941865D01*
X134667584Y-97949004D01*
X134665104Y-97955934D01*
X134661957Y-97962588D01*
X134658173Y-97968901D01*
X134653789Y-97974812D01*
X134648846Y-97980266D01*
X133711930Y-98917182D01*
X133706476Y-98922125D01*
X133700565Y-98926509D01*
X133694252Y-98930293D01*
X133687598Y-98933440D01*
X133680668Y-98935920D01*
X133673529Y-98937708D01*
X133666248Y-98938788D01*
X133658897Y-98939149D01*
X133651546Y-98938788D01*
X133644265Y-98937708D01*
X133637126Y-98935920D01*
X133630196Y-98933440D01*
X133623542Y-98930293D01*
X133617229Y-98926509D01*
X133611318Y-98922125D01*
X133605864Y-98917182D01*
X133499798Y-98811116D01*
X133494855Y-98805662D01*
X133490471Y-98799751D01*
X133486687Y-98793438D01*
X133483540Y-98786784D01*
X133481060Y-98779854D01*
X133479272Y-98772715D01*
X133478192Y-98765434D01*
X133477831Y-98758083D01*
X133478192Y-98750732D01*
X133479272Y-98743451D01*
X133481060Y-98736312D01*
X133483540Y-98729382D01*
X133486687Y-98722728D01*
X133490471Y-98716415D01*
X133494855Y-98710504D01*
X133499798Y-98705050D01*
X134436714Y-97768134D01*
X134442168Y-97763191D01*
X134448079Y-97758807D01*
X134454392Y-97755023D01*
X134461046Y-97751876D01*
X134467976Y-97749396D01*
X134475115Y-97747608D01*
X134482396Y-97746528D01*
X134489747Y-97746167D01*
X134497098Y-97746528D01*
X134497098Y-97746528D01*
G37*
D16*
X134074322Y-98342658D03*
D12*
G36*
X134143545Y-97392975D02*
G01*
X134150826Y-97394055D01*
X134157965Y-97395843D01*
X134164895Y-97398323D01*
X134171549Y-97401470D01*
X134177862Y-97405254D01*
X134183773Y-97409638D01*
X134189227Y-97414581D01*
X134295293Y-97520647D01*
X134300236Y-97526101D01*
X134304620Y-97532012D01*
X134308404Y-97538325D01*
X134311551Y-97544979D01*
X134314031Y-97551909D01*
X134315819Y-97559048D01*
X134316899Y-97566329D01*
X134317260Y-97573680D01*
X134316899Y-97581031D01*
X134315819Y-97588312D01*
X134314031Y-97595451D01*
X134311551Y-97602381D01*
X134308404Y-97609035D01*
X134304620Y-97615348D01*
X134300236Y-97621259D01*
X134295293Y-97626713D01*
X133358377Y-98563629D01*
X133352923Y-98568572D01*
X133347012Y-98572956D01*
X133340699Y-98576740D01*
X133334045Y-98579887D01*
X133327115Y-98582367D01*
X133319976Y-98584155D01*
X133312695Y-98585235D01*
X133305344Y-98585596D01*
X133297993Y-98585235D01*
X133290712Y-98584155D01*
X133283573Y-98582367D01*
X133276643Y-98579887D01*
X133269989Y-98576740D01*
X133263676Y-98572956D01*
X133257765Y-98568572D01*
X133252311Y-98563629D01*
X133146245Y-98457563D01*
X133141302Y-98452109D01*
X133136918Y-98446198D01*
X133133134Y-98439885D01*
X133129987Y-98433231D01*
X133127507Y-98426301D01*
X133125719Y-98419162D01*
X133124639Y-98411881D01*
X133124278Y-98404530D01*
X133124639Y-98397179D01*
X133125719Y-98389898D01*
X133127507Y-98382759D01*
X133129987Y-98375829D01*
X133133134Y-98369175D01*
X133136918Y-98362862D01*
X133141302Y-98356951D01*
X133146245Y-98351497D01*
X134083161Y-97414581D01*
X134088615Y-97409638D01*
X134094526Y-97405254D01*
X134100839Y-97401470D01*
X134107493Y-97398323D01*
X134114423Y-97395843D01*
X134121562Y-97394055D01*
X134128843Y-97392975D01*
X134136194Y-97392614D01*
X134143545Y-97392975D01*
X134143545Y-97392975D01*
G37*
D16*
X133720769Y-97989105D03*
D12*
G36*
X133789991Y-97039421D02*
G01*
X133797272Y-97040501D01*
X133804411Y-97042289D01*
X133811341Y-97044769D01*
X133817995Y-97047916D01*
X133824308Y-97051700D01*
X133830219Y-97056084D01*
X133835673Y-97061027D01*
X133941739Y-97167093D01*
X133946682Y-97172547D01*
X133951066Y-97178458D01*
X133954850Y-97184771D01*
X133957997Y-97191425D01*
X133960477Y-97198355D01*
X133962265Y-97205494D01*
X133963345Y-97212775D01*
X133963706Y-97220126D01*
X133963345Y-97227477D01*
X133962265Y-97234758D01*
X133960477Y-97241897D01*
X133957997Y-97248827D01*
X133954850Y-97255481D01*
X133951066Y-97261794D01*
X133946682Y-97267705D01*
X133941739Y-97273159D01*
X133004823Y-98210075D01*
X132999369Y-98215018D01*
X132993458Y-98219402D01*
X132987145Y-98223186D01*
X132980491Y-98226333D01*
X132973561Y-98228813D01*
X132966422Y-98230601D01*
X132959141Y-98231681D01*
X132951790Y-98232042D01*
X132944439Y-98231681D01*
X132937158Y-98230601D01*
X132930019Y-98228813D01*
X132923089Y-98226333D01*
X132916435Y-98223186D01*
X132910122Y-98219402D01*
X132904211Y-98215018D01*
X132898757Y-98210075D01*
X132792691Y-98104009D01*
X132787748Y-98098555D01*
X132783364Y-98092644D01*
X132779580Y-98086331D01*
X132776433Y-98079677D01*
X132773953Y-98072747D01*
X132772165Y-98065608D01*
X132771085Y-98058327D01*
X132770724Y-98050976D01*
X132771085Y-98043625D01*
X132772165Y-98036344D01*
X132773953Y-98029205D01*
X132776433Y-98022275D01*
X132779580Y-98015621D01*
X132783364Y-98009308D01*
X132787748Y-98003397D01*
X132792691Y-97997943D01*
X133729607Y-97061027D01*
X133735061Y-97056084D01*
X133740972Y-97051700D01*
X133747285Y-97047916D01*
X133753939Y-97044769D01*
X133760869Y-97042289D01*
X133768008Y-97040501D01*
X133775289Y-97039421D01*
X133782640Y-97039060D01*
X133789991Y-97039421D01*
X133789991Y-97039421D01*
G37*
D16*
X133367215Y-97635551D03*
D12*
G36*
X133436438Y-96685868D02*
G01*
X133443719Y-96686948D01*
X133450858Y-96688736D01*
X133457788Y-96691216D01*
X133464442Y-96694363D01*
X133470755Y-96698147D01*
X133476666Y-96702531D01*
X133482120Y-96707474D01*
X133588186Y-96813540D01*
X133593129Y-96818994D01*
X133597513Y-96824905D01*
X133601297Y-96831218D01*
X133604444Y-96837872D01*
X133606924Y-96844802D01*
X133608712Y-96851941D01*
X133609792Y-96859222D01*
X133610153Y-96866573D01*
X133609792Y-96873924D01*
X133608712Y-96881205D01*
X133606924Y-96888344D01*
X133604444Y-96895274D01*
X133601297Y-96901928D01*
X133597513Y-96908241D01*
X133593129Y-96914152D01*
X133588186Y-96919606D01*
X132651270Y-97856522D01*
X132645816Y-97861465D01*
X132639905Y-97865849D01*
X132633592Y-97869633D01*
X132626938Y-97872780D01*
X132620008Y-97875260D01*
X132612869Y-97877048D01*
X132605588Y-97878128D01*
X132598237Y-97878489D01*
X132590886Y-97878128D01*
X132583605Y-97877048D01*
X132576466Y-97875260D01*
X132569536Y-97872780D01*
X132562882Y-97869633D01*
X132556569Y-97865849D01*
X132550658Y-97861465D01*
X132545204Y-97856522D01*
X132439138Y-97750456D01*
X132434195Y-97745002D01*
X132429811Y-97739091D01*
X132426027Y-97732778D01*
X132422880Y-97726124D01*
X132420400Y-97719194D01*
X132418612Y-97712055D01*
X132417532Y-97704774D01*
X132417171Y-97697423D01*
X132417532Y-97690072D01*
X132418612Y-97682791D01*
X132420400Y-97675652D01*
X132422880Y-97668722D01*
X132426027Y-97662068D01*
X132429811Y-97655755D01*
X132434195Y-97649844D01*
X132439138Y-97644390D01*
X133376054Y-96707474D01*
X133381508Y-96702531D01*
X133387419Y-96698147D01*
X133393732Y-96694363D01*
X133400386Y-96691216D01*
X133407316Y-96688736D01*
X133414455Y-96686948D01*
X133421736Y-96685868D01*
X133429087Y-96685507D01*
X133436438Y-96685868D01*
X133436438Y-96685868D01*
G37*
D16*
X133013662Y-97281998D03*
D12*
G36*
X133082885Y-96332315D02*
G01*
X133090166Y-96333395D01*
X133097305Y-96335183D01*
X133104235Y-96337663D01*
X133110889Y-96340810D01*
X133117202Y-96344594D01*
X133123113Y-96348978D01*
X133128567Y-96353921D01*
X133234633Y-96459987D01*
X133239576Y-96465441D01*
X133243960Y-96471352D01*
X133247744Y-96477665D01*
X133250891Y-96484319D01*
X133253371Y-96491249D01*
X133255159Y-96498388D01*
X133256239Y-96505669D01*
X133256600Y-96513020D01*
X133256239Y-96520371D01*
X133255159Y-96527652D01*
X133253371Y-96534791D01*
X133250891Y-96541721D01*
X133247744Y-96548375D01*
X133243960Y-96554688D01*
X133239576Y-96560599D01*
X133234633Y-96566053D01*
X132297717Y-97502969D01*
X132292263Y-97507912D01*
X132286352Y-97512296D01*
X132280039Y-97516080D01*
X132273385Y-97519227D01*
X132266455Y-97521707D01*
X132259316Y-97523495D01*
X132252035Y-97524575D01*
X132244684Y-97524936D01*
X132237333Y-97524575D01*
X132230052Y-97523495D01*
X132222913Y-97521707D01*
X132215983Y-97519227D01*
X132209329Y-97516080D01*
X132203016Y-97512296D01*
X132197105Y-97507912D01*
X132191651Y-97502969D01*
X132085585Y-97396903D01*
X132080642Y-97391449D01*
X132076258Y-97385538D01*
X132072474Y-97379225D01*
X132069327Y-97372571D01*
X132066847Y-97365641D01*
X132065059Y-97358502D01*
X132063979Y-97351221D01*
X132063618Y-97343870D01*
X132063979Y-97336519D01*
X132065059Y-97329238D01*
X132066847Y-97322099D01*
X132069327Y-97315169D01*
X132072474Y-97308515D01*
X132076258Y-97302202D01*
X132080642Y-97296291D01*
X132085585Y-97290837D01*
X133022501Y-96353921D01*
X133027955Y-96348978D01*
X133033866Y-96344594D01*
X133040179Y-96340810D01*
X133046833Y-96337663D01*
X133053763Y-96335183D01*
X133060902Y-96333395D01*
X133068183Y-96332315D01*
X133075534Y-96331954D01*
X133082885Y-96332315D01*
X133082885Y-96332315D01*
G37*
D16*
X132660109Y-96928445D03*
D12*
G36*
X132729331Y-95978761D02*
G01*
X132736612Y-95979841D01*
X132743751Y-95981629D01*
X132750681Y-95984109D01*
X132757335Y-95987256D01*
X132763648Y-95991040D01*
X132769559Y-95995424D01*
X132775013Y-96000367D01*
X132881079Y-96106433D01*
X132886022Y-96111887D01*
X132890406Y-96117798D01*
X132894190Y-96124111D01*
X132897337Y-96130765D01*
X132899817Y-96137695D01*
X132901605Y-96144834D01*
X132902685Y-96152115D01*
X132903046Y-96159466D01*
X132902685Y-96166817D01*
X132901605Y-96174098D01*
X132899817Y-96181237D01*
X132897337Y-96188167D01*
X132894190Y-96194821D01*
X132890406Y-96201134D01*
X132886022Y-96207045D01*
X132881079Y-96212499D01*
X131944163Y-97149415D01*
X131938709Y-97154358D01*
X131932798Y-97158742D01*
X131926485Y-97162526D01*
X131919831Y-97165673D01*
X131912901Y-97168153D01*
X131905762Y-97169941D01*
X131898481Y-97171021D01*
X131891130Y-97171382D01*
X131883779Y-97171021D01*
X131876498Y-97169941D01*
X131869359Y-97168153D01*
X131862429Y-97165673D01*
X131855775Y-97162526D01*
X131849462Y-97158742D01*
X131843551Y-97154358D01*
X131838097Y-97149415D01*
X131732031Y-97043349D01*
X131727088Y-97037895D01*
X131722704Y-97031984D01*
X131718920Y-97025671D01*
X131715773Y-97019017D01*
X131713293Y-97012087D01*
X131711505Y-97004948D01*
X131710425Y-96997667D01*
X131710064Y-96990316D01*
X131710425Y-96982965D01*
X131711505Y-96975684D01*
X131713293Y-96968545D01*
X131715773Y-96961615D01*
X131718920Y-96954961D01*
X131722704Y-96948648D01*
X131727088Y-96942737D01*
X131732031Y-96937283D01*
X132668947Y-96000367D01*
X132674401Y-95995424D01*
X132680312Y-95991040D01*
X132686625Y-95987256D01*
X132693279Y-95984109D01*
X132700209Y-95981629D01*
X132707348Y-95979841D01*
X132714629Y-95978761D01*
X132721980Y-95978400D01*
X132729331Y-95978761D01*
X132729331Y-95978761D01*
G37*
D16*
X132306555Y-96574891D03*
D12*
G36*
X132375778Y-95625208D02*
G01*
X132383059Y-95626288D01*
X132390198Y-95628076D01*
X132397128Y-95630556D01*
X132403782Y-95633703D01*
X132410095Y-95637487D01*
X132416006Y-95641871D01*
X132421460Y-95646814D01*
X132527526Y-95752880D01*
X132532469Y-95758334D01*
X132536853Y-95764245D01*
X132540637Y-95770558D01*
X132543784Y-95777212D01*
X132546264Y-95784142D01*
X132548052Y-95791281D01*
X132549132Y-95798562D01*
X132549493Y-95805913D01*
X132549132Y-95813264D01*
X132548052Y-95820545D01*
X132546264Y-95827684D01*
X132543784Y-95834614D01*
X132540637Y-95841268D01*
X132536853Y-95847581D01*
X132532469Y-95853492D01*
X132527526Y-95858946D01*
X131590610Y-96795862D01*
X131585156Y-96800805D01*
X131579245Y-96805189D01*
X131572932Y-96808973D01*
X131566278Y-96812120D01*
X131559348Y-96814600D01*
X131552209Y-96816388D01*
X131544928Y-96817468D01*
X131537577Y-96817829D01*
X131530226Y-96817468D01*
X131522945Y-96816388D01*
X131515806Y-96814600D01*
X131508876Y-96812120D01*
X131502222Y-96808973D01*
X131495909Y-96805189D01*
X131489998Y-96800805D01*
X131484544Y-96795862D01*
X131378478Y-96689796D01*
X131373535Y-96684342D01*
X131369151Y-96678431D01*
X131365367Y-96672118D01*
X131362220Y-96665464D01*
X131359740Y-96658534D01*
X131357952Y-96651395D01*
X131356872Y-96644114D01*
X131356511Y-96636763D01*
X131356872Y-96629412D01*
X131357952Y-96622131D01*
X131359740Y-96614992D01*
X131362220Y-96608062D01*
X131365367Y-96601408D01*
X131369151Y-96595095D01*
X131373535Y-96589184D01*
X131378478Y-96583730D01*
X132315394Y-95646814D01*
X132320848Y-95641871D01*
X132326759Y-95637487D01*
X132333072Y-95633703D01*
X132339726Y-95630556D01*
X132346656Y-95628076D01*
X132353795Y-95626288D01*
X132361076Y-95625208D01*
X132368427Y-95624847D01*
X132375778Y-95625208D01*
X132375778Y-95625208D01*
G37*
D16*
X131953002Y-96221338D03*
D12*
G36*
X132022225Y-95271655D02*
G01*
X132029506Y-95272735D01*
X132036645Y-95274523D01*
X132043575Y-95277003D01*
X132050229Y-95280150D01*
X132056542Y-95283934D01*
X132062453Y-95288318D01*
X132067907Y-95293261D01*
X132173973Y-95399327D01*
X132178916Y-95404781D01*
X132183300Y-95410692D01*
X132187084Y-95417005D01*
X132190231Y-95423659D01*
X132192711Y-95430589D01*
X132194499Y-95437728D01*
X132195579Y-95445009D01*
X132195940Y-95452360D01*
X132195579Y-95459711D01*
X132194499Y-95466992D01*
X132192711Y-95474131D01*
X132190231Y-95481061D01*
X132187084Y-95487715D01*
X132183300Y-95494028D01*
X132178916Y-95499939D01*
X132173973Y-95505393D01*
X131237057Y-96442309D01*
X131231603Y-96447252D01*
X131225692Y-96451636D01*
X131219379Y-96455420D01*
X131212725Y-96458567D01*
X131205795Y-96461047D01*
X131198656Y-96462835D01*
X131191375Y-96463915D01*
X131184024Y-96464276D01*
X131176673Y-96463915D01*
X131169392Y-96462835D01*
X131162253Y-96461047D01*
X131155323Y-96458567D01*
X131148669Y-96455420D01*
X131142356Y-96451636D01*
X131136445Y-96447252D01*
X131130991Y-96442309D01*
X131024925Y-96336243D01*
X131019982Y-96330789D01*
X131015598Y-96324878D01*
X131011814Y-96318565D01*
X131008667Y-96311911D01*
X131006187Y-96304981D01*
X131004399Y-96297842D01*
X131003319Y-96290561D01*
X131002958Y-96283210D01*
X131003319Y-96275859D01*
X131004399Y-96268578D01*
X131006187Y-96261439D01*
X131008667Y-96254509D01*
X131011814Y-96247855D01*
X131015598Y-96241542D01*
X131019982Y-96235631D01*
X131024925Y-96230177D01*
X131961841Y-95293261D01*
X131967295Y-95288318D01*
X131973206Y-95283934D01*
X131979519Y-95280150D01*
X131986173Y-95277003D01*
X131993103Y-95274523D01*
X132000242Y-95272735D01*
X132007523Y-95271655D01*
X132014874Y-95271294D01*
X132022225Y-95271655D01*
X132022225Y-95271655D01*
G37*
D16*
X131599449Y-95867785D03*
D12*
G36*
X131668671Y-94918101D02*
G01*
X131675952Y-94919181D01*
X131683091Y-94920969D01*
X131690021Y-94923449D01*
X131696675Y-94926596D01*
X131702988Y-94930380D01*
X131708899Y-94934764D01*
X131714353Y-94939707D01*
X131820419Y-95045773D01*
X131825362Y-95051227D01*
X131829746Y-95057138D01*
X131833530Y-95063451D01*
X131836677Y-95070105D01*
X131839157Y-95077035D01*
X131840945Y-95084174D01*
X131842025Y-95091455D01*
X131842386Y-95098806D01*
X131842025Y-95106157D01*
X131840945Y-95113438D01*
X131839157Y-95120577D01*
X131836677Y-95127507D01*
X131833530Y-95134161D01*
X131829746Y-95140474D01*
X131825362Y-95146385D01*
X131820419Y-95151839D01*
X130883503Y-96088755D01*
X130878049Y-96093698D01*
X130872138Y-96098082D01*
X130865825Y-96101866D01*
X130859171Y-96105013D01*
X130852241Y-96107493D01*
X130845102Y-96109281D01*
X130837821Y-96110361D01*
X130830470Y-96110722D01*
X130823119Y-96110361D01*
X130815838Y-96109281D01*
X130808699Y-96107493D01*
X130801769Y-96105013D01*
X130795115Y-96101866D01*
X130788802Y-96098082D01*
X130782891Y-96093698D01*
X130777437Y-96088755D01*
X130671371Y-95982689D01*
X130666428Y-95977235D01*
X130662044Y-95971324D01*
X130658260Y-95965011D01*
X130655113Y-95958357D01*
X130652633Y-95951427D01*
X130650845Y-95944288D01*
X130649765Y-95937007D01*
X130649404Y-95929656D01*
X130649765Y-95922305D01*
X130650845Y-95915024D01*
X130652633Y-95907885D01*
X130655113Y-95900955D01*
X130658260Y-95894301D01*
X130662044Y-95887988D01*
X130666428Y-95882077D01*
X130671371Y-95876623D01*
X131608287Y-94939707D01*
X131613741Y-94934764D01*
X131619652Y-94930380D01*
X131625965Y-94926596D01*
X131632619Y-94923449D01*
X131639549Y-94920969D01*
X131646688Y-94919181D01*
X131653969Y-94918101D01*
X131661320Y-94917740D01*
X131668671Y-94918101D01*
X131668671Y-94918101D01*
G37*
D16*
X131245895Y-95514231D03*
D12*
G36*
X131315118Y-94564548D02*
G01*
X131322399Y-94565628D01*
X131329538Y-94567416D01*
X131336468Y-94569896D01*
X131343122Y-94573043D01*
X131349435Y-94576827D01*
X131355346Y-94581211D01*
X131360800Y-94586154D01*
X131466866Y-94692220D01*
X131471809Y-94697674D01*
X131476193Y-94703585D01*
X131479977Y-94709898D01*
X131483124Y-94716552D01*
X131485604Y-94723482D01*
X131487392Y-94730621D01*
X131488472Y-94737902D01*
X131488833Y-94745253D01*
X131488472Y-94752604D01*
X131487392Y-94759885D01*
X131485604Y-94767024D01*
X131483124Y-94773954D01*
X131479977Y-94780608D01*
X131476193Y-94786921D01*
X131471809Y-94792832D01*
X131466866Y-94798286D01*
X130529950Y-95735202D01*
X130524496Y-95740145D01*
X130518585Y-95744529D01*
X130512272Y-95748313D01*
X130505618Y-95751460D01*
X130498688Y-95753940D01*
X130491549Y-95755728D01*
X130484268Y-95756808D01*
X130476917Y-95757169D01*
X130469566Y-95756808D01*
X130462285Y-95755728D01*
X130455146Y-95753940D01*
X130448216Y-95751460D01*
X130441562Y-95748313D01*
X130435249Y-95744529D01*
X130429338Y-95740145D01*
X130423884Y-95735202D01*
X130317818Y-95629136D01*
X130312875Y-95623682D01*
X130308491Y-95617771D01*
X130304707Y-95611458D01*
X130301560Y-95604804D01*
X130299080Y-95597874D01*
X130297292Y-95590735D01*
X130296212Y-95583454D01*
X130295851Y-95576103D01*
X130296212Y-95568752D01*
X130297292Y-95561471D01*
X130299080Y-95554332D01*
X130301560Y-95547402D01*
X130304707Y-95540748D01*
X130308491Y-95534435D01*
X130312875Y-95528524D01*
X130317818Y-95523070D01*
X131254734Y-94586154D01*
X131260188Y-94581211D01*
X131266099Y-94576827D01*
X131272412Y-94573043D01*
X131279066Y-94569896D01*
X131285996Y-94567416D01*
X131293135Y-94565628D01*
X131300416Y-94564548D01*
X131307767Y-94564187D01*
X131315118Y-94564548D01*
X131315118Y-94564548D01*
G37*
D16*
X130892342Y-95160678D03*
D12*
G36*
X130961564Y-94210994D02*
G01*
X130968845Y-94212074D01*
X130975984Y-94213862D01*
X130982914Y-94216342D01*
X130989568Y-94219489D01*
X130995881Y-94223273D01*
X131001792Y-94227657D01*
X131007246Y-94232600D01*
X131113312Y-94338666D01*
X131118255Y-94344120D01*
X131122639Y-94350031D01*
X131126423Y-94356344D01*
X131129570Y-94362998D01*
X131132050Y-94369928D01*
X131133838Y-94377067D01*
X131134918Y-94384348D01*
X131135279Y-94391699D01*
X131134918Y-94399050D01*
X131133838Y-94406331D01*
X131132050Y-94413470D01*
X131129570Y-94420400D01*
X131126423Y-94427054D01*
X131122639Y-94433367D01*
X131118255Y-94439278D01*
X131113312Y-94444732D01*
X130176396Y-95381648D01*
X130170942Y-95386591D01*
X130165031Y-95390975D01*
X130158718Y-95394759D01*
X130152064Y-95397906D01*
X130145134Y-95400386D01*
X130137995Y-95402174D01*
X130130714Y-95403254D01*
X130123363Y-95403615D01*
X130116012Y-95403254D01*
X130108731Y-95402174D01*
X130101592Y-95400386D01*
X130094662Y-95397906D01*
X130088008Y-95394759D01*
X130081695Y-95390975D01*
X130075784Y-95386591D01*
X130070330Y-95381648D01*
X129964264Y-95275582D01*
X129959321Y-95270128D01*
X129954937Y-95264217D01*
X129951153Y-95257904D01*
X129948006Y-95251250D01*
X129945526Y-95244320D01*
X129943738Y-95237181D01*
X129942658Y-95229900D01*
X129942297Y-95222549D01*
X129942658Y-95215198D01*
X129943738Y-95207917D01*
X129945526Y-95200778D01*
X129948006Y-95193848D01*
X129951153Y-95187194D01*
X129954937Y-95180881D01*
X129959321Y-95174970D01*
X129964264Y-95169516D01*
X130901180Y-94232600D01*
X130906634Y-94227657D01*
X130912545Y-94223273D01*
X130918858Y-94219489D01*
X130925512Y-94216342D01*
X130932442Y-94213862D01*
X130939581Y-94212074D01*
X130946862Y-94210994D01*
X130954213Y-94210633D01*
X130961564Y-94210994D01*
X130961564Y-94210994D01*
G37*
D16*
X130538788Y-94807124D03*
D12*
G36*
X128133138Y-94210994D02*
G01*
X128140419Y-94212074D01*
X128147558Y-94213862D01*
X128154488Y-94216342D01*
X128161142Y-94219489D01*
X128167455Y-94223273D01*
X128173366Y-94227657D01*
X128178820Y-94232600D01*
X129115736Y-95169516D01*
X129120679Y-95174970D01*
X129125063Y-95180881D01*
X129128847Y-95187194D01*
X129131994Y-95193848D01*
X129134474Y-95200778D01*
X129136262Y-95207917D01*
X129137342Y-95215198D01*
X129137703Y-95222549D01*
X129137342Y-95229900D01*
X129136262Y-95237181D01*
X129134474Y-95244320D01*
X129131994Y-95251250D01*
X129128847Y-95257904D01*
X129125063Y-95264217D01*
X129120679Y-95270128D01*
X129115736Y-95275582D01*
X129009670Y-95381648D01*
X129004216Y-95386591D01*
X128998305Y-95390975D01*
X128991992Y-95394759D01*
X128985338Y-95397906D01*
X128978408Y-95400386D01*
X128971269Y-95402174D01*
X128963988Y-95403254D01*
X128956637Y-95403615D01*
X128949286Y-95403254D01*
X128942005Y-95402174D01*
X128934866Y-95400386D01*
X128927936Y-95397906D01*
X128921282Y-95394759D01*
X128914969Y-95390975D01*
X128909058Y-95386591D01*
X128903604Y-95381648D01*
X127966688Y-94444732D01*
X127961745Y-94439278D01*
X127957361Y-94433367D01*
X127953577Y-94427054D01*
X127950430Y-94420400D01*
X127947950Y-94413470D01*
X127946162Y-94406331D01*
X127945082Y-94399050D01*
X127944721Y-94391699D01*
X127945082Y-94384348D01*
X127946162Y-94377067D01*
X127947950Y-94369928D01*
X127950430Y-94362998D01*
X127953577Y-94356344D01*
X127957361Y-94350031D01*
X127961745Y-94344120D01*
X127966688Y-94338666D01*
X128072754Y-94232600D01*
X128078208Y-94227657D01*
X128084119Y-94223273D01*
X128090432Y-94219489D01*
X128097086Y-94216342D01*
X128104016Y-94213862D01*
X128111155Y-94212074D01*
X128118436Y-94210994D01*
X128125787Y-94210633D01*
X128133138Y-94210994D01*
X128133138Y-94210994D01*
G37*
D16*
X128541212Y-94807124D03*
D12*
G36*
X127779584Y-94564548D02*
G01*
X127786865Y-94565628D01*
X127794004Y-94567416D01*
X127800934Y-94569896D01*
X127807588Y-94573043D01*
X127813901Y-94576827D01*
X127819812Y-94581211D01*
X127825266Y-94586154D01*
X128762182Y-95523070D01*
X128767125Y-95528524D01*
X128771509Y-95534435D01*
X128775293Y-95540748D01*
X128778440Y-95547402D01*
X128780920Y-95554332D01*
X128782708Y-95561471D01*
X128783788Y-95568752D01*
X128784149Y-95576103D01*
X128783788Y-95583454D01*
X128782708Y-95590735D01*
X128780920Y-95597874D01*
X128778440Y-95604804D01*
X128775293Y-95611458D01*
X128771509Y-95617771D01*
X128767125Y-95623682D01*
X128762182Y-95629136D01*
X128656116Y-95735202D01*
X128650662Y-95740145D01*
X128644751Y-95744529D01*
X128638438Y-95748313D01*
X128631784Y-95751460D01*
X128624854Y-95753940D01*
X128617715Y-95755728D01*
X128610434Y-95756808D01*
X128603083Y-95757169D01*
X128595732Y-95756808D01*
X128588451Y-95755728D01*
X128581312Y-95753940D01*
X128574382Y-95751460D01*
X128567728Y-95748313D01*
X128561415Y-95744529D01*
X128555504Y-95740145D01*
X128550050Y-95735202D01*
X127613134Y-94798286D01*
X127608191Y-94792832D01*
X127603807Y-94786921D01*
X127600023Y-94780608D01*
X127596876Y-94773954D01*
X127594396Y-94767024D01*
X127592608Y-94759885D01*
X127591528Y-94752604D01*
X127591167Y-94745253D01*
X127591528Y-94737902D01*
X127592608Y-94730621D01*
X127594396Y-94723482D01*
X127596876Y-94716552D01*
X127600023Y-94709898D01*
X127603807Y-94703585D01*
X127608191Y-94697674D01*
X127613134Y-94692220D01*
X127719200Y-94586154D01*
X127724654Y-94581211D01*
X127730565Y-94576827D01*
X127736878Y-94573043D01*
X127743532Y-94569896D01*
X127750462Y-94567416D01*
X127757601Y-94565628D01*
X127764882Y-94564548D01*
X127772233Y-94564187D01*
X127779584Y-94564548D01*
X127779584Y-94564548D01*
G37*
D16*
X128187658Y-95160678D03*
D12*
G36*
X127426031Y-94918101D02*
G01*
X127433312Y-94919181D01*
X127440451Y-94920969D01*
X127447381Y-94923449D01*
X127454035Y-94926596D01*
X127460348Y-94930380D01*
X127466259Y-94934764D01*
X127471713Y-94939707D01*
X128408629Y-95876623D01*
X128413572Y-95882077D01*
X128417956Y-95887988D01*
X128421740Y-95894301D01*
X128424887Y-95900955D01*
X128427367Y-95907885D01*
X128429155Y-95915024D01*
X128430235Y-95922305D01*
X128430596Y-95929656D01*
X128430235Y-95937007D01*
X128429155Y-95944288D01*
X128427367Y-95951427D01*
X128424887Y-95958357D01*
X128421740Y-95965011D01*
X128417956Y-95971324D01*
X128413572Y-95977235D01*
X128408629Y-95982689D01*
X128302563Y-96088755D01*
X128297109Y-96093698D01*
X128291198Y-96098082D01*
X128284885Y-96101866D01*
X128278231Y-96105013D01*
X128271301Y-96107493D01*
X128264162Y-96109281D01*
X128256881Y-96110361D01*
X128249530Y-96110722D01*
X128242179Y-96110361D01*
X128234898Y-96109281D01*
X128227759Y-96107493D01*
X128220829Y-96105013D01*
X128214175Y-96101866D01*
X128207862Y-96098082D01*
X128201951Y-96093698D01*
X128196497Y-96088755D01*
X127259581Y-95151839D01*
X127254638Y-95146385D01*
X127250254Y-95140474D01*
X127246470Y-95134161D01*
X127243323Y-95127507D01*
X127240843Y-95120577D01*
X127239055Y-95113438D01*
X127237975Y-95106157D01*
X127237614Y-95098806D01*
X127237975Y-95091455D01*
X127239055Y-95084174D01*
X127240843Y-95077035D01*
X127243323Y-95070105D01*
X127246470Y-95063451D01*
X127250254Y-95057138D01*
X127254638Y-95051227D01*
X127259581Y-95045773D01*
X127365647Y-94939707D01*
X127371101Y-94934764D01*
X127377012Y-94930380D01*
X127383325Y-94926596D01*
X127389979Y-94923449D01*
X127396909Y-94920969D01*
X127404048Y-94919181D01*
X127411329Y-94918101D01*
X127418680Y-94917740D01*
X127426031Y-94918101D01*
X127426031Y-94918101D01*
G37*
D16*
X127834105Y-95514231D03*
D12*
G36*
X127072477Y-95271655D02*
G01*
X127079758Y-95272735D01*
X127086897Y-95274523D01*
X127093827Y-95277003D01*
X127100481Y-95280150D01*
X127106794Y-95283934D01*
X127112705Y-95288318D01*
X127118159Y-95293261D01*
X128055075Y-96230177D01*
X128060018Y-96235631D01*
X128064402Y-96241542D01*
X128068186Y-96247855D01*
X128071333Y-96254509D01*
X128073813Y-96261439D01*
X128075601Y-96268578D01*
X128076681Y-96275859D01*
X128077042Y-96283210D01*
X128076681Y-96290561D01*
X128075601Y-96297842D01*
X128073813Y-96304981D01*
X128071333Y-96311911D01*
X128068186Y-96318565D01*
X128064402Y-96324878D01*
X128060018Y-96330789D01*
X128055075Y-96336243D01*
X127949009Y-96442309D01*
X127943555Y-96447252D01*
X127937644Y-96451636D01*
X127931331Y-96455420D01*
X127924677Y-96458567D01*
X127917747Y-96461047D01*
X127910608Y-96462835D01*
X127903327Y-96463915D01*
X127895976Y-96464276D01*
X127888625Y-96463915D01*
X127881344Y-96462835D01*
X127874205Y-96461047D01*
X127867275Y-96458567D01*
X127860621Y-96455420D01*
X127854308Y-96451636D01*
X127848397Y-96447252D01*
X127842943Y-96442309D01*
X126906027Y-95505393D01*
X126901084Y-95499939D01*
X126896700Y-95494028D01*
X126892916Y-95487715D01*
X126889769Y-95481061D01*
X126887289Y-95474131D01*
X126885501Y-95466992D01*
X126884421Y-95459711D01*
X126884060Y-95452360D01*
X126884421Y-95445009D01*
X126885501Y-95437728D01*
X126887289Y-95430589D01*
X126889769Y-95423659D01*
X126892916Y-95417005D01*
X126896700Y-95410692D01*
X126901084Y-95404781D01*
X126906027Y-95399327D01*
X127012093Y-95293261D01*
X127017547Y-95288318D01*
X127023458Y-95283934D01*
X127029771Y-95280150D01*
X127036425Y-95277003D01*
X127043355Y-95274523D01*
X127050494Y-95272735D01*
X127057775Y-95271655D01*
X127065126Y-95271294D01*
X127072477Y-95271655D01*
X127072477Y-95271655D01*
G37*
D16*
X127480551Y-95867785D03*
D12*
G36*
X126718924Y-95625208D02*
G01*
X126726205Y-95626288D01*
X126733344Y-95628076D01*
X126740274Y-95630556D01*
X126746928Y-95633703D01*
X126753241Y-95637487D01*
X126759152Y-95641871D01*
X126764606Y-95646814D01*
X127701522Y-96583730D01*
X127706465Y-96589184D01*
X127710849Y-96595095D01*
X127714633Y-96601408D01*
X127717780Y-96608062D01*
X127720260Y-96614992D01*
X127722048Y-96622131D01*
X127723128Y-96629412D01*
X127723489Y-96636763D01*
X127723128Y-96644114D01*
X127722048Y-96651395D01*
X127720260Y-96658534D01*
X127717780Y-96665464D01*
X127714633Y-96672118D01*
X127710849Y-96678431D01*
X127706465Y-96684342D01*
X127701522Y-96689796D01*
X127595456Y-96795862D01*
X127590002Y-96800805D01*
X127584091Y-96805189D01*
X127577778Y-96808973D01*
X127571124Y-96812120D01*
X127564194Y-96814600D01*
X127557055Y-96816388D01*
X127549774Y-96817468D01*
X127542423Y-96817829D01*
X127535072Y-96817468D01*
X127527791Y-96816388D01*
X127520652Y-96814600D01*
X127513722Y-96812120D01*
X127507068Y-96808973D01*
X127500755Y-96805189D01*
X127494844Y-96800805D01*
X127489390Y-96795862D01*
X126552474Y-95858946D01*
X126547531Y-95853492D01*
X126543147Y-95847581D01*
X126539363Y-95841268D01*
X126536216Y-95834614D01*
X126533736Y-95827684D01*
X126531948Y-95820545D01*
X126530868Y-95813264D01*
X126530507Y-95805913D01*
X126530868Y-95798562D01*
X126531948Y-95791281D01*
X126533736Y-95784142D01*
X126536216Y-95777212D01*
X126539363Y-95770558D01*
X126543147Y-95764245D01*
X126547531Y-95758334D01*
X126552474Y-95752880D01*
X126658540Y-95646814D01*
X126663994Y-95641871D01*
X126669905Y-95637487D01*
X126676218Y-95633703D01*
X126682872Y-95630556D01*
X126689802Y-95628076D01*
X126696941Y-95626288D01*
X126704222Y-95625208D01*
X126711573Y-95624847D01*
X126718924Y-95625208D01*
X126718924Y-95625208D01*
G37*
D16*
X127126998Y-96221338D03*
D12*
G36*
X126365371Y-95978761D02*
G01*
X126372652Y-95979841D01*
X126379791Y-95981629D01*
X126386721Y-95984109D01*
X126393375Y-95987256D01*
X126399688Y-95991040D01*
X126405599Y-95995424D01*
X126411053Y-96000367D01*
X127347969Y-96937283D01*
X127352912Y-96942737D01*
X127357296Y-96948648D01*
X127361080Y-96954961D01*
X127364227Y-96961615D01*
X127366707Y-96968545D01*
X127368495Y-96975684D01*
X127369575Y-96982965D01*
X127369936Y-96990316D01*
X127369575Y-96997667D01*
X127368495Y-97004948D01*
X127366707Y-97012087D01*
X127364227Y-97019017D01*
X127361080Y-97025671D01*
X127357296Y-97031984D01*
X127352912Y-97037895D01*
X127347969Y-97043349D01*
X127241903Y-97149415D01*
X127236449Y-97154358D01*
X127230538Y-97158742D01*
X127224225Y-97162526D01*
X127217571Y-97165673D01*
X127210641Y-97168153D01*
X127203502Y-97169941D01*
X127196221Y-97171021D01*
X127188870Y-97171382D01*
X127181519Y-97171021D01*
X127174238Y-97169941D01*
X127167099Y-97168153D01*
X127160169Y-97165673D01*
X127153515Y-97162526D01*
X127147202Y-97158742D01*
X127141291Y-97154358D01*
X127135837Y-97149415D01*
X126198921Y-96212499D01*
X126193978Y-96207045D01*
X126189594Y-96201134D01*
X126185810Y-96194821D01*
X126182663Y-96188167D01*
X126180183Y-96181237D01*
X126178395Y-96174098D01*
X126177315Y-96166817D01*
X126176954Y-96159466D01*
X126177315Y-96152115D01*
X126178395Y-96144834D01*
X126180183Y-96137695D01*
X126182663Y-96130765D01*
X126185810Y-96124111D01*
X126189594Y-96117798D01*
X126193978Y-96111887D01*
X126198921Y-96106433D01*
X126304987Y-96000367D01*
X126310441Y-95995424D01*
X126316352Y-95991040D01*
X126322665Y-95987256D01*
X126329319Y-95984109D01*
X126336249Y-95981629D01*
X126343388Y-95979841D01*
X126350669Y-95978761D01*
X126358020Y-95978400D01*
X126365371Y-95978761D01*
X126365371Y-95978761D01*
G37*
D16*
X126773445Y-96574891D03*
D12*
G36*
X126011817Y-96332315D02*
G01*
X126019098Y-96333395D01*
X126026237Y-96335183D01*
X126033167Y-96337663D01*
X126039821Y-96340810D01*
X126046134Y-96344594D01*
X126052045Y-96348978D01*
X126057499Y-96353921D01*
X126994415Y-97290837D01*
X126999358Y-97296291D01*
X127003742Y-97302202D01*
X127007526Y-97308515D01*
X127010673Y-97315169D01*
X127013153Y-97322099D01*
X127014941Y-97329238D01*
X127016021Y-97336519D01*
X127016382Y-97343870D01*
X127016021Y-97351221D01*
X127014941Y-97358502D01*
X127013153Y-97365641D01*
X127010673Y-97372571D01*
X127007526Y-97379225D01*
X127003742Y-97385538D01*
X126999358Y-97391449D01*
X126994415Y-97396903D01*
X126888349Y-97502969D01*
X126882895Y-97507912D01*
X126876984Y-97512296D01*
X126870671Y-97516080D01*
X126864017Y-97519227D01*
X126857087Y-97521707D01*
X126849948Y-97523495D01*
X126842667Y-97524575D01*
X126835316Y-97524936D01*
X126827965Y-97524575D01*
X126820684Y-97523495D01*
X126813545Y-97521707D01*
X126806615Y-97519227D01*
X126799961Y-97516080D01*
X126793648Y-97512296D01*
X126787737Y-97507912D01*
X126782283Y-97502969D01*
X125845367Y-96566053D01*
X125840424Y-96560599D01*
X125836040Y-96554688D01*
X125832256Y-96548375D01*
X125829109Y-96541721D01*
X125826629Y-96534791D01*
X125824841Y-96527652D01*
X125823761Y-96520371D01*
X125823400Y-96513020D01*
X125823761Y-96505669D01*
X125824841Y-96498388D01*
X125826629Y-96491249D01*
X125829109Y-96484319D01*
X125832256Y-96477665D01*
X125836040Y-96471352D01*
X125840424Y-96465441D01*
X125845367Y-96459987D01*
X125951433Y-96353921D01*
X125956887Y-96348978D01*
X125962798Y-96344594D01*
X125969111Y-96340810D01*
X125975765Y-96337663D01*
X125982695Y-96335183D01*
X125989834Y-96333395D01*
X125997115Y-96332315D01*
X126004466Y-96331954D01*
X126011817Y-96332315D01*
X126011817Y-96332315D01*
G37*
D16*
X126419891Y-96928445D03*
D12*
G36*
X125658264Y-96685868D02*
G01*
X125665545Y-96686948D01*
X125672684Y-96688736D01*
X125679614Y-96691216D01*
X125686268Y-96694363D01*
X125692581Y-96698147D01*
X125698492Y-96702531D01*
X125703946Y-96707474D01*
X126640862Y-97644390D01*
X126645805Y-97649844D01*
X126650189Y-97655755D01*
X126653973Y-97662068D01*
X126657120Y-97668722D01*
X126659600Y-97675652D01*
X126661388Y-97682791D01*
X126662468Y-97690072D01*
X126662829Y-97697423D01*
X126662468Y-97704774D01*
X126661388Y-97712055D01*
X126659600Y-97719194D01*
X126657120Y-97726124D01*
X126653973Y-97732778D01*
X126650189Y-97739091D01*
X126645805Y-97745002D01*
X126640862Y-97750456D01*
X126534796Y-97856522D01*
X126529342Y-97861465D01*
X126523431Y-97865849D01*
X126517118Y-97869633D01*
X126510464Y-97872780D01*
X126503534Y-97875260D01*
X126496395Y-97877048D01*
X126489114Y-97878128D01*
X126481763Y-97878489D01*
X126474412Y-97878128D01*
X126467131Y-97877048D01*
X126459992Y-97875260D01*
X126453062Y-97872780D01*
X126446408Y-97869633D01*
X126440095Y-97865849D01*
X126434184Y-97861465D01*
X126428730Y-97856522D01*
X125491814Y-96919606D01*
X125486871Y-96914152D01*
X125482487Y-96908241D01*
X125478703Y-96901928D01*
X125475556Y-96895274D01*
X125473076Y-96888344D01*
X125471288Y-96881205D01*
X125470208Y-96873924D01*
X125469847Y-96866573D01*
X125470208Y-96859222D01*
X125471288Y-96851941D01*
X125473076Y-96844802D01*
X125475556Y-96837872D01*
X125478703Y-96831218D01*
X125482487Y-96824905D01*
X125486871Y-96818994D01*
X125491814Y-96813540D01*
X125597880Y-96707474D01*
X125603334Y-96702531D01*
X125609245Y-96698147D01*
X125615558Y-96694363D01*
X125622212Y-96691216D01*
X125629142Y-96688736D01*
X125636281Y-96686948D01*
X125643562Y-96685868D01*
X125650913Y-96685507D01*
X125658264Y-96685868D01*
X125658264Y-96685868D01*
G37*
D16*
X126066338Y-97281998D03*
D12*
G36*
X125304711Y-97039421D02*
G01*
X125311992Y-97040501D01*
X125319131Y-97042289D01*
X125326061Y-97044769D01*
X125332715Y-97047916D01*
X125339028Y-97051700D01*
X125344939Y-97056084D01*
X125350393Y-97061027D01*
X126287309Y-97997943D01*
X126292252Y-98003397D01*
X126296636Y-98009308D01*
X126300420Y-98015621D01*
X126303567Y-98022275D01*
X126306047Y-98029205D01*
X126307835Y-98036344D01*
X126308915Y-98043625D01*
X126309276Y-98050976D01*
X126308915Y-98058327D01*
X126307835Y-98065608D01*
X126306047Y-98072747D01*
X126303567Y-98079677D01*
X126300420Y-98086331D01*
X126296636Y-98092644D01*
X126292252Y-98098555D01*
X126287309Y-98104009D01*
X126181243Y-98210075D01*
X126175789Y-98215018D01*
X126169878Y-98219402D01*
X126163565Y-98223186D01*
X126156911Y-98226333D01*
X126149981Y-98228813D01*
X126142842Y-98230601D01*
X126135561Y-98231681D01*
X126128210Y-98232042D01*
X126120859Y-98231681D01*
X126113578Y-98230601D01*
X126106439Y-98228813D01*
X126099509Y-98226333D01*
X126092855Y-98223186D01*
X126086542Y-98219402D01*
X126080631Y-98215018D01*
X126075177Y-98210075D01*
X125138261Y-97273159D01*
X125133318Y-97267705D01*
X125128934Y-97261794D01*
X125125150Y-97255481D01*
X125122003Y-97248827D01*
X125119523Y-97241897D01*
X125117735Y-97234758D01*
X125116655Y-97227477D01*
X125116294Y-97220126D01*
X125116655Y-97212775D01*
X125117735Y-97205494D01*
X125119523Y-97198355D01*
X125122003Y-97191425D01*
X125125150Y-97184771D01*
X125128934Y-97178458D01*
X125133318Y-97172547D01*
X125138261Y-97167093D01*
X125244327Y-97061027D01*
X125249781Y-97056084D01*
X125255692Y-97051700D01*
X125262005Y-97047916D01*
X125268659Y-97044769D01*
X125275589Y-97042289D01*
X125282728Y-97040501D01*
X125290009Y-97039421D01*
X125297360Y-97039060D01*
X125304711Y-97039421D01*
X125304711Y-97039421D01*
G37*
D16*
X125712785Y-97635551D03*
D12*
G36*
X124951157Y-97392975D02*
G01*
X124958438Y-97394055D01*
X124965577Y-97395843D01*
X124972507Y-97398323D01*
X124979161Y-97401470D01*
X124985474Y-97405254D01*
X124991385Y-97409638D01*
X124996839Y-97414581D01*
X125933755Y-98351497D01*
X125938698Y-98356951D01*
X125943082Y-98362862D01*
X125946866Y-98369175D01*
X125950013Y-98375829D01*
X125952493Y-98382759D01*
X125954281Y-98389898D01*
X125955361Y-98397179D01*
X125955722Y-98404530D01*
X125955361Y-98411881D01*
X125954281Y-98419162D01*
X125952493Y-98426301D01*
X125950013Y-98433231D01*
X125946866Y-98439885D01*
X125943082Y-98446198D01*
X125938698Y-98452109D01*
X125933755Y-98457563D01*
X125827689Y-98563629D01*
X125822235Y-98568572D01*
X125816324Y-98572956D01*
X125810011Y-98576740D01*
X125803357Y-98579887D01*
X125796427Y-98582367D01*
X125789288Y-98584155D01*
X125782007Y-98585235D01*
X125774656Y-98585596D01*
X125767305Y-98585235D01*
X125760024Y-98584155D01*
X125752885Y-98582367D01*
X125745955Y-98579887D01*
X125739301Y-98576740D01*
X125732988Y-98572956D01*
X125727077Y-98568572D01*
X125721623Y-98563629D01*
X124784707Y-97626713D01*
X124779764Y-97621259D01*
X124775380Y-97615348D01*
X124771596Y-97609035D01*
X124768449Y-97602381D01*
X124765969Y-97595451D01*
X124764181Y-97588312D01*
X124763101Y-97581031D01*
X124762740Y-97573680D01*
X124763101Y-97566329D01*
X124764181Y-97559048D01*
X124765969Y-97551909D01*
X124768449Y-97544979D01*
X124771596Y-97538325D01*
X124775380Y-97532012D01*
X124779764Y-97526101D01*
X124784707Y-97520647D01*
X124890773Y-97414581D01*
X124896227Y-97409638D01*
X124902138Y-97405254D01*
X124908451Y-97401470D01*
X124915105Y-97398323D01*
X124922035Y-97395843D01*
X124929174Y-97394055D01*
X124936455Y-97392975D01*
X124943806Y-97392614D01*
X124951157Y-97392975D01*
X124951157Y-97392975D01*
G37*
D16*
X125359231Y-97989105D03*
D12*
G36*
X124597604Y-97746528D02*
G01*
X124604885Y-97747608D01*
X124612024Y-97749396D01*
X124618954Y-97751876D01*
X124625608Y-97755023D01*
X124631921Y-97758807D01*
X124637832Y-97763191D01*
X124643286Y-97768134D01*
X125580202Y-98705050D01*
X125585145Y-98710504D01*
X125589529Y-98716415D01*
X125593313Y-98722728D01*
X125596460Y-98729382D01*
X125598940Y-98736312D01*
X125600728Y-98743451D01*
X125601808Y-98750732D01*
X125602169Y-98758083D01*
X125601808Y-98765434D01*
X125600728Y-98772715D01*
X125598940Y-98779854D01*
X125596460Y-98786784D01*
X125593313Y-98793438D01*
X125589529Y-98799751D01*
X125585145Y-98805662D01*
X125580202Y-98811116D01*
X125474136Y-98917182D01*
X125468682Y-98922125D01*
X125462771Y-98926509D01*
X125456458Y-98930293D01*
X125449804Y-98933440D01*
X125442874Y-98935920D01*
X125435735Y-98937708D01*
X125428454Y-98938788D01*
X125421103Y-98939149D01*
X125413752Y-98938788D01*
X125406471Y-98937708D01*
X125399332Y-98935920D01*
X125392402Y-98933440D01*
X125385748Y-98930293D01*
X125379435Y-98926509D01*
X125373524Y-98922125D01*
X125368070Y-98917182D01*
X124431154Y-97980266D01*
X124426211Y-97974812D01*
X124421827Y-97968901D01*
X124418043Y-97962588D01*
X124414896Y-97955934D01*
X124412416Y-97949004D01*
X124410628Y-97941865D01*
X124409548Y-97934584D01*
X124409187Y-97927233D01*
X124409548Y-97919882D01*
X124410628Y-97912601D01*
X124412416Y-97905462D01*
X124414896Y-97898532D01*
X124418043Y-97891878D01*
X124421827Y-97885565D01*
X124426211Y-97879654D01*
X124431154Y-97874200D01*
X124537220Y-97768134D01*
X124542674Y-97763191D01*
X124548585Y-97758807D01*
X124554898Y-97755023D01*
X124561552Y-97751876D01*
X124568482Y-97749396D01*
X124575621Y-97747608D01*
X124582902Y-97746528D01*
X124590253Y-97746167D01*
X124597604Y-97746528D01*
X124597604Y-97746528D01*
G37*
D16*
X125005678Y-98342658D03*
D12*
G36*
X124244050Y-98100082D02*
G01*
X124251331Y-98101162D01*
X124258470Y-98102950D01*
X124265400Y-98105430D01*
X124272054Y-98108577D01*
X124278367Y-98112361D01*
X124284278Y-98116745D01*
X124289732Y-98121688D01*
X125226648Y-99058604D01*
X125231591Y-99064058D01*
X125235975Y-99069969D01*
X125239759Y-99076282D01*
X125242906Y-99082936D01*
X125245386Y-99089866D01*
X125247174Y-99097005D01*
X125248254Y-99104286D01*
X125248615Y-99111637D01*
X125248254Y-99118988D01*
X125247174Y-99126269D01*
X125245386Y-99133408D01*
X125242906Y-99140338D01*
X125239759Y-99146992D01*
X125235975Y-99153305D01*
X125231591Y-99159216D01*
X125226648Y-99164670D01*
X125120582Y-99270736D01*
X125115128Y-99275679D01*
X125109217Y-99280063D01*
X125102904Y-99283847D01*
X125096250Y-99286994D01*
X125089320Y-99289474D01*
X125082181Y-99291262D01*
X125074900Y-99292342D01*
X125067549Y-99292703D01*
X125060198Y-99292342D01*
X125052917Y-99291262D01*
X125045778Y-99289474D01*
X125038848Y-99286994D01*
X125032194Y-99283847D01*
X125025881Y-99280063D01*
X125019970Y-99275679D01*
X125014516Y-99270736D01*
X124077600Y-98333820D01*
X124072657Y-98328366D01*
X124068273Y-98322455D01*
X124064489Y-98316142D01*
X124061342Y-98309488D01*
X124058862Y-98302558D01*
X124057074Y-98295419D01*
X124055994Y-98288138D01*
X124055633Y-98280787D01*
X124055994Y-98273436D01*
X124057074Y-98266155D01*
X124058862Y-98259016D01*
X124061342Y-98252086D01*
X124064489Y-98245432D01*
X124068273Y-98239119D01*
X124072657Y-98233208D01*
X124077600Y-98227754D01*
X124183666Y-98121688D01*
X124189120Y-98116745D01*
X124195031Y-98112361D01*
X124201344Y-98108577D01*
X124207998Y-98105430D01*
X124214928Y-98102950D01*
X124222067Y-98101162D01*
X124229348Y-98100082D01*
X124236699Y-98099721D01*
X124244050Y-98100082D01*
X124244050Y-98100082D01*
G37*
D16*
X124652124Y-98696212D03*
D10*
X121920000Y-71755000D03*
D11*
X121920000Y-69215000D03*
X124460000Y-71755000D03*
X124460000Y-69215000D03*
X127000000Y-71755000D03*
X127000000Y-69215000D03*
X129540000Y-71755000D03*
X129540000Y-69215000D03*
X132080000Y-71755000D03*
X132080000Y-69215000D03*
X134620000Y-71755000D03*
X134620000Y-69215000D03*
X137160000Y-71755000D03*
X137160000Y-69215000D03*
D17*
X135890000Y-89535000D03*
X130810000Y-83820000D03*
X129295000Y-85335000D03*
X125095000Y-83185000D03*
X129277000Y-80908000D03*
D18*
X123229543Y-97750457D03*
X126492000Y-104394000D03*
X132588000Y-100076000D03*
X131826000Y-93980000D03*
D17*
X129946587Y-97637413D03*
D18*
X135636000Y-103124000D03*
X135128000Y-103632000D03*
X134620000Y-104140000D03*
X134112000Y-104648000D03*
X124968000Y-91440000D03*
X127762000Y-101346000D03*
X138430000Y-99314000D03*
X137904999Y-99804999D03*
X137379998Y-100295998D03*
X136854997Y-100786997D03*
X136144000Y-102616000D03*
X127508000Y-98044000D03*
X128016000Y-91440000D03*
D19*
X131050000Y-81890000D02*
X131050000Y-81774000D01*
X130184000Y-80908000D02*
X129277000Y-80908000D01*
X131050000Y-81774000D02*
X130184000Y-80908000D01*
X130810000Y-82130000D02*
X131050000Y-81890000D01*
X130810000Y-85335000D02*
X130810000Y-83820000D01*
X125095000Y-85335000D02*
X129295000Y-85335000D01*
X135890000Y-87385000D02*
X135890000Y-89535000D01*
X135890000Y-89535000D02*
X135890000Y-89535000D01*
X130810000Y-83820000D02*
X130810000Y-82130000D01*
X129295000Y-85335000D02*
X130810000Y-85335000D01*
X125095000Y-85335000D02*
X125095000Y-83185000D01*
X125095000Y-83185000D02*
X125095000Y-80908000D01*
X129277000Y-80908000D02*
X125095000Y-80908000D01*
D20*
X124413477Y-97750457D02*
X123229543Y-97750457D01*
X125005678Y-98342658D02*
X124413477Y-97750457D01*
X123229543Y-97750457D02*
X123229543Y-97750457D01*
X126534797Y-103760863D02*
X126534797Y-104351203D01*
X127126998Y-103168662D02*
X126534797Y-103760863D01*
X126534797Y-104351203D02*
X126492000Y-104394000D01*
X126492000Y-104394000D02*
X126492000Y-104394000D01*
X134074322Y-101047342D02*
X133102980Y-100076000D01*
X133102980Y-100076000D02*
X132588000Y-100076000D01*
X132588000Y-100076000D02*
X132588000Y-100076000D01*
X131484543Y-94568477D02*
X131491523Y-94568477D01*
X130892342Y-95160678D02*
X131484543Y-94568477D01*
X131491523Y-94568477D02*
X131826000Y-94234000D01*
X131826000Y-94234000D02*
X131826000Y-93980000D01*
X131826000Y-93980000D02*
X131826000Y-93980000D01*
D19*
X135650000Y-81067513D02*
X137160000Y-79557513D01*
X135650000Y-81890000D02*
X135650000Y-81067513D01*
X137160000Y-74295000D02*
X134620000Y-71755000D01*
X137160000Y-79557513D02*
X137160000Y-74295000D01*
X129540000Y-71755000D02*
X134620000Y-71755000D01*
X135650000Y-85095000D02*
X135890000Y-85335000D01*
X135650000Y-81890000D02*
X135650000Y-85095000D01*
X128435000Y-78858000D02*
X127635000Y-78858000D01*
X132080000Y-78858000D02*
X128435000Y-78858000D01*
X133350000Y-80128000D02*
X132080000Y-78858000D01*
X133350000Y-81890000D02*
X133350000Y-80128000D01*
X122555000Y-78858000D02*
X127635000Y-78858000D01*
X121920000Y-71755000D02*
X127000000Y-71755000D01*
X121793000Y-71755000D02*
X121920000Y-71755000D01*
X120396000Y-73152000D02*
X121793000Y-71755000D01*
X122555000Y-78858000D02*
X120396000Y-76699000D01*
X120396000Y-76699000D02*
X120396000Y-73152000D01*
X133350000Y-81890000D02*
X133350000Y-83820000D01*
X133350000Y-83820000D02*
X133350000Y-85335000D01*
D20*
X124652124Y-100693788D02*
X125244325Y-100101587D01*
X130538788Y-94807124D02*
X129946587Y-95399325D01*
X129946587Y-95399325D02*
X129946587Y-97637413D01*
X129438588Y-98145412D02*
X129946587Y-97637413D01*
X128295587Y-99288413D02*
X129438588Y-98145412D01*
X125244325Y-99288413D02*
X128295587Y-99288413D01*
X124652124Y-98696212D02*
X125244325Y-99288413D01*
X125244325Y-100101587D02*
X125244325Y-100053675D01*
X125244325Y-100053675D02*
X125476000Y-99822000D01*
X125476000Y-99822000D02*
X128524000Y-99822000D01*
X129946587Y-98399413D02*
X129946587Y-97637413D01*
X128524000Y-99822000D02*
X129946587Y-98399413D01*
X130556000Y-100446766D02*
X127480551Y-103522215D01*
X130810000Y-100192766D02*
X130556000Y-100446766D01*
X129946587Y-97637413D02*
X130810000Y-98500826D01*
X130810000Y-98500826D02*
X130810000Y-100192766D01*
X131371501Y-97637413D02*
X134427876Y-100693788D01*
X129946587Y-97637413D02*
X131371501Y-97637413D01*
X126773445Y-102815109D02*
X127762000Y-101826554D01*
X124968000Y-87512000D02*
X125095000Y-87385000D01*
X124968000Y-91440000D02*
X124968000Y-87512000D01*
X122555000Y-81583000D02*
X122555000Y-80908000D01*
X122555000Y-85645000D02*
X122555000Y-81583000D01*
X124295000Y-87385000D02*
X122555000Y-85645000D01*
X125095000Y-87385000D02*
X124295000Y-87385000D01*
X127762000Y-101826554D02*
X127762000Y-101346000D01*
X130810000Y-87385000D02*
X133350000Y-87385000D01*
X133367215Y-97635551D02*
X133402557Y-97635551D01*
X133367215Y-97635551D02*
X134170775Y-96831991D01*
X136079221Y-96831991D02*
X138430000Y-99182770D01*
X134170775Y-96831991D02*
X136079221Y-96831991D01*
X138430000Y-99182770D02*
X138430000Y-99182770D01*
X138430000Y-99182770D02*
X138430000Y-99314000D01*
X138430000Y-99314000D02*
X138430000Y-99314000D01*
X133720769Y-97989105D02*
X134427874Y-97282000D01*
X135892820Y-97282000D02*
X137668000Y-99057180D01*
X134427874Y-97282000D02*
X135892820Y-97282000D01*
X137904999Y-99296999D02*
X137904999Y-99804999D01*
X137668000Y-99057180D02*
X137668000Y-99060000D01*
X137668000Y-99060000D02*
X137904999Y-99296999D01*
X137904999Y-99804999D02*
X137904999Y-99804999D01*
X135724867Y-97750457D02*
X136652000Y-98677590D01*
X134701866Y-97750456D02*
X135724867Y-97750457D01*
X134074322Y-98342658D02*
X134109664Y-98342658D01*
X134109664Y-98342658D02*
X134701866Y-97750456D01*
X136652000Y-98677590D02*
X136906000Y-98931590D01*
X136906000Y-98931590D02*
X137217990Y-99243580D01*
X137217990Y-99243580D02*
X137217990Y-99246400D01*
X137379998Y-99408408D02*
X137379998Y-100295998D01*
X137217990Y-99246400D02*
X137379998Y-99408408D01*
X137379998Y-100295998D02*
X137379998Y-100295998D01*
X135099944Y-98200466D02*
X134888280Y-98200466D01*
X134888280Y-98200466D02*
X134705373Y-98383373D01*
X135099944Y-98200466D02*
X135538466Y-98200466D01*
X135538466Y-98200466D02*
X136144000Y-98806000D01*
X136854997Y-99516997D02*
X136854997Y-100786997D01*
X136144000Y-98806000D02*
X136854997Y-99516997D01*
X136854997Y-100786997D02*
X136854997Y-100786997D01*
X133720769Y-101400895D02*
X134427874Y-102108000D01*
X134427874Y-102108000D02*
X135636000Y-102108000D01*
X135636000Y-102108000D02*
X136144000Y-102616000D01*
X136144000Y-102616000D02*
X136144000Y-102616000D01*
X136144000Y-102616000D02*
X136144000Y-102616000D01*
X135070010Y-102558010D02*
X135636000Y-103124000D01*
X133367215Y-101754449D02*
X134170776Y-102558010D01*
X134170776Y-102558010D02*
X135070010Y-102558010D01*
X124536145Y-97166019D02*
X125359231Y-97989105D01*
X120003981Y-97166019D02*
X124536145Y-97166019D01*
X118745000Y-98425000D02*
X120003981Y-97166019D01*
X116840000Y-98425000D02*
X118745000Y-98425000D01*
X118745000Y-95885000D02*
X116840000Y-95885000D01*
X124793244Y-96716010D02*
X119576009Y-96716009D01*
X125163617Y-97086383D02*
X124793244Y-96716010D01*
X125163617Y-97086383D02*
X125024128Y-96946894D01*
X125712785Y-97635551D02*
X125163617Y-97086383D01*
X119576009Y-96716009D02*
X118745000Y-95885000D01*
X117689999Y-94194999D02*
X116840000Y-93345000D01*
X117691409Y-94194999D02*
X117689999Y-94194999D01*
X119762410Y-96266000D02*
X117691409Y-94194999D01*
X125757446Y-96266000D02*
X119762410Y-96266000D01*
X126419891Y-96928445D02*
X125757446Y-96266000D01*
X126110546Y-95982690D02*
X125943846Y-95815990D01*
X126773445Y-96574891D02*
X126181244Y-95982690D01*
X126181244Y-95982690D02*
X126110546Y-95982690D01*
X125943846Y-95815990D02*
X119948810Y-95815990D01*
X119948810Y-95815990D02*
X118618000Y-94485180D01*
X118618000Y-92583000D02*
X116840000Y-90805000D01*
X118618000Y-94485180D02*
X118618000Y-92583000D01*
X119126000Y-90551000D02*
X116840000Y-88265000D01*
X119126000Y-94356770D02*
X119126000Y-90551000D01*
X120135210Y-95365980D02*
X119126000Y-94356770D01*
X127126998Y-96221338D02*
X126271640Y-95365980D01*
X126271640Y-95365980D02*
X120135210Y-95365980D01*
X117689999Y-86574999D02*
X116840000Y-85725000D01*
X119576010Y-88461010D02*
X117689999Y-86574999D01*
X119576010Y-94170370D02*
X119576010Y-88461010D01*
X120321610Y-94915970D02*
X119576010Y-94170370D01*
X126528736Y-94915970D02*
X120321610Y-94915970D01*
X127480551Y-95867785D02*
X126528736Y-94915970D01*
X120026020Y-86371020D02*
X116840000Y-83185000D01*
X120026020Y-93864020D02*
X120026020Y-86371020D01*
X120627960Y-94465960D02*
X120026020Y-93864020D01*
X127834105Y-95514231D02*
X126785834Y-94465960D01*
X126785834Y-94465960D02*
X120627960Y-94465960D01*
X134504020Y-103008020D02*
X135128000Y-103632000D01*
X133013662Y-102108002D02*
X133913680Y-103008020D01*
X133913680Y-103008020D02*
X134504020Y-103008020D01*
X133938030Y-103458030D02*
X134620000Y-104140000D01*
X132660109Y-102461555D02*
X133656584Y-103458030D01*
X133656584Y-103458030D02*
X133938030Y-103458030D01*
X134112000Y-104620554D02*
X134112000Y-104648000D01*
X132306555Y-102815109D02*
X134112000Y-104620554D01*
X140462000Y-112987000D02*
X141140000Y-113665000D01*
X141140000Y-113665000D02*
X142240000Y-113665000D01*
X140462000Y-109983410D02*
X140462000Y-112987000D01*
X127834105Y-103875769D02*
X127834105Y-103911109D01*
X127834105Y-103911109D02*
X126607980Y-105137234D01*
X126607980Y-105137234D02*
X126607980Y-108068800D01*
X126607980Y-108068800D02*
X128024200Y-109485020D01*
X128024200Y-109485020D02*
X139963610Y-109485020D01*
X139963610Y-109485020D02*
X140462000Y-109983410D01*
X128187658Y-104264664D02*
X128187658Y-104229322D01*
X127057990Y-105394332D02*
X128187658Y-104264664D01*
X127057991Y-107882401D02*
X128210600Y-109035010D01*
X127057990Y-105394332D02*
X127057991Y-107882401D01*
X140150010Y-109035010D02*
X142240000Y-111125000D01*
X128210600Y-109035010D02*
X140150010Y-109035010D01*
X128397000Y-108585000D02*
X142240000Y-108585000D01*
X127508000Y-107696000D02*
X128397000Y-108585000D01*
X128541212Y-104582876D02*
X127508000Y-105616088D01*
X127508000Y-105616088D02*
X127508000Y-107696000D01*
X140150010Y-108134990D02*
X142240000Y-106045000D01*
X130538788Y-104582876D02*
X131130989Y-105175077D01*
X131130989Y-105175077D02*
X131130989Y-106746989D01*
X131130989Y-106746989D02*
X132518990Y-108134990D01*
X132518990Y-108134990D02*
X140150010Y-108134990D01*
X131580999Y-104917979D02*
X131580999Y-106560589D01*
X130892342Y-104229322D02*
X131580999Y-104917979D01*
X131580999Y-106560589D02*
X132705390Y-107684980D01*
X132705390Y-107684980D02*
X139080251Y-107684979D01*
X140542029Y-105202971D02*
X142240000Y-103505000D01*
X139080251Y-107684979D02*
X140542029Y-106223201D01*
X140542029Y-106223201D02*
X140542029Y-105202971D01*
X132031009Y-104660883D02*
X132031009Y-106123009D01*
X132031009Y-106123009D02*
X133142970Y-107234970D01*
X133142970Y-107234970D02*
X138893850Y-107234970D01*
X131245895Y-103875769D02*
X132031009Y-104660883D01*
X140092019Y-103112981D02*
X140652500Y-102552500D01*
X140092019Y-106036801D02*
X140092019Y-103112981D01*
X139955410Y-106173410D02*
X140092019Y-106036801D01*
X138893850Y-107234970D02*
X139955410Y-106173410D01*
X140600020Y-102604980D02*
X140652500Y-102552500D01*
X140652500Y-102552500D02*
X142240000Y-100965000D01*
X140150010Y-100514990D02*
X142240000Y-98425000D01*
X132481019Y-104403785D02*
X132481019Y-105936609D01*
X131599449Y-103522215D02*
X132481019Y-104403785D01*
X132481019Y-105936609D02*
X133329370Y-106784960D01*
X133329370Y-106784960D02*
X138707451Y-106784959D01*
X139642010Y-101022990D02*
X140150010Y-100514990D01*
X139642010Y-105850400D02*
X139642010Y-101022990D01*
X139510205Y-105982205D02*
X139642010Y-105850400D01*
X138707451Y-106784959D02*
X139510205Y-105982205D01*
X139700000Y-98425000D02*
X142240000Y-95885000D01*
X132931028Y-104146688D02*
X132931029Y-104217385D01*
X131953002Y-103168662D02*
X132931028Y-104146688D01*
X132931028Y-105750208D02*
X133515770Y-106334950D01*
X132931028Y-104146688D02*
X132931028Y-105750208D01*
X133515770Y-106334950D02*
X138521050Y-106334950D01*
X139192000Y-98933000D02*
X139700000Y-98425000D01*
X139192000Y-105664000D02*
X139192000Y-98933000D01*
X138521050Y-106334950D02*
X139192000Y-105664000D01*
X142113000Y-93472000D02*
X142240000Y-93345000D01*
X133913678Y-96381982D02*
X133984375Y-96381981D01*
X133013662Y-97281998D02*
X133913678Y-96381982D01*
X133984375Y-96381981D02*
X138060019Y-96381981D01*
X138314021Y-96381979D02*
X138576479Y-96381979D01*
X138060019Y-96381981D02*
X138314019Y-96381981D01*
X138314019Y-96381981D02*
X138314021Y-96381979D01*
X138576479Y-96381979D02*
X140970000Y-93988458D01*
X140970000Y-93988458D02*
X141469542Y-93988458D01*
X142113000Y-93345000D02*
X142240000Y-93345000D01*
X141469542Y-93988458D02*
X142113000Y-93345000D01*
X140462000Y-92583000D02*
X142240000Y-90805000D01*
X132660109Y-96928445D02*
X133656583Y-95931971D01*
X140462000Y-93860048D02*
X140462000Y-93218000D01*
X138390078Y-95931970D02*
X140462000Y-93860048D01*
X137841971Y-95931971D02*
X138390078Y-95931970D01*
X133656583Y-95931971D02*
X137841971Y-95931971D01*
X140462000Y-93218000D02*
X140462000Y-92583000D01*
X140011990Y-90493010D02*
X142240000Y-88265000D01*
X133399484Y-95481962D02*
X133470183Y-95481961D01*
X132306555Y-96574891D02*
X133399484Y-95481962D01*
X140011990Y-93673648D02*
X140011990Y-93275990D01*
X138203677Y-95481961D02*
X140011990Y-93673648D01*
X133470183Y-95481961D02*
X137690039Y-95481961D01*
X137690039Y-95481961D02*
X138203677Y-95481961D01*
X140011990Y-93275990D02*
X140011990Y-90493010D01*
X141390001Y-86574999D02*
X142240000Y-85725000D01*
X139561980Y-88403020D02*
X141390001Y-86574999D01*
X131953002Y-96221338D02*
X133178340Y-94996000D01*
X139561980Y-93487250D02*
X139561980Y-93079980D01*
X138053229Y-94996001D02*
X139561980Y-93487250D01*
X137414000Y-94996000D02*
X138053229Y-94996001D01*
X139561980Y-93079980D02*
X139561980Y-88403020D01*
X133178340Y-94996000D02*
X137414000Y-94996000D01*
X141390001Y-84034999D02*
X142240000Y-83185000D01*
X139111970Y-86313030D02*
X141390001Y-84034999D01*
X131599449Y-95867785D02*
X132921243Y-94545991D01*
X137866829Y-94545991D02*
X139111970Y-93300850D01*
X137471991Y-94545991D02*
X137866829Y-94545991D01*
X132921243Y-94545991D02*
X137471991Y-94545991D01*
X139111970Y-93300850D02*
X139111970Y-92790030D01*
X139111970Y-92790030D02*
X139111970Y-86313030D01*
X140462000Y-79246590D02*
X140462000Y-77343000D01*
X140462000Y-77343000D02*
X142240000Y-75565000D01*
X137761941Y-81946649D02*
X140462000Y-79246590D01*
X137761940Y-92741650D02*
X137761941Y-81946649D01*
X137307629Y-93195961D02*
X137761940Y-92741650D01*
X127595457Y-94568477D02*
X127595457Y-94146543D01*
X128187658Y-95160678D02*
X127595457Y-94568477D01*
X127595457Y-94146543D02*
X128891674Y-92850326D01*
X128891674Y-92850326D02*
X132318507Y-92850327D01*
X132318507Y-92850327D02*
X132664141Y-93195961D01*
X132664141Y-93195961D02*
X137307629Y-93195961D01*
X126066338Y-97281998D02*
X126828340Y-98044000D01*
X126828340Y-98044000D02*
X127508000Y-98044000D01*
X127508000Y-98044000D02*
X127508000Y-98044000D01*
X128016000Y-87766000D02*
X127635000Y-87385000D01*
X128016000Y-91440000D02*
X128016000Y-87766000D01*
X139065000Y-71120000D02*
X137160000Y-69215000D01*
X139249990Y-71304990D02*
X139065000Y-71120000D01*
X143696401Y-71304991D02*
X139249990Y-71304990D01*
X144595009Y-72203599D02*
X143696401Y-71304991D01*
X144595009Y-78289991D02*
X144595009Y-72203599D01*
X142240000Y-80645000D02*
X144595009Y-78289991D01*
X138661960Y-84223040D02*
X142240000Y-80645000D01*
X131245895Y-95514231D02*
X132664144Y-94095982D01*
X132664144Y-94095982D02*
X132734843Y-94095981D01*
X138661960Y-93114450D02*
X138661960Y-84223040D01*
X137680430Y-94095980D02*
X138661960Y-93114450D01*
X132664144Y-94095982D02*
X137680430Y-94095980D01*
X143510000Y-71755000D02*
X137160000Y-71755000D01*
X144145000Y-72390000D02*
X143510000Y-71755000D01*
X142240000Y-78105000D02*
X144145000Y-76200000D01*
X144145000Y-76200000D02*
X144145000Y-72390000D01*
X138211950Y-82133050D02*
X142240000Y-78105000D01*
X130048000Y-93300336D02*
X132132106Y-93300336D01*
X128541212Y-94807124D02*
X130048000Y-93300336D01*
X132132106Y-93300336D02*
X132477741Y-93645971D01*
X132477741Y-93645971D02*
X137494029Y-93645971D01*
X137494029Y-93645971D02*
X138211950Y-92928050D01*
X138211950Y-92928050D02*
X138211950Y-82133050D01*
X124460000Y-109102870D02*
X124460000Y-113665000D01*
X124009990Y-108652860D02*
X124460000Y-109102870D01*
X125005678Y-101047342D02*
X124009990Y-102043030D01*
X124009990Y-102043030D02*
X124009990Y-108652860D01*
X125359231Y-101400895D02*
X124460000Y-102300126D01*
X124477661Y-106951661D02*
X124477662Y-108484122D01*
X124460000Y-102300126D02*
X124460000Y-106934000D01*
X124460000Y-106934000D02*
X124477661Y-106951661D01*
X127000000Y-111006460D02*
X127000000Y-113665000D01*
X124477662Y-108484122D02*
X127000000Y-111006460D01*
X125712785Y-101754449D02*
X124927671Y-102539563D01*
X124927671Y-102539563D02*
X124927671Y-108297721D01*
X124927671Y-108297721D02*
X127465000Y-110835050D01*
X127465000Y-110835050D02*
X128615050Y-110835050D01*
X129540000Y-111760000D02*
X129540000Y-113665000D01*
X128615050Y-110835050D02*
X129540000Y-111760000D01*
X126066338Y-102108002D02*
X125377680Y-102796661D01*
X125377680Y-102796661D02*
X125377680Y-108111320D01*
X125377680Y-108111320D02*
X127651400Y-110385040D01*
X127651400Y-110385040D02*
X131213040Y-110385040D01*
X132080000Y-111252000D02*
X132080000Y-113665000D01*
X131213040Y-110385040D02*
X132080000Y-111252000D01*
X126419891Y-102461555D02*
X125827690Y-103053756D01*
X125827690Y-107924920D02*
X127837800Y-109935030D01*
X125827690Y-103053756D02*
X125827690Y-107924920D01*
X127837800Y-109935030D02*
X133557030Y-109935030D01*
X134620000Y-110998000D02*
X134620000Y-113665000D01*
X133557030Y-109935030D02*
X134620000Y-110998000D01*
M02*
